<svg xmlns="http://www.w3.org/2000/svg" xmlns:xlink="http://www.w3.org/1999/xlink" width="600" height="400" viewBox="0 0 2400 1600">
<defs>
  <clipPath id="clip020">
    <rect x="0" y="0" width="2400" height="1600"></rect>
  </clipPath>
</defs>
<path clip-path="url(#clip020)" d="M0 1600 L2400 1600 L2400 0 L0 0  Z" fill="#ffffff" fill-rule="evenodd" fill-opacity="1"></path>
<defs>
  <clipPath id="clip021">
    <rect x="480" y="0" width="1681" height="1600"></rect>
  </clipPath>
</defs>
<path clip-path="url(#clip020)" d="M467.847 1410.9 L2352.76 1410.9 L2352.76 123.472 L467.847 123.472  Z" fill="#ffffff" fill-rule="evenodd" fill-opacity="1"></path>
<defs>
  <clipPath id="clip022">
    <rect x="467" y="123" width="1886" height="1288"></rect>
  </clipPath>
</defs>
<polyline clip-path="url(#clip022)" style="stroke:#000000; stroke-linecap:round; stroke-linejoin:round; stroke-width:2; stroke-opacity:0.1; fill:none" points="718.773,1410.9 718.773,123.472 "></polyline>
<polyline clip-path="url(#clip022)" style="stroke:#000000; stroke-linecap:round; stroke-linejoin:round; stroke-width:2; stroke-opacity:0.1; fill:none" points="1113.93,1410.9 1113.93,123.472 "></polyline>
<polyline clip-path="url(#clip022)" style="stroke:#000000; stroke-linecap:round; stroke-linejoin:round; stroke-width:2; stroke-opacity:0.1; fill:none" points="1509.09,1410.9 1509.09,123.472 "></polyline>
<polyline clip-path="url(#clip022)" style="stroke:#000000; stroke-linecap:round; stroke-linejoin:round; stroke-width:2; stroke-opacity:0.1; fill:none" points="1904.25,1410.9 1904.25,123.472 "></polyline>
<polyline clip-path="url(#clip022)" style="stroke:#000000; stroke-linecap:round; stroke-linejoin:round; stroke-width:2; stroke-opacity:0.1; fill:none" points="2299.41,1410.9 2299.41,123.472 "></polyline>
<polyline clip-path="url(#clip020)" style="stroke:#000000; stroke-linecap:round; stroke-linejoin:round; stroke-width:4; stroke-opacity:1; fill:none" points="467.847,1410.9 2352.76,1410.9 "></polyline>
<polyline clip-path="url(#clip020)" style="stroke:#000000; stroke-linecap:round; stroke-linejoin:round; stroke-width:4; stroke-opacity:1; fill:none" points="718.773,1410.9 718.773,1392 "></polyline>
<polyline clip-path="url(#clip020)" style="stroke:#000000; stroke-linecap:round; stroke-linejoin:round; stroke-width:4; stroke-opacity:1; fill:none" points="1113.93,1410.9 1113.93,1392 "></polyline>
<polyline clip-path="url(#clip020)" style="stroke:#000000; stroke-linecap:round; stroke-linejoin:round; stroke-width:4; stroke-opacity:1; fill:none" points="1509.09,1410.9 1509.09,1392 "></polyline>
<polyline clip-path="url(#clip020)" style="stroke:#000000; stroke-linecap:round; stroke-linejoin:round; stroke-width:4; stroke-opacity:1; fill:none" points="1904.25,1410.9 1904.25,1392 "></polyline>
<polyline clip-path="url(#clip020)" style="stroke:#000000; stroke-linecap:round; stroke-linejoin:round; stroke-width:4; stroke-opacity:1; fill:none" points="2299.41,1410.9 2299.41,1392 "></polyline>
<path clip-path="url(#clip020)" d="M683.765 1485.02 L691.404 1485.02 L691.404 1458.66 L683.094 1460.32 L683.094 1456.06 L691.358 1454.4 L696.033 1454.4 L696.033 1485.02 L703.672 1485.02 L703.672 1488.96 L683.765 1488.96 L683.765 1485.02 Z" fill="#000000" fill-rule="evenodd" fill-opacity="1"></path><path clip-path="url(#clip020)" d="M723.117 1457.48 Q719.506 1457.48 717.677 1461.04 Q715.871 1464.58 715.871 1471.71 Q715.871 1478.82 717.677 1482.38 Q719.506 1485.92 723.117 1485.92 Q726.751 1485.92 728.556 1482.38 Q730.385 1478.82 730.385 1471.71 Q730.385 1464.58 728.556 1461.04 Q726.751 1457.48 723.117 1457.48 M723.117 1453.77 Q728.927 1453.77 731.982 1458.38 Q735.061 1462.96 735.061 1471.71 Q735.061 1480.44 731.982 1485.04 Q728.927 1489.63 723.117 1489.63 Q717.306 1489.63 714.228 1485.04 Q711.172 1480.44 711.172 1471.71 Q711.172 1462.96 714.228 1458.38 Q717.306 1453.77 723.117 1453.77 Z" fill="#000000" fill-rule="evenodd" fill-opacity="1"></path><path clip-path="url(#clip020)" d="M745.086 1445.99 Q742.528 1445.99 741.023 1447.74 Q739.537 1449.49 739.537 1452.54 Q739.537 1455.57 741.023 1457.33 Q742.528 1459.08 745.086 1459.08 Q747.643 1459.08 749.129 1457.33 Q750.634 1455.57 750.634 1452.54 Q750.634 1449.49 749.129 1447.74 Q747.643 1445.99 745.086 1445.99 M752.627 1434.09 L752.627 1437.55 Q751.198 1436.87 749.731 1436.51 Q748.283 1436.16 746.853 1436.16 Q743.092 1436.16 741.098 1438.69 Q739.124 1441.23 738.841 1446.37 Q739.951 1444.73 741.625 1443.87 Q743.299 1442.98 745.311 1442.98 Q749.543 1442.98 751.988 1445.56 Q754.452 1448.12 754.452 1452.54 Q754.452 1456.86 751.894 1459.48 Q749.336 1462.09 745.086 1462.09 Q740.214 1462.09 737.638 1458.37 Q735.061 1454.62 735.061 1447.53 Q735.061 1440.88 738.221 1436.93 Q741.38 1432.96 746.703 1432.96 Q748.132 1432.96 749.581 1433.24 Q751.048 1433.52 752.627 1434.09 Z" fill="#000000" fill-rule="evenodd" fill-opacity="1"></path><path clip-path="url(#clip020)" d="M1079.59 1485.02 L1087.23 1485.02 L1087.23 1458.66 L1078.92 1460.32 L1078.92 1456.06 L1087.18 1454.4 L1091.86 1454.4 L1091.86 1485.02 L1099.5 1485.02 L1099.5 1488.96 L1079.59 1488.96 L1079.59 1485.02 Z" fill="#000000" fill-rule="evenodd" fill-opacity="1"></path><path clip-path="url(#clip020)" d="M1118.94 1457.48 Q1115.33 1457.48 1113.5 1461.04 Q1111.7 1464.58 1111.7 1471.71 Q1111.7 1478.82 1113.5 1482.38 Q1115.33 1485.92 1118.94 1485.92 Q1122.58 1485.92 1124.38 1482.38 Q1126.21 1478.82 1126.21 1471.71 Q1126.21 1464.58 1124.38 1461.04 Q1122.58 1457.48 1118.94 1457.48 M1118.94 1453.77 Q1124.75 1453.77 1127.81 1458.38 Q1130.89 1462.96 1130.89 1471.71 Q1130.89 1480.44 1127.81 1485.04 Q1124.75 1489.63 1118.94 1489.63 Q1113.13 1489.63 1110.05 1485.04 Q1107 1480.44 1107 1471.71 Q1107 1462.96 1110.05 1458.38 Q1113.13 1453.77 1118.94 1453.77 Z" fill="#000000" fill-rule="evenodd" fill-opacity="1"></path><path clip-path="url(#clip020)" d="M1130.89 1433.47 L1148.94 1433.47 L1148.94 1435.08 L1138.75 1461.55 L1134.78 1461.55 L1144.37 1436.66 L1130.89 1436.66 L1130.89 1433.47 Z" fill="#000000" fill-rule="evenodd" fill-opacity="1"></path><path clip-path="url(#clip020)" d="M1474.15 1485.02 L1481.79 1485.02 L1481.79 1458.66 L1473.48 1460.32 L1473.48 1456.06 L1481.74 1454.4 L1486.42 1454.4 L1486.42 1485.02 L1494.06 1485.02 L1494.06 1488.96 L1474.15 1488.96 L1474.15 1485.02 Z" fill="#000000" fill-rule="evenodd" fill-opacity="1"></path><path clip-path="url(#clip020)" d="M1513.5 1457.48 Q1509.89 1457.48 1508.06 1461.04 Q1506.26 1464.58 1506.26 1471.71 Q1506.26 1478.82 1508.06 1482.38 Q1509.89 1485.92 1513.5 1485.92 Q1517.14 1485.92 1518.94 1482.38 Q1520.77 1478.82 1520.77 1471.71 Q1520.77 1464.58 1518.94 1461.04 Q1517.14 1457.48 1513.5 1457.48 M1513.5 1453.77 Q1519.31 1453.77 1522.37 1458.38 Q1525.45 1462.96 1525.45 1471.71 Q1525.45 1480.44 1522.37 1485.04 Q1519.31 1489.63 1513.5 1489.63 Q1507.69 1489.63 1504.61 1485.04 Q1501.56 1480.44 1501.56 1471.71 Q1501.56 1462.96 1504.61 1458.38 Q1507.69 1453.77 1513.5 1453.77 Z" fill="#000000" fill-rule="evenodd" fill-opacity="1"></path><path clip-path="url(#clip020)" d="M1535.07 1448.21 Q1532.37 1448.21 1530.81 1449.66 Q1529.26 1451.11 1529.26 1453.65 Q1529.26 1456.19 1530.81 1457.63 Q1532.37 1459.08 1535.07 1459.08 Q1537.78 1459.08 1539.34 1457.63 Q1540.91 1456.17 1540.91 1453.65 Q1540.91 1451.11 1539.34 1449.66 Q1537.8 1448.21 1535.07 1448.21 M1531.28 1446.59 Q1528.83 1445.99 1527.46 1444.32 Q1526.1 1442.64 1526.1 1440.24 Q1526.1 1436.87 1528.49 1434.91 Q1530.9 1432.96 1535.07 1432.96 Q1539.27 1432.96 1541.66 1434.91 Q1544.05 1436.87 1544.05 1440.24 Q1544.05 1442.64 1542.67 1444.32 Q1541.32 1445.99 1538.89 1446.59 Q1541.64 1447.23 1543.16 1449.1 Q1544.7 1450.96 1544.7 1453.65 Q1544.7 1457.73 1542.2 1459.91 Q1539.72 1462.09 1535.07 1462.09 Q1530.43 1462.09 1527.93 1459.91 Q1525.45 1457.73 1525.45 1453.65 Q1525.45 1450.96 1526.99 1449.1 Q1528.53 1447.23 1531.28 1446.59 M1529.88 1440.59 Q1529.88 1442.78 1531.24 1444 Q1532.61 1445.22 1535.07 1445.22 Q1537.52 1445.22 1538.89 1444 Q1540.28 1442.78 1540.28 1440.59 Q1540.28 1438.41 1538.89 1437.19 Q1537.52 1435.97 1535.07 1435.97 Q1532.61 1435.97 1531.24 1437.19 Q1529.88 1438.41 1529.88 1440.59 Z" fill="#000000" fill-rule="evenodd" fill-opacity="1"></path><path clip-path="url(#clip020)" d="M1869.25 1485.02 L1876.89 1485.02 L1876.89 1458.66 L1868.58 1460.32 L1868.58 1456.06 L1876.84 1454.4 L1881.52 1454.4 L1881.52 1485.02 L1889.16 1485.02 L1889.16 1488.96 L1869.25 1488.96 L1869.25 1485.02 Z" fill="#000000" fill-rule="evenodd" fill-opacity="1"></path><path clip-path="url(#clip020)" d="M1908.6 1457.48 Q1904.99 1457.48 1903.16 1461.04 Q1901.36 1464.58 1901.36 1471.71 Q1901.36 1478.82 1903.16 1482.38 Q1904.99 1485.92 1908.6 1485.92 Q1912.24 1485.92 1914.04 1482.38 Q1915.87 1478.82 1915.87 1471.71 Q1915.87 1464.58 1914.04 1461.04 Q1912.24 1457.48 1908.6 1457.48 M1908.6 1453.77 Q1914.41 1453.77 1917.47 1458.38 Q1920.55 1462.96 1920.55 1471.71 Q1920.55 1480.44 1917.47 1485.04 Q1914.41 1489.63 1908.6 1489.63 Q1902.79 1489.63 1899.71 1485.04 Q1896.66 1480.44 1896.66 1471.71 Q1896.66 1462.96 1899.71 1458.38 Q1902.79 1453.77 1908.6 1453.77 Z" fill="#000000" fill-rule="evenodd" fill-opacity="1"></path><path clip-path="url(#clip020)" d="M1922.35 1460.96 L1922.35 1457.5 Q1923.78 1458.18 1925.25 1458.54 Q1926.72 1458.89 1928.13 1458.89 Q1931.89 1458.89 1933.86 1456.37 Q1935.86 1453.84 1936.14 1448.68 Q1935.05 1450.3 1933.37 1451.16 Q1931.7 1452.03 1929.67 1452.03 Q1925.46 1452.03 1922.99 1449.49 Q1920.55 1446.93 1920.55 1442.51 Q1920.55 1438.19 1923.11 1435.57 Q1925.66 1432.96 1929.91 1432.96 Q1934.79 1432.96 1937.34 1436.7 Q1939.92 1440.43 1939.92 1447.53 Q1939.92 1454.17 1936.76 1458.14 Q1933.62 1462.09 1928.3 1462.09 Q1926.87 1462.09 1925.4 1461.81 Q1923.93 1461.53 1922.35 1460.96 M1929.91 1449.06 Q1932.47 1449.06 1933.96 1447.31 Q1935.46 1445.56 1935.46 1442.51 Q1935.46 1439.48 1933.96 1437.74 Q1932.47 1435.97 1929.91 1435.97 Q1927.36 1435.97 1925.85 1437.74 Q1924.37 1439.48 1924.37 1442.51 Q1924.37 1445.56 1925.85 1447.31 Q1927.36 1449.06 1929.91 1449.06 Z" fill="#000000" fill-rule="evenodd" fill-opacity="1"></path><path clip-path="url(#clip020)" d="M2252.99 1485.02 L2260.62 1485.02 L2260.62 1458.66 L2252.31 1460.32 L2252.31 1456.06 L2260.58 1454.4 L2265.25 1454.4 L2265.25 1485.02 L2272.89 1485.02 L2272.89 1488.96 L2252.99 1488.96 L2252.99 1485.02 Z" fill="#000000" fill-rule="evenodd" fill-opacity="1"></path><path clip-path="url(#clip020)" d="M2292.34 1457.48 Q2288.73 1457.48 2286.9 1461.04 Q2285.09 1464.58 2285.09 1471.71 Q2285.09 1478.82 2286.9 1482.38 Q2288.73 1485.92 2292.34 1485.92 Q2295.97 1485.92 2297.78 1482.38 Q2299.61 1478.82 2299.61 1471.71 Q2299.61 1464.58 2297.78 1461.04 Q2295.97 1457.48 2292.34 1457.48 M2292.34 1453.77 Q2298.15 1453.77 2301.2 1458.38 Q2304.28 1462.96 2304.28 1471.71 Q2304.28 1480.44 2301.2 1485.04 Q2298.15 1489.63 2292.34 1489.63 Q2286.53 1489.63 2283.45 1485.04 Q2280.39 1480.44 2280.39 1471.71 Q2280.39 1462.96 2283.45 1458.38 Q2286.53 1453.77 2292.34 1453.77 Z" fill="#000000" fill-rule="evenodd" fill-opacity="1"></path><path clip-path="url(#clip020)" d="M2304.83 1458.35 L2311.03 1458.35 L2311.03 1436.93 L2304.28 1438.28 L2304.28 1434.82 L2311 1433.47 L2314.79 1433.47 L2314.79 1458.35 L2321 1458.35 L2321 1461.55 L2304.83 1461.55 L2304.83 1458.35 Z" fill="#000000" fill-rule="evenodd" fill-opacity="1"></path><path clip-path="url(#clip020)" d="M2336.8 1435.97 Q2333.87 1435.97 2332.38 1438.86 Q2330.91 1441.74 2330.91 1447.53 Q2330.91 1453.31 2332.38 1456.2 Q2333.87 1459.08 2336.8 1459.08 Q2339.75 1459.08 2341.22 1456.2 Q2342.71 1453.31 2342.71 1447.53 Q2342.71 1441.74 2341.22 1438.86 Q2339.75 1435.97 2336.8 1435.97 M2336.8 1432.96 Q2341.52 1432.96 2344 1436.7 Q2346.5 1440.43 2346.5 1447.53 Q2346.5 1454.62 2344 1458.37 Q2341.52 1462.09 2336.8 1462.09 Q2332.08 1462.09 2329.58 1458.37 Q2327.1 1454.62 2327.1 1447.53 Q2327.1 1440.43 2329.58 1436.7 Q2332.08 1432.96 2336.8 1432.96 Z" fill="#000000" fill-rule="evenodd" fill-opacity="1"></path><path clip-path="url(#clip020)" d="M1333.66 1544.14 L1341.46 1566.16 L1352.6 1538.54 L1358.8 1538.54 L1344.38 1574.19 L1344.38 1587.74 L1338.53 1587.74 L1338.53 1574.19 L1329.17 1547.58 Q1327.77 1543.57 1324.75 1543.57 L1323.19 1543.57 L1323.19 1538.54 L1325.41 1538.54 Q1331.68 1538.54 1333.66 1544.14 Z" fill="#000000" fill-rule="evenodd" fill-opacity="1"></path><path clip-path="url(#clip020)" d="M1369.27 1549.3 L1382.77 1549.3 L1382.77 1552.92 L1363.74 1552.92 L1363.74 1549.42 Q1364.82 1548.44 1366.82 1546.65 Q1377.77 1536.95 1377.77 1533.95 Q1377.77 1531.85 1376.12 1530.58 Q1374.46 1529.28 1371.76 1529.28 Q1370.1 1529.28 1368.16 1529.85 Q1366.22 1530.39 1363.93 1531.5 L1363.93 1527.59 Q1366.38 1526.7 1368.48 1526.25 Q1370.61 1525.81 1372.43 1525.81 Q1377.04 1525.81 1379.81 1527.91 Q1382.58 1530.01 1382.58 1533.44 Q1382.58 1537.87 1372.04 1546.91 Q1370.26 1548.44 1369.27 1549.3 Z" fill="#000000" fill-rule="evenodd" fill-opacity="1"></path><path clip-path="url(#clip020)" d="M1403.43 1526.67 L1408.84 1526.67 L1392.29 1580.23 L1386.88 1580.23 L1403.43 1526.67 Z" fill="#000000" fill-rule="evenodd" fill-opacity="1"></path><path clip-path="url(#clip020)" d="M1420.33 1544.14 L1428.13 1566.16 L1439.27 1538.54 L1445.47 1538.54 L1431.05 1574.19 L1431.05 1587.74 L1425.2 1587.74 L1425.2 1574.19 L1415.84 1547.58 Q1414.44 1543.57 1411.42 1543.57 L1409.86 1543.57 L1409.86 1538.54 L1412.08 1538.54 Q1418.35 1538.54 1420.33 1544.14 Z" fill="#000000" fill-rule="evenodd" fill-opacity="1"></path><path clip-path="url(#clip020)" d="M1455.94 1549.3 L1469.44 1549.3 L1469.44 1552.92 L1450.41 1552.92 L1450.41 1549.42 Q1451.49 1548.44 1453.49 1546.65 Q1464.44 1536.95 1464.44 1533.95 Q1464.44 1531.85 1462.79 1530.58 Q1461.13 1529.28 1458.43 1529.28 Q1456.77 1529.28 1454.83 1529.85 Q1452.89 1530.39 1450.6 1531.5 L1450.6 1527.59 Q1453.05 1526.7 1455.15 1526.25 Q1457.28 1525.81 1459.09 1525.81 Q1463.71 1525.81 1466.48 1527.91 Q1469.25 1530.01 1469.25 1533.44 Q1469.25 1537.87 1458.71 1546.91 Q1456.93 1548.44 1455.94 1549.3 Z" fill="#000000" fill-rule="evenodd" fill-opacity="1"></path><path clip-path="url(#clip020)" d="M1491.69 1552.64 Q1490.1 1549.9 1486.88 1549.9 Q1483.67 1549.9 1482.07 1552.64 Q1480.45 1555.37 1480.45 1560.85 Q1480.45 1566.36 1482.07 1569.09 Q1483.67 1571.83 1486.88 1571.83 Q1490.1 1571.83 1491.69 1569.09 Q1493.31 1566.36 1493.31 1560.85 Q1493.31 1555.37 1491.69 1552.64 M1486.88 1547.07 Q1492.01 1547.07 1494.71 1550.6 Q1497.42 1554.13 1497.42 1560.85 Q1497.42 1567.6 1494.71 1571.13 Q1492.01 1574.66 1486.88 1574.66 Q1481.72 1574.66 1479.02 1571.13 Q1476.31 1567.6 1476.31 1560.85 Q1476.31 1554.13 1479.02 1550.6 Q1481.72 1547.07 1486.88 1547.07 Z" fill="#000000" fill-rule="evenodd" fill-opacity="1"></path><polyline clip-path="url(#clip022)" style="stroke:#000000; stroke-linecap:round; stroke-linejoin:round; stroke-width:2; stroke-opacity:0.1; fill:none" points="467.847,1331.15 2352.76,1331.15 "></polyline>
<polyline clip-path="url(#clip022)" style="stroke:#000000; stroke-linecap:round; stroke-linejoin:round; stroke-width:2; stroke-opacity:0.1; fill:none" points="467.847,1158.08 2352.76,1158.08 "></polyline>
<polyline clip-path="url(#clip022)" style="stroke:#000000; stroke-linecap:round; stroke-linejoin:round; stroke-width:2; stroke-opacity:0.1; fill:none" points="467.847,985.013 2352.76,985.013 "></polyline>
<polyline clip-path="url(#clip022)" style="stroke:#000000; stroke-linecap:round; stroke-linejoin:round; stroke-width:2; stroke-opacity:0.1; fill:none" points="467.847,811.942 2352.76,811.942 "></polyline>
<polyline clip-path="url(#clip022)" style="stroke:#000000; stroke-linecap:round; stroke-linejoin:round; stroke-width:2; stroke-opacity:0.1; fill:none" points="467.847,638.871 2352.76,638.871 "></polyline>
<polyline clip-path="url(#clip022)" style="stroke:#000000; stroke-linecap:round; stroke-linejoin:round; stroke-width:2; stroke-opacity:0.1; fill:none" points="467.847,465.801 2352.76,465.801 "></polyline>
<polyline clip-path="url(#clip022)" style="stroke:#000000; stroke-linecap:round; stroke-linejoin:round; stroke-width:2; stroke-opacity:0.1; fill:none" points="467.847,292.73 2352.76,292.73 "></polyline>
<polyline clip-path="url(#clip020)" style="stroke:#000000; stroke-linecap:round; stroke-linejoin:round; stroke-width:4; stroke-opacity:1; fill:none" points="467.847,1410.9 467.847,123.472 "></polyline>
<polyline clip-path="url(#clip020)" style="stroke:#000000; stroke-linecap:round; stroke-linejoin:round; stroke-width:4; stroke-opacity:1; fill:none" points="467.847,1331.15 486.744,1331.15 "></polyline>
<polyline clip-path="url(#clip020)" style="stroke:#000000; stroke-linecap:round; stroke-linejoin:round; stroke-width:4; stroke-opacity:1; fill:none" points="467.847,1158.08 486.744,1158.08 "></polyline>
<polyline clip-path="url(#clip020)" style="stroke:#000000; stroke-linecap:round; stroke-linejoin:round; stroke-width:4; stroke-opacity:1; fill:none" points="467.847,985.013 486.744,985.013 "></polyline>
<polyline clip-path="url(#clip020)" style="stroke:#000000; stroke-linecap:round; stroke-linejoin:round; stroke-width:4; stroke-opacity:1; fill:none" points="467.847,811.942 486.744,811.942 "></polyline>
<polyline clip-path="url(#clip020)" style="stroke:#000000; stroke-linecap:round; stroke-linejoin:round; stroke-width:4; stroke-opacity:1; fill:none" points="467.847,638.871 486.744,638.871 "></polyline>
<polyline clip-path="url(#clip020)" style="stroke:#000000; stroke-linecap:round; stroke-linejoin:round; stroke-width:4; stroke-opacity:1; fill:none" points="467.847,465.801 486.744,465.801 "></polyline>
<polyline clip-path="url(#clip020)" style="stroke:#000000; stroke-linecap:round; stroke-linejoin:round; stroke-width:4; stroke-opacity:1; fill:none" points="467.847,292.73 486.744,292.73 "></polyline>
<path clip-path="url(#clip020)" d="M114.26 1338.05 L143.936 1338.05 L143.936 1341.99 L114.26 1341.99 L114.26 1338.05 Z" fill="#000000" fill-rule="evenodd" fill-opacity="1"></path><path clip-path="url(#clip020)" d="M158.056 1350.95 L174.376 1350.95 L174.376 1354.88 L152.431 1354.88 L152.431 1350.95 Q155.093 1348.19 159.677 1343.56 Q164.283 1338.91 165.464 1337.57 Q167.709 1335.04 168.589 1333.31 Q169.491 1331.55 169.491 1329.86 Q169.491 1327.1 167.547 1325.37 Q165.626 1323.63 162.524 1323.63 Q160.325 1323.63 157.871 1324.4 Q155.44 1325.16 152.663 1326.71 L152.663 1321.99 Q155.487 1320.85 157.94 1320.28 Q160.394 1319.7 162.431 1319.7 Q167.802 1319.7 170.996 1322.38 Q174.19 1325.07 174.19 1329.56 Q174.19 1331.69 173.38 1333.61 Q172.593 1335.51 170.487 1338.1 Q169.908 1338.77 166.806 1341.99 Q163.704 1345.18 158.056 1350.95 Z" fill="#000000" fill-rule="evenodd" fill-opacity="1"></path><path clip-path="url(#clip020)" d="M184.19 1349 L189.075 1349 L189.075 1354.88 L184.19 1354.88 L184.19 1349 Z" fill="#000000" fill-rule="evenodd" fill-opacity="1"></path><path clip-path="url(#clip020)" d="M199.306 1320.32 L217.662 1320.32 L217.662 1324.26 L203.588 1324.26 L203.588 1332.73 Q204.607 1332.38 205.625 1332.22 Q206.644 1332.03 207.662 1332.03 Q213.449 1332.03 216.829 1335.21 Q220.209 1338.38 220.209 1343.79 Q220.209 1349.37 216.736 1352.47 Q213.264 1355.55 206.945 1355.55 Q204.769 1355.55 202.5 1355.18 Q200.255 1354.81 197.848 1354.07 L197.848 1349.37 Q199.931 1350.51 202.153 1351.06 Q204.375 1351.62 206.852 1351.62 Q210.857 1351.62 213.195 1349.51 Q215.533 1347.4 215.533 1343.79 Q215.533 1340.18 213.195 1338.08 Q210.857 1335.97 206.852 1335.97 Q204.977 1335.97 203.102 1336.39 Q201.25 1336.8 199.306 1337.68 L199.306 1320.32 Z" fill="#000000" fill-rule="evenodd" fill-opacity="1"></path><path clip-path="url(#clip020)" d="M239.422 1323.4 Q235.81 1323.4 233.982 1326.97 Q232.176 1330.51 232.176 1337.64 Q232.176 1344.74 233.982 1348.31 Q235.81 1351.85 239.422 1351.85 Q243.056 1351.85 244.861 1348.31 Q246.69 1344.74 246.69 1337.64 Q246.69 1330.51 244.861 1326.97 Q243.056 1323.4 239.422 1323.4 M239.422 1319.7 Q245.232 1319.7 248.287 1324.3 Q251.366 1328.89 251.366 1337.64 Q251.366 1346.36 248.287 1350.97 Q245.232 1355.55 239.422 1355.55 Q233.611 1355.55 230.533 1350.97 Q227.477 1346.36 227.477 1337.64 Q227.477 1328.89 230.533 1324.3 Q233.611 1319.7 239.422 1319.7 Z" fill="#000000" fill-rule="evenodd" fill-opacity="1"></path><path clip-path="url(#clip020)" d="M269.583 1323.4 Q265.972 1323.4 264.144 1326.97 Q262.338 1330.51 262.338 1337.64 Q262.338 1344.74 264.144 1348.31 Q265.972 1351.85 269.583 1351.85 Q273.218 1351.85 275.023 1348.31 Q276.852 1344.74 276.852 1337.64 Q276.852 1330.51 275.023 1326.97 Q273.218 1323.4 269.583 1323.4 M269.583 1319.7 Q275.394 1319.7 278.449 1324.3 Q281.528 1328.89 281.528 1337.64 Q281.528 1346.36 278.449 1350.97 Q275.394 1355.55 269.583 1355.55 Q263.773 1355.55 260.695 1350.97 Q257.639 1346.36 257.639 1337.64 Q257.639 1328.89 260.695 1324.3 Q263.773 1319.7 269.583 1319.7 Z" fill="#000000" fill-rule="evenodd" fill-opacity="1"></path><path clip-path="url(#clip020)" d="M317.916 1329.42 L307.338 1340.04 L317.916 1350.62 L315.162 1353.42 L304.537 1342.8 L293.912 1353.42 L291.181 1350.62 L301.736 1340.04 L291.181 1329.42 L293.912 1326.62 L304.537 1337.24 L315.162 1326.62 L317.916 1329.42 Z" fill="#000000" fill-rule="evenodd" fill-opacity="1"></path><path clip-path="url(#clip020)" d="M330.278 1350.95 L337.916 1350.95 L337.916 1324.58 L329.606 1326.25 L329.606 1321.99 L337.87 1320.32 L342.546 1320.32 L342.546 1350.95 L350.185 1350.95 L350.185 1354.88 L330.278 1354.88 L330.278 1350.95 Z" fill="#000000" fill-rule="evenodd" fill-opacity="1"></path><path clip-path="url(#clip020)" d="M369.629 1323.4 Q366.018 1323.4 364.189 1326.97 Q362.384 1330.51 362.384 1337.64 Q362.384 1344.74 364.189 1348.31 Q366.018 1351.85 369.629 1351.85 Q373.263 1351.85 375.069 1348.31 Q376.898 1344.74 376.898 1337.64 Q376.898 1330.51 375.069 1326.97 Q373.263 1323.4 369.629 1323.4 M369.629 1319.7 Q375.439 1319.7 378.495 1324.3 Q381.574 1328.89 381.574 1337.64 Q381.574 1346.36 378.495 1350.97 Q375.439 1355.55 369.629 1355.55 Q363.819 1355.55 360.74 1350.97 Q357.685 1346.36 357.685 1337.64 Q357.685 1328.89 360.74 1324.3 Q363.819 1319.7 369.629 1319.7 Z" fill="#000000" fill-rule="evenodd" fill-opacity="1"></path><path clip-path="url(#clip020)" d="M381.574 1313.8 L405.685 1313.8 L405.685 1317 L381.574 1317 L381.574 1313.8 Z" fill="#000000" fill-rule="evenodd" fill-opacity="1"></path><path clip-path="url(#clip020)" d="M422.48 1311.92 Q419.923 1311.92 418.418 1313.67 Q416.932 1315.42 416.932 1318.46 Q416.932 1321.49 418.418 1323.26 Q419.923 1325.01 422.48 1325.01 Q425.038 1325.01 426.524 1323.26 Q428.029 1321.49 428.029 1318.46 Q428.029 1315.42 426.524 1313.67 Q425.038 1311.92 422.48 1311.92 M430.022 1300.01 L430.022 1303.47 Q428.593 1302.8 427.126 1302.44 Q425.678 1302.08 424.248 1302.08 Q420.487 1302.08 418.493 1304.62 Q416.518 1307.16 416.236 1312.29 Q417.346 1310.66 419.02 1309.79 Q420.694 1308.91 422.706 1308.91 Q426.938 1308.91 429.383 1311.48 Q431.847 1314.04 431.847 1318.46 Q431.847 1322.79 429.289 1325.4 Q426.731 1328.02 422.48 1328.02 Q417.609 1328.02 415.033 1324.29 Q412.456 1320.55 412.456 1313.46 Q412.456 1306.8 415.616 1302.85 Q418.775 1298.88 424.098 1298.88 Q425.527 1298.88 426.975 1299.17 Q428.443 1299.45 430.022 1300.01 Z" fill="#000000" fill-rule="evenodd" fill-opacity="1"></path><path clip-path="url(#clip020)" d="M419.902 1143.88 Q416.291 1143.88 414.463 1147.45 Q412.657 1150.99 412.657 1158.12 Q412.657 1165.22 414.463 1168.79 Q416.291 1172.33 419.902 1172.33 Q423.537 1172.33 425.342 1168.79 Q427.171 1165.22 427.171 1158.12 Q427.171 1150.99 425.342 1147.45 Q423.537 1143.88 419.902 1143.88 M419.902 1140.18 Q425.712 1140.18 428.768 1144.78 Q431.847 1149.37 431.847 1158.12 Q431.847 1166.85 428.768 1171.45 Q425.712 1176.03 419.902 1176.03 Q414.092 1176.03 411.013 1171.45 Q407.958 1166.85 407.958 1158.12 Q407.958 1149.37 411.013 1144.78 Q414.092 1140.18 419.902 1140.18 Z" fill="#000000" fill-rule="evenodd" fill-opacity="1"></path><path clip-path="url(#clip020)" d="M158.056 1004.81 L174.376 1004.81 L174.376 1008.74 L152.431 1008.74 L152.431 1004.81 Q155.093 1002.05 159.677 997.421 Q164.283 992.768 165.464 991.426 Q167.709 988.902 168.589 987.166 Q169.491 985.407 169.491 983.717 Q169.491 980.963 167.547 979.227 Q165.626 977.491 162.524 977.491 Q160.325 977.491 157.871 978.254 Q155.44 979.018 152.663 980.569 L152.663 975.847 Q155.487 974.713 157.94 974.134 Q160.394 973.555 162.431 973.555 Q167.802 973.555 170.996 976.241 Q174.19 978.926 174.19 983.416 Q174.19 985.546 173.38 987.467 Q172.593 989.365 170.487 991.958 Q169.908 992.629 166.806 995.847 Q163.704 999.041 158.056 1004.81 Z" fill="#000000" fill-rule="evenodd" fill-opacity="1"></path><path clip-path="url(#clip020)" d="M184.19 1002.86 L189.075 1002.86 L189.075 1008.74 L184.19 1008.74 L184.19 1002.86 Z" fill="#000000" fill-rule="evenodd" fill-opacity="1"></path><path clip-path="url(#clip020)" d="M199.306 974.18 L217.662 974.18 L217.662 978.116 L203.588 978.116 L203.588 986.588 Q204.607 986.24 205.625 986.078 Q206.644 985.893 207.662 985.893 Q213.449 985.893 216.829 989.065 Q220.209 992.236 220.209 997.652 Q220.209 1003.23 216.736 1006.33 Q213.264 1009.41 206.945 1009.41 Q204.769 1009.41 202.5 1009.04 Q200.255 1008.67 197.848 1007.93 L197.848 1003.23 Q199.931 1004.37 202.153 1004.92 Q204.375 1005.48 206.852 1005.48 Q210.857 1005.48 213.195 1003.37 Q215.533 1001.26 215.533 997.652 Q215.533 994.041 213.195 991.935 Q210.857 989.828 206.852 989.828 Q204.977 989.828 203.102 990.245 Q201.25 990.662 199.306 991.541 L199.306 974.18 Z" fill="#000000" fill-rule="evenodd" fill-opacity="1"></path><path clip-path="url(#clip020)" d="M239.422 977.259 Q235.81 977.259 233.982 980.824 Q232.176 984.365 232.176 991.495 Q232.176 998.602 233.982 1002.17 Q235.81 1005.71 239.422 1005.71 Q243.056 1005.71 244.861 1002.17 Q246.69 998.602 246.69 991.495 Q246.69 984.365 244.861 980.824 Q243.056 977.259 239.422 977.259 M239.422 973.555 Q245.232 973.555 248.287 978.162 Q251.366 982.745 251.366 991.495 Q251.366 1000.22 248.287 1004.83 Q245.232 1009.41 239.422 1009.41 Q233.611 1009.41 230.533 1004.83 Q227.477 1000.22 227.477 991.495 Q227.477 982.745 230.533 978.162 Q233.611 973.555 239.422 973.555 Z" fill="#000000" fill-rule="evenodd" fill-opacity="1"></path><path clip-path="url(#clip020)" d="M269.583 977.259 Q265.972 977.259 264.144 980.824 Q262.338 984.365 262.338 991.495 Q262.338 998.602 264.144 1002.17 Q265.972 1005.71 269.583 1005.71 Q273.218 1005.71 275.023 1002.17 Q276.852 998.602 276.852 991.495 Q276.852 984.365 275.023 980.824 Q273.218 977.259 269.583 977.259 M269.583 973.555 Q275.394 973.555 278.449 978.162 Q281.528 982.745 281.528 991.495 Q281.528 1000.22 278.449 1004.83 Q275.394 1009.41 269.583 1009.41 Q263.773 1009.41 260.695 1004.83 Q257.639 1000.22 257.639 991.495 Q257.639 982.745 260.695 978.162 Q263.773 973.555 269.583 973.555 Z" fill="#000000" fill-rule="evenodd" fill-opacity="1"></path><path clip-path="url(#clip020)" d="M317.916 983.278 L307.338 993.902 L317.916 1004.48 L315.162 1007.28 L304.537 996.657 L293.912 1007.28 L291.181 1004.48 L301.736 993.902 L291.181 983.278 L293.912 980.477 L304.537 991.102 L315.162 980.477 L317.916 983.278 Z" fill="#000000" fill-rule="evenodd" fill-opacity="1"></path><path clip-path="url(#clip020)" d="M330.278 1004.81 L337.916 1004.81 L337.916 978.44 L329.606 980.106 L329.606 975.847 L337.87 974.18 L342.546 974.18 L342.546 1004.81 L350.185 1004.81 L350.185 1008.74 L330.278 1008.74 L330.278 1004.81 Z" fill="#000000" fill-rule="evenodd" fill-opacity="1"></path><path clip-path="url(#clip020)" d="M369.629 977.259 Q366.018 977.259 364.189 980.824 Q362.384 984.365 362.384 991.495 Q362.384 998.602 364.189 1002.17 Q366.018 1005.71 369.629 1005.71 Q373.263 1005.71 375.069 1002.17 Q376.898 998.602 376.898 991.495 Q376.898 984.365 375.069 980.824 Q373.263 977.259 369.629 977.259 M369.629 973.555 Q375.439 973.555 378.495 978.162 Q381.574 982.745 381.574 991.495 Q381.574 1000.22 378.495 1004.83 Q375.439 1009.41 369.629 1009.41 Q363.819 1009.41 360.74 1004.83 Q357.685 1000.22 357.685 991.495 Q357.685 982.745 360.74 978.162 Q363.819 973.555 369.629 973.555 Z" fill="#000000" fill-rule="evenodd" fill-opacity="1"></path><path clip-path="url(#clip020)" d="M381.574 967.657 L405.685 967.657 L405.685 970.854 L381.574 970.854 L381.574 967.657 Z" fill="#000000" fill-rule="evenodd" fill-opacity="1"></path><path clip-path="url(#clip020)" d="M422.48 965.776 Q419.923 965.776 418.418 967.525 Q416.932 969.274 416.932 972.321 Q416.932 975.349 418.418 977.117 Q419.923 978.866 422.48 978.866 Q425.038 978.866 426.524 977.117 Q428.029 975.349 428.029 972.321 Q428.029 969.274 426.524 967.525 Q425.038 965.776 422.48 965.776 M430.022 953.871 L430.022 957.331 Q428.593 956.654 427.126 956.297 Q425.678 955.939 424.248 955.939 Q420.487 955.939 418.493 958.479 Q416.518 961.018 416.236 966.152 Q417.346 964.516 419.02 963.651 Q420.694 962.767 422.706 962.767 Q426.938 962.767 429.383 965.343 Q431.847 967.901 431.847 972.321 Q431.847 976.647 429.289 979.261 Q426.731 981.875 422.48 981.875 Q417.609 981.875 415.033 978.151 Q412.456 974.409 412.456 967.318 Q412.456 960.66 415.616 956.711 Q418.775 952.742 424.098 952.742 Q425.527 952.742 426.975 953.024 Q428.443 953.306 430.022 953.871 Z" fill="#000000" fill-rule="evenodd" fill-opacity="1"></path><path clip-path="url(#clip020)" d="M154.075 801.11 L172.431 801.11 L172.431 805.045 L158.357 805.045 L158.357 813.517 Q159.376 813.17 160.394 813.008 Q161.413 812.823 162.431 812.823 Q168.218 812.823 171.598 815.994 Q174.977 819.165 174.977 824.582 Q174.977 830.16 171.505 833.262 Q168.033 836.341 161.714 836.341 Q159.538 836.341 157.269 835.971 Q155.024 835.6 152.616 834.859 L152.616 830.16 Q154.7 831.295 156.922 831.85 Q159.144 832.406 161.621 832.406 Q165.626 832.406 167.964 830.299 Q170.302 828.193 170.302 824.582 Q170.302 820.971 167.964 818.864 Q165.626 816.758 161.621 816.758 Q159.746 816.758 157.871 817.174 Q156.019 817.591 154.075 818.471 L154.075 801.11 Z" fill="#000000" fill-rule="evenodd" fill-opacity="1"></path><path clip-path="url(#clip020)" d="M184.19 829.79 L189.075 829.79 L189.075 835.67 L184.19 835.67 L184.19 829.79 Z" fill="#000000" fill-rule="evenodd" fill-opacity="1"></path><path clip-path="url(#clip020)" d="M209.26 804.188 Q205.649 804.188 203.82 807.753 Q202.014 811.295 202.014 818.424 Q202.014 825.531 203.82 829.096 Q205.649 832.637 209.26 832.637 Q212.894 832.637 214.699 829.096 Q216.528 825.531 216.528 818.424 Q216.528 811.295 214.699 807.753 Q212.894 804.188 209.26 804.188 M209.26 800.485 Q215.07 800.485 218.125 805.091 Q221.204 809.674 221.204 818.424 Q221.204 827.151 218.125 831.758 Q215.07 836.341 209.26 836.341 Q203.449 836.341 200.371 831.758 Q197.315 827.151 197.315 818.424 Q197.315 809.674 200.371 805.091 Q203.449 800.485 209.26 800.485 Z" fill="#000000" fill-rule="evenodd" fill-opacity="1"></path><path clip-path="url(#clip020)" d="M239.422 804.188 Q235.81 804.188 233.982 807.753 Q232.176 811.295 232.176 818.424 Q232.176 825.531 233.982 829.096 Q235.81 832.637 239.422 832.637 Q243.056 832.637 244.861 829.096 Q246.69 825.531 246.69 818.424 Q246.69 811.295 244.861 807.753 Q243.056 804.188 239.422 804.188 M239.422 800.485 Q245.232 800.485 248.287 805.091 Q251.366 809.674 251.366 818.424 Q251.366 827.151 248.287 831.758 Q245.232 836.341 239.422 836.341 Q233.611 836.341 230.533 831.758 Q227.477 827.151 227.477 818.424 Q227.477 809.674 230.533 805.091 Q233.611 800.485 239.422 800.485 Z" fill="#000000" fill-rule="evenodd" fill-opacity="1"></path><path clip-path="url(#clip020)" d="M269.583 804.188 Q265.972 804.188 264.144 807.753 Q262.338 811.295 262.338 818.424 Q262.338 825.531 264.144 829.096 Q265.972 832.637 269.583 832.637 Q273.218 832.637 275.023 829.096 Q276.852 825.531 276.852 818.424 Q276.852 811.295 275.023 807.753 Q273.218 804.188 269.583 804.188 M269.583 800.485 Q275.394 800.485 278.449 805.091 Q281.528 809.674 281.528 818.424 Q281.528 827.151 278.449 831.758 Q275.394 836.341 269.583 836.341 Q263.773 836.341 260.695 831.758 Q257.639 827.151 257.639 818.424 Q257.639 809.674 260.695 805.091 Q263.773 800.485 269.583 800.485 Z" fill="#000000" fill-rule="evenodd" fill-opacity="1"></path><path clip-path="url(#clip020)" d="M317.916 810.207 L307.338 820.832 L317.916 831.41 L315.162 834.211 L304.537 823.586 L293.912 834.211 L291.181 831.41 L301.736 820.832 L291.181 810.207 L293.912 807.406 L304.537 818.031 L315.162 807.406 L317.916 810.207 Z" fill="#000000" fill-rule="evenodd" fill-opacity="1"></path><path clip-path="url(#clip020)" d="M330.278 831.734 L337.916 831.734 L337.916 805.369 L329.606 807.036 L329.606 802.776 L337.87 801.11 L342.546 801.11 L342.546 831.734 L350.185 831.734 L350.185 835.67 L330.278 835.67 L330.278 831.734 Z" fill="#000000" fill-rule="evenodd" fill-opacity="1"></path><path clip-path="url(#clip020)" d="M369.629 804.188 Q366.018 804.188 364.189 807.753 Q362.384 811.295 362.384 818.424 Q362.384 825.531 364.189 829.096 Q366.018 832.637 369.629 832.637 Q373.263 832.637 375.069 829.096 Q376.898 825.531 376.898 818.424 Q376.898 811.295 375.069 807.753 Q373.263 804.188 369.629 804.188 M369.629 800.485 Q375.439 800.485 378.495 805.091 Q381.574 809.674 381.574 818.424 Q381.574 827.151 378.495 831.758 Q375.439 836.341 369.629 836.341 Q363.819 836.341 360.74 831.758 Q357.685 827.151 357.685 818.424 Q357.685 809.674 360.74 805.091 Q363.819 800.485 369.629 800.485 Z" fill="#000000" fill-rule="evenodd" fill-opacity="1"></path><path clip-path="url(#clip020)" d="M381.574 794.586 L405.685 794.586 L405.685 797.783 L381.574 797.783 L381.574 794.586 Z" fill="#000000" fill-rule="evenodd" fill-opacity="1"></path><path clip-path="url(#clip020)" d="M422.48 792.705 Q419.923 792.705 418.418 794.454 Q416.932 796.203 416.932 799.25 Q416.932 802.278 418.418 804.046 Q419.923 805.795 422.48 805.795 Q425.038 805.795 426.524 804.046 Q428.029 802.278 428.029 799.25 Q428.029 796.203 426.524 794.454 Q425.038 792.705 422.48 792.705 M430.022 780.8 L430.022 784.261 Q428.593 783.583 427.126 783.226 Q425.678 782.869 424.248 782.869 Q420.487 782.869 418.493 785.408 Q416.518 787.947 416.236 793.081 Q417.346 791.445 419.02 790.58 Q420.694 789.696 422.706 789.696 Q426.938 789.696 429.383 792.273 Q431.847 794.83 431.847 799.25 Q431.847 803.576 429.289 806.19 Q426.731 808.805 422.48 808.805 Q417.609 808.805 415.033 805.081 Q412.456 801.338 412.456 794.247 Q412.456 787.589 415.616 783.64 Q418.775 779.671 424.098 779.671 Q425.527 779.671 426.975 779.954 Q428.443 780.236 430.022 780.8 Z" fill="#000000" fill-rule="evenodd" fill-opacity="1"></path><path clip-path="url(#clip020)" d="M152.848 628.039 L175.07 628.039 L175.07 630.03 L162.524 662.599 L157.64 662.599 L169.445 631.974 L152.848 631.974 L152.848 628.039 Z" fill="#000000" fill-rule="evenodd" fill-opacity="1"></path><path clip-path="url(#clip020)" d="M184.19 656.719 L189.075 656.719 L189.075 662.599 L184.19 662.599 L184.19 656.719 Z" fill="#000000" fill-rule="evenodd" fill-opacity="1"></path><path clip-path="url(#clip020)" d="M199.306 628.039 L217.662 628.039 L217.662 631.974 L203.588 631.974 L203.588 640.446 Q204.607 640.099 205.625 639.937 Q206.644 639.752 207.662 639.752 Q213.449 639.752 216.829 642.923 Q220.209 646.094 220.209 651.511 Q220.209 657.09 216.736 660.192 Q213.264 663.27 206.945 663.27 Q204.769 663.27 202.5 662.9 Q200.255 662.529 197.848 661.789 L197.848 657.09 Q199.931 658.224 202.153 658.779 Q204.375 659.335 206.852 659.335 Q210.857 659.335 213.195 657.229 Q215.533 655.122 215.533 651.511 Q215.533 647.9 213.195 645.793 Q210.857 643.687 206.852 643.687 Q204.977 643.687 203.102 644.104 Q201.25 644.52 199.306 645.4 L199.306 628.039 Z" fill="#000000" fill-rule="evenodd" fill-opacity="1"></path><path clip-path="url(#clip020)" d="M239.422 631.118 Q235.81 631.118 233.982 634.682 Q232.176 638.224 232.176 645.354 Q232.176 652.46 233.982 656.025 Q235.81 659.567 239.422 659.567 Q243.056 659.567 244.861 656.025 Q246.69 652.46 246.69 645.354 Q246.69 638.224 244.861 634.682 Q243.056 631.118 239.422 631.118 M239.422 627.414 Q245.232 627.414 248.287 632.02 Q251.366 636.604 251.366 645.354 Q251.366 654.08 248.287 658.687 Q245.232 663.27 239.422 663.27 Q233.611 663.27 230.533 658.687 Q227.477 654.08 227.477 645.354 Q227.477 636.604 230.533 632.02 Q233.611 627.414 239.422 627.414 Z" fill="#000000" fill-rule="evenodd" fill-opacity="1"></path><path clip-path="url(#clip020)" d="M269.583 631.118 Q265.972 631.118 264.144 634.682 Q262.338 638.224 262.338 645.354 Q262.338 652.46 264.144 656.025 Q265.972 659.567 269.583 659.567 Q273.218 659.567 275.023 656.025 Q276.852 652.46 276.852 645.354 Q276.852 638.224 275.023 634.682 Q273.218 631.118 269.583 631.118 M269.583 627.414 Q275.394 627.414 278.449 632.02 Q281.528 636.604 281.528 645.354 Q281.528 654.08 278.449 658.687 Q275.394 663.27 269.583 663.27 Q263.773 663.27 260.695 658.687 Q257.639 654.08 257.639 645.354 Q257.639 636.604 260.695 632.02 Q263.773 627.414 269.583 627.414 Z" fill="#000000" fill-rule="evenodd" fill-opacity="1"></path><path clip-path="url(#clip020)" d="M317.916 637.136 L307.338 647.761 L317.916 658.34 L315.162 661.141 L304.537 650.516 L293.912 661.141 L291.181 658.34 L301.736 647.761 L291.181 637.136 L293.912 634.335 L304.537 644.96 L315.162 634.335 L317.916 637.136 Z" fill="#000000" fill-rule="evenodd" fill-opacity="1"></path><path clip-path="url(#clip020)" d="M330.278 658.664 L337.916 658.664 L337.916 632.298 L329.606 633.965 L329.606 629.706 L337.87 628.039 L342.546 628.039 L342.546 658.664 L350.185 658.664 L350.185 662.599 L330.278 662.599 L330.278 658.664 Z" fill="#000000" fill-rule="evenodd" fill-opacity="1"></path><path clip-path="url(#clip020)" d="M369.629 631.118 Q366.018 631.118 364.189 634.682 Q362.384 638.224 362.384 645.354 Q362.384 652.46 364.189 656.025 Q366.018 659.567 369.629 659.567 Q373.263 659.567 375.069 656.025 Q376.898 652.46 376.898 645.354 Q376.898 638.224 375.069 634.682 Q373.263 631.118 369.629 631.118 M369.629 627.414 Q375.439 627.414 378.495 632.02 Q381.574 636.604 381.574 645.354 Q381.574 654.08 378.495 658.687 Q375.439 663.27 369.629 663.27 Q363.819 663.27 360.74 658.687 Q357.685 654.08 357.685 645.354 Q357.685 636.604 360.74 632.02 Q363.819 627.414 369.629 627.414 Z" fill="#000000" fill-rule="evenodd" fill-opacity="1"></path><path clip-path="url(#clip020)" d="M381.574 621.515 L405.685 621.515 L405.685 624.713 L381.574 624.713 L381.574 621.515 Z" fill="#000000" fill-rule="evenodd" fill-opacity="1"></path><path clip-path="url(#clip020)" d="M422.48 619.634 Q419.923 619.634 418.418 621.384 Q416.932 623.133 416.932 626.18 Q416.932 629.208 418.418 630.976 Q419.923 632.725 422.48 632.725 Q425.038 632.725 426.524 630.976 Q428.029 629.208 428.029 626.18 Q428.029 623.133 426.524 621.384 Q425.038 619.634 422.48 619.634 M430.022 607.729 L430.022 611.19 Q428.593 610.513 427.126 610.155 Q425.678 609.798 424.248 609.798 Q420.487 609.798 418.493 612.337 Q416.518 614.876 416.236 620.011 Q417.346 618.374 419.02 617.509 Q420.694 616.625 422.706 616.625 Q426.938 616.625 429.383 619.202 Q431.847 621.76 431.847 626.18 Q431.847 630.505 429.289 633.12 Q426.731 635.734 422.48 635.734 Q417.609 635.734 415.033 632.01 Q412.456 628.267 412.456 621.177 Q412.456 614.519 415.616 610.569 Q418.775 606.601 424.098 606.601 Q425.527 606.601 426.975 606.883 Q428.443 607.165 430.022 607.729 Z" fill="#000000" fill-rule="evenodd" fill-opacity="1"></path><path clip-path="url(#clip020)" d="M155.779 485.593 L163.418 485.593 L163.418 459.227 L155.108 460.894 L155.108 456.635 L163.372 454.968 L168.047 454.968 L168.047 485.593 L175.686 485.593 L175.686 489.528 L155.779 489.528 L155.779 485.593 Z" fill="#000000" fill-rule="evenodd" fill-opacity="1"></path><path clip-path="url(#clip020)" d="M185.131 483.649 L190.015 483.649 L190.015 489.528 L185.131 489.528 L185.131 483.649 Z" fill="#000000" fill-rule="evenodd" fill-opacity="1"></path><path clip-path="url(#clip020)" d="M210.2 458.047 Q206.589 458.047 204.76 461.612 Q202.955 465.153 202.955 472.283 Q202.955 479.389 204.76 482.954 Q206.589 486.496 210.2 486.496 Q213.834 486.496 215.64 482.954 Q217.469 479.389 217.469 472.283 Q217.469 465.153 215.64 461.612 Q213.834 458.047 210.2 458.047 M210.2 454.343 Q216.01 454.343 219.066 458.95 Q222.144 463.533 222.144 472.283 Q222.144 481.01 219.066 485.616 Q216.01 490.199 210.2 490.199 Q204.39 490.199 201.311 485.616 Q198.256 481.01 198.256 472.283 Q198.256 463.533 201.311 458.95 Q204.39 454.343 210.2 454.343 Z" fill="#000000" fill-rule="evenodd" fill-opacity="1"></path><path clip-path="url(#clip020)" d="M240.362 458.047 Q236.751 458.047 234.922 461.612 Q233.117 465.153 233.117 472.283 Q233.117 479.389 234.922 482.954 Q236.751 486.496 240.362 486.496 Q243.996 486.496 245.802 482.954 Q247.63 479.389 247.63 472.283 Q247.63 465.153 245.802 461.612 Q243.996 458.047 240.362 458.047 M240.362 454.343 Q246.172 454.343 249.228 458.95 Q252.306 463.533 252.306 472.283 Q252.306 481.01 249.228 485.616 Q246.172 490.199 240.362 490.199 Q234.552 490.199 231.473 485.616 Q228.418 481.01 228.418 472.283 Q228.418 463.533 231.473 458.95 Q234.552 454.343 240.362 454.343 Z" fill="#000000" fill-rule="evenodd" fill-opacity="1"></path><path clip-path="url(#clip020)" d="M270.524 458.047 Q266.913 458.047 265.084 461.612 Q263.278 465.153 263.278 472.283 Q263.278 479.389 265.084 482.954 Q266.913 486.496 270.524 486.496 Q274.158 486.496 275.964 482.954 Q277.792 479.389 277.792 472.283 Q277.792 465.153 275.964 461.612 Q274.158 458.047 270.524 458.047 M270.524 454.343 Q276.334 454.343 279.389 458.95 Q282.468 463.533 282.468 472.283 Q282.468 481.01 279.389 485.616 Q276.334 490.199 270.524 490.199 Q264.714 490.199 261.635 485.616 Q258.579 481.01 258.579 472.283 Q258.579 463.533 261.635 458.95 Q264.714 454.343 270.524 454.343 Z" fill="#000000" fill-rule="evenodd" fill-opacity="1"></path><path clip-path="url(#clip020)" d="M318.857 464.065 L308.278 474.69 L318.857 485.269 L316.102 488.07 L305.477 477.445 L294.852 488.07 L292.121 485.269 L302.676 474.69 L292.121 464.065 L294.852 461.264 L305.477 471.889 L316.102 461.264 L318.857 464.065 Z" fill="#000000" fill-rule="evenodd" fill-opacity="1"></path><path clip-path="url(#clip020)" d="M331.218 485.593 L338.857 485.593 L338.857 459.227 L330.547 460.894 L330.547 456.635 L338.81 454.968 L343.486 454.968 L343.486 485.593 L351.125 485.593 L351.125 489.528 L331.218 489.528 L331.218 485.593 Z" fill="#000000" fill-rule="evenodd" fill-opacity="1"></path><path clip-path="url(#clip020)" d="M370.57 458.047 Q366.958 458.047 365.13 461.612 Q363.324 465.153 363.324 472.283 Q363.324 479.389 365.13 482.954 Q366.958 486.496 370.57 486.496 Q374.204 486.496 376.009 482.954 Q377.838 479.389 377.838 472.283 Q377.838 465.153 376.009 461.612 Q374.204 458.047 370.57 458.047 M370.57 454.343 Q376.38 454.343 379.435 458.95 Q382.514 463.533 382.514 472.283 Q382.514 481.01 379.435 485.616 Q376.38 490.199 370.57 490.199 Q364.759 490.199 361.681 485.616 Q358.625 481.01 358.625 472.283 Q358.625 463.533 361.681 458.95 Q364.759 454.343 370.57 454.343 Z" fill="#000000" fill-rule="evenodd" fill-opacity="1"></path><path clip-path="url(#clip020)" d="M382.514 448.445 L406.625 448.445 L406.625 451.642 L382.514 451.642 L382.514 448.445 Z" fill="#000000" fill-rule="evenodd" fill-opacity="1"></path><path clip-path="url(#clip020)" d="M414.863 434.038 L429.778 434.038 L429.778 437.235 L418.343 437.235 L418.343 444.119 Q419.17 443.837 419.998 443.705 Q420.825 443.555 421.653 443.555 Q426.355 443.555 429.101 446.131 Q431.847 448.708 431.847 453.109 Q431.847 457.642 429.026 460.162 Q426.204 462.663 421.07 462.663 Q419.302 462.663 417.459 462.362 Q415.634 462.061 413.678 461.46 L413.678 457.642 Q415.371 458.563 417.177 459.015 Q418.982 459.466 420.995 459.466 Q424.248 459.466 426.148 457.754 Q428.048 456.043 428.048 453.109 Q428.048 450.175 426.148 448.463 Q424.248 446.752 420.995 446.752 Q419.471 446.752 417.948 447.09 Q416.443 447.429 414.863 448.144 L414.863 434.038 Z" fill="#000000" fill-rule="evenodd" fill-opacity="1"></path><path clip-path="url(#clip020)" d="M155.779 312.522 L163.418 312.522 L163.418 286.157 L155.108 287.823 L155.108 283.564 L163.372 281.897 L168.047 281.897 L168.047 312.522 L175.686 312.522 L175.686 316.457 L155.779 316.457 L155.779 312.522 Z" fill="#000000" fill-rule="evenodd" fill-opacity="1"></path><path clip-path="url(#clip020)" d="M185.131 310.578 L190.015 310.578 L190.015 316.457 L185.131 316.457 L185.131 310.578 Z" fill="#000000" fill-rule="evenodd" fill-opacity="1"></path><path clip-path="url(#clip020)" d="M204.228 312.522 L220.547 312.522 L220.547 316.457 L198.603 316.457 L198.603 312.522 Q201.265 309.768 205.848 305.138 Q210.455 300.485 211.635 299.143 Q213.881 296.62 214.76 294.884 Q215.663 293.124 215.663 291.434 Q215.663 288.68 213.719 286.944 Q211.797 285.208 208.695 285.208 Q206.496 285.208 204.043 285.972 Q201.612 286.735 198.834 288.286 L198.834 283.564 Q201.658 282.43 204.112 281.851 Q206.566 281.272 208.603 281.272 Q213.973 281.272 217.168 283.958 Q220.362 286.643 220.362 291.134 Q220.362 293.263 219.552 295.184 Q218.765 297.083 216.658 299.675 Q216.08 300.346 212.978 303.564 Q209.876 306.758 204.228 312.522 Z" fill="#000000" fill-rule="evenodd" fill-opacity="1"></path><path clip-path="url(#clip020)" d="M230.408 281.897 L248.765 281.897 L248.765 285.833 L234.691 285.833 L234.691 294.305 Q235.709 293.958 236.728 293.796 Q237.746 293.61 238.765 293.61 Q244.552 293.61 247.931 296.782 Q251.311 299.953 251.311 305.37 Q251.311 310.948 247.839 314.05 Q244.367 317.129 238.047 317.129 Q235.871 317.129 233.603 316.758 Q231.357 316.388 228.95 315.647 L228.95 310.948 Q231.033 312.082 233.255 312.638 Q235.478 313.194 237.955 313.194 Q241.959 313.194 244.297 311.087 Q246.635 308.981 246.635 305.37 Q246.635 301.758 244.297 299.652 Q241.959 297.546 237.955 297.546 Q236.08 297.546 234.205 297.962 Q232.353 298.379 230.408 299.258 L230.408 281.897 Z" fill="#000000" fill-rule="evenodd" fill-opacity="1"></path><path clip-path="url(#clip020)" d="M270.524 284.976 Q266.913 284.976 265.084 288.541 Q263.278 292.083 263.278 299.212 Q263.278 306.319 265.084 309.883 Q266.913 313.425 270.524 313.425 Q274.158 313.425 275.964 309.883 Q277.792 306.319 277.792 299.212 Q277.792 292.083 275.964 288.541 Q274.158 284.976 270.524 284.976 M270.524 281.272 Q276.334 281.272 279.389 285.879 Q282.468 290.462 282.468 299.212 Q282.468 307.939 279.389 312.545 Q276.334 317.129 270.524 317.129 Q264.714 317.129 261.635 312.545 Q258.579 307.939 258.579 299.212 Q258.579 290.462 261.635 285.879 Q264.714 281.272 270.524 281.272 Z" fill="#000000" fill-rule="evenodd" fill-opacity="1"></path><path clip-path="url(#clip020)" d="M318.857 290.995 L308.278 301.62 L318.857 312.198 L316.102 314.999 L305.477 304.374 L294.852 314.999 L292.121 312.198 L302.676 301.62 L292.121 290.995 L294.852 288.194 L305.477 298.819 L316.102 288.194 L318.857 290.995 Z" fill="#000000" fill-rule="evenodd" fill-opacity="1"></path><path clip-path="url(#clip020)" d="M331.218 312.522 L338.857 312.522 L338.857 286.157 L330.547 287.823 L330.547 283.564 L338.81 281.897 L343.486 281.897 L343.486 312.522 L351.125 312.522 L351.125 316.457 L331.218 316.457 L331.218 312.522 Z" fill="#000000" fill-rule="evenodd" fill-opacity="1"></path><path clip-path="url(#clip020)" d="M370.57 284.976 Q366.958 284.976 365.13 288.541 Q363.324 292.083 363.324 299.212 Q363.324 306.319 365.13 309.883 Q366.958 313.425 370.57 313.425 Q374.204 313.425 376.009 309.883 Q377.838 306.319 377.838 299.212 Q377.838 292.083 376.009 288.541 Q374.204 284.976 370.57 284.976 M370.57 281.272 Q376.38 281.272 379.435 285.879 Q382.514 290.462 382.514 299.212 Q382.514 307.939 379.435 312.545 Q376.38 317.129 370.57 317.129 Q364.759 317.129 361.681 312.545 Q358.625 307.939 358.625 299.212 Q358.625 290.462 361.681 285.879 Q364.759 281.272 370.57 281.272 Z" fill="#000000" fill-rule="evenodd" fill-opacity="1"></path><path clip-path="url(#clip020)" d="M382.514 275.374 L406.625 275.374 L406.625 278.571 L382.514 278.571 L382.514 275.374 Z" fill="#000000" fill-rule="evenodd" fill-opacity="1"></path><path clip-path="url(#clip020)" d="M414.863 260.967 L429.778 260.967 L429.778 264.164 L418.343 264.164 L418.343 271.048 Q419.17 270.766 419.998 270.634 Q420.825 270.484 421.653 270.484 Q426.355 270.484 429.101 273.06 Q431.847 275.637 431.847 280.038 Q431.847 284.571 429.026 287.091 Q426.204 289.592 421.07 289.592 Q419.302 289.592 417.459 289.292 Q415.634 288.991 413.678 288.389 L413.678 284.571 Q415.371 285.492 417.177 285.944 Q418.982 286.395 420.995 286.395 Q424.248 286.395 426.148 284.684 Q428.048 282.972 428.048 280.038 Q428.048 277.104 426.148 275.393 Q424.248 273.681 420.995 273.681 Q419.471 273.681 417.948 274.02 Q416.443 274.358 414.863 275.073 L414.863 260.967 Z" fill="#000000" fill-rule="evenodd" fill-opacity="1"></path><path clip-path="url(#clip020)" d="M35.1993 879.73 Q31.2526 877.534 29.3747 874.478 Q27.4968 871.423 27.4968 867.285 Q27.4968 861.715 31.4117 858.691 Q35.2948 855.668 42.4881 855.668 L64.0042 855.668 L64.0042 861.556 L42.679 861.556 Q37.5546 861.556 35.072 863.37 Q32.5894 865.184 32.5894 868.908 Q32.5894 873.46 35.6131 876.102 Q38.6368 878.743 43.8567 878.743 L64.0042 878.743 L64.0042 884.632 L42.679 884.632 Q37.5228 884.632 35.072 886.446 Q32.5894 888.26 32.5894 892.048 Q32.5894 896.536 35.6449 899.177 Q38.6686 901.819 43.8567 901.819 L64.0042 901.819 L64.0042 907.707 L28.3562 907.707 L28.3562 901.819 L33.8944 901.819 Q30.616 899.814 29.0564 897.013 Q27.4968 894.212 27.4968 890.361 Q27.4968 886.478 29.4702 883.772 Q31.4436 881.035 35.1993 879.73 Z" fill="#000000" fill-rule="evenodd" fill-opacity="1"></path><path clip-path="url(#clip020)" d="M39.1142 841.599 L39.1142 828.104 L42.7427 828.104 L42.7427 847.138 L39.2416 847.138 Q38.2549 846.055 36.4725 844.05 Q26.7648 833.101 23.7729 833.101 Q21.6722 833.101 20.3991 834.756 Q19.0941 836.411 19.0941 839.117 Q19.0941 840.772 19.667 842.713 Q20.2081 844.655 21.3221 846.947 L17.4072 846.947 Q16.516 844.496 16.0704 842.395 Q15.6248 840.263 15.6248 838.448 Q15.6248 833.833 17.7255 831.064 Q19.8262 828.295 23.2636 828.295 Q27.6878 828.295 36.7271 838.83 Q38.2549 840.613 39.1142 841.599 Z" fill="#000000" fill-rule="evenodd" fill-opacity="1"></path><path clip-path="url(#clip020)" d="M16.4842 807.447 L16.4842 802.037 L70.0516 818.587 L70.0516 823.998 L16.4842 807.447 Z" fill="#000000" fill-rule="evenodd" fill-opacity="1"></path><path clip-path="url(#clip020)" d="M16.4842 795.639 L16.4842 786.059 L48.8219 773.932 L16.4842 761.742 L16.4842 752.161 L64.0042 752.161 L64.0042 758.432 L22.277 758.432 L54.8694 770.686 L54.8694 777.147 L22.277 789.401 L64.0042 789.401 L64.0042 795.639 L16.4842 795.639 Z" fill="#000000" fill-rule="evenodd" fill-opacity="1"></path><path clip-path="url(#clip020)" d="M74.8259 712.567 L79.3773 712.567 L79.3773 746.432 L74.8259 746.432 L74.8259 712.567 Z" fill="#000000" fill-rule="evenodd" fill-opacity="1"></path><path clip-path="url(#clip020)" d="M16.4842 706.806 L16.4842 700.376 L64.0042 700.376 L64.0042 706.806 L16.4842 706.806 Z" fill="#000000" fill-rule="evenodd" fill-opacity="1"></path><path clip-path="url(#clip020)" d="M41.7242 665.047 Q42.4244 662.978 44.7161 661.036 Q47.0077 659.063 51.0181 657.089 L64.0042 650.565 L64.0042 657.471 L51.8138 663.551 Q47.0395 665.906 45.48 668.134 Q43.9204 670.33 43.9204 674.15 L43.9204 681.152 L64.0042 681.152 L64.0042 687.581 L16.4842 687.581 L16.4842 673.067 Q16.4842 664.919 19.8898 660.909 Q23.2955 656.899 30.1704 656.899 Q34.6582 656.899 37.6183 658.999 Q40.5784 661.068 41.7242 665.047 M21.7677 681.152 L38.6368 681.152 L38.6368 673.067 Q38.6368 668.42 36.5043 666.065 Q34.34 663.678 30.1704 663.678 Q26.0009 663.678 23.9002 666.065 Q21.7677 668.42 21.7677 673.067 L21.7677 681.152 Z" fill="#000000" fill-rule="evenodd" fill-opacity="1"></path><path clip-path="url(#clip020)" d="M39.1142 640.157 L39.1142 626.661 L42.7427 626.661 L42.7427 645.695 L39.2416 645.695 Q38.2549 644.613 36.4725 642.608 Q26.7648 631.658 23.7729 631.658 Q21.6722 631.658 20.3991 633.314 Q19.0941 634.969 19.0941 637.674 Q19.0941 639.329 19.667 641.271 Q20.2081 643.212 21.3221 645.504 L17.4072 645.504 Q16.516 643.053 16.0704 640.952 Q15.6248 638.82 15.6248 637.006 Q15.6248 632.391 17.7255 629.621 Q19.8262 626.852 23.2636 626.852 Q27.6878 626.852 36.7271 637.388 Q38.2549 639.17 39.1142 640.157 Z" fill="#000000" fill-rule="evenodd" fill-opacity="1"></path><path clip-path="url(#clip020)" d="M1261.35 9.54393 L1268.8 9.54393 L1268.8 72.576 L1261.35 72.576 L1261.35 9.54393 Z" fill="#000000" fill-rule="evenodd" fill-opacity="1"></path><path clip-path="url(#clip020)" d="M1287.44 40.8979 L1304.61 40.8979 L1304.61 45.516 L1280.39 45.516 L1280.39 41.06 Q1281.77 39.8042 1284.32 37.5357 Q1298.25 25.1804 1298.25 21.3726 Q1298.25 18.699 1296.15 17.0786 Q1294.04 15.4177 1290.6 15.4177 Q1288.49 15.4177 1286.02 16.1469 Q1283.55 16.8356 1280.63 18.2534 L1280.63 13.2708 Q1283.75 12.1365 1286.42 11.5694 Q1289.14 11.0023 1291.45 11.0023 Q1297.32 11.0023 1300.85 13.6759 Q1304.37 16.3494 1304.37 20.7244 Q1304.37 26.3552 1290.96 37.8598 Q1288.69 39.8042 1287.44 40.8979 Z" fill="#000000" fill-rule="evenodd" fill-opacity="1"></path><path clip-path="url(#clip020)" d="M1318.63 34.9026 L1370.56 34.9026 L1370.56 41.7081 L1318.63 41.7081 L1318.63 34.9026 M1318.63 51.4303 L1370.56 51.4303 L1370.56 58.3168 L1318.63 58.3168 L1318.63 51.4303 Z" fill="#000000" fill-rule="evenodd" fill-opacity="1"></path><path clip-path="url(#clip020)" d="M1389.64 65.6895 L1403.01 65.6895 L1403.01 19.5497 L1388.47 22.4663 L1388.47 15.0127 L1402.93 12.096 L1411.11 12.096 L1411.11 65.6895 L1424.48 65.6895 L1424.48 72.576 L1389.64 72.576 L1389.64 65.6895 Z" fill="#000000" fill-rule="evenodd" fill-opacity="1"></path><path clip-path="url(#clip020)" d="M1478.76 48.0275 L1478.76 51.6733 L1444.49 51.6733 Q1444.98 59.3701 1449.11 63.421 Q1453.28 67.4314 1460.69 67.4314 Q1464.99 67.4314 1469 66.3781 Q1473.05 65.3249 1477.02 63.2184 L1477.02 70.267 Q1473.01 71.9684 1468.8 72.8596 Q1464.58 73.7508 1460.25 73.7508 Q1449.39 73.7508 1443.03 67.4314 Q1436.71 61.1119 1436.71 50.3365 Q1436.71 39.1965 1442.71 32.6746 Q1448.74 26.1121 1458.95 26.1121 Q1468.11 26.1121 1473.41 32.0264 Q1478.76 37.9003 1478.76 48.0275 M1471.31 45.84 Q1471.23 39.7232 1467.86 36.0774 Q1464.54 32.4315 1459.03 32.4315 Q1452.8 32.4315 1449.03 35.9558 Q1445.3 39.4801 1444.73 45.8805 L1471.31 45.84 Z" fill="#000000" fill-rule="evenodd" fill-opacity="1"></path><path clip-path="url(#clip020)" d="M1487.23 46.5287 L1509.06 46.5287 L1509.06 53.1722 L1487.23 53.1722 L1487.23 46.5287 Z" fill="#000000" fill-rule="evenodd" fill-opacity="1"></path><path clip-path="url(#clip020)" d="M1546.78 39.9662 Q1552.65 41.222 1555.93 45.1919 Q1559.25 49.1618 1559.25 54.9951 Q1559.25 63.9476 1553.1 68.8492 Q1546.94 73.7508 1535.6 73.7508 Q1531.79 73.7508 1527.74 72.9811 Q1523.73 72.2519 1519.43 70.7531 L1519.43 62.8538 Q1522.84 64.8388 1526.89 65.8515 Q1530.94 66.8642 1535.35 66.8642 Q1543.05 66.8642 1547.06 63.826 Q1551.11 60.7879 1551.11 54.9951 Q1551.11 49.6479 1547.34 46.6502 Q1543.62 43.612 1536.93 43.612 L1529.88 43.612 L1529.88 36.8875 L1537.26 36.8875 Q1543.29 36.8875 1546.49 34.4975 Q1549.69 32.067 1549.69 27.5299 Q1549.69 22.8714 1546.37 20.4004 Q1543.09 17.8888 1536.93 17.8888 Q1533.57 17.8888 1529.72 18.618 Q1525.87 19.3471 1521.26 20.8865 L1521.26 13.5948 Q1525.91 12.2985 1529.97 11.6504 Q1534.06 11.0023 1537.66 11.0023 Q1546.98 11.0023 1552.41 15.2557 Q1557.84 19.4686 1557.84 26.6793 Q1557.84 31.7024 1554.96 35.1862 Q1552.08 38.6294 1546.78 39.9662 Z" fill="#000000" fill-rule="evenodd" fill-opacity="1"></path><polyline clip-path="url(#clip022)" style="stroke:#009af9; stroke-linecap:round; stroke-linejoin:round; stroke-width:4; stroke-opacity:1; fill:none" points="521.193,1374.46 718.773,545.009 916.352,287.43 1113.93,206.914 1311.51,169.567 1509.09,169.567 1706.67,169.567 1904.25,169.567 2101.83,169.567 2299.41,169.567 "></polyline>
<polyline clip-path="url(#clip022)" style="stroke:#e26f46; stroke-linecap:round; stroke-linejoin:round; stroke-width:4; stroke-opacity:1; fill:none" points="521.193,159.956 718.773,159.924 916.352,159.913 1113.93,159.91 1311.51,159.909 1509.09,159.909 1706.67,159.909 1904.25,159.909 2101.83,159.909 2299.41,159.909 "></polyline>
<path clip-path="url(#clip020)" d="M1873.8 321.906 L2289.93 321.906 L2289.93 166.386 L1873.8 166.386  Z" fill="#ffffff" fill-rule="evenodd" fill-opacity="1"></path>
<polyline clip-path="url(#clip020)" style="stroke:#000000; stroke-linecap:round; stroke-linejoin:round; stroke-width:4; stroke-opacity:1; fill:none" points="1873.8,321.906 2289.93,321.906 2289.93,166.386 1873.8,166.386 1873.8,321.906 "></polyline>
<polyline clip-path="url(#clip020)" style="stroke:#009af9; stroke-linecap:round; stroke-linejoin:round; stroke-width:4; stroke-opacity:1; fill:none" points="1894.74,218.226 2020.4,218.226 "></polyline>
<path clip-path="url(#clip020)" d="M2063.06 219.858 L2063.06 235.506 L2058.8 235.506 L2058.8 219.997 Q2058.8 216.317 2057.36 214.488 Q2055.93 212.659 2053.06 212.659 Q2049.61 212.659 2047.62 214.858 Q2045.63 217.057 2045.63 220.854 L2045.63 235.506 L2041.34 235.506 L2041.34 209.58 L2045.63 209.58 L2045.63 213.608 Q2047.15 211.27 2049.21 210.113 Q2051.3 208.955 2054.01 208.955 Q2058.47 208.955 2060.77 211.733 Q2063.06 214.488 2063.06 219.858 Z" fill="#000000" fill-rule="evenodd" fill-opacity="1"></path><path clip-path="url(#clip020)" d="M2071.11 225.275 L2071.11 209.58 L2075.37 209.58 L2075.37 225.113 Q2075.37 228.793 2076.81 230.645 Q2078.24 232.474 2081.11 232.474 Q2084.56 232.474 2086.55 230.275 Q2088.57 228.076 2088.57 224.279 L2088.57 209.58 L2092.83 209.58 L2092.83 235.506 L2088.57 235.506 L2088.57 231.525 Q2087.02 233.886 2084.96 235.043 Q2082.92 236.178 2080.21 236.178 Q2075.74 236.178 2073.43 233.4 Q2071.11 230.622 2071.11 225.275 M2081.83 208.955 L2081.83 208.955 Z" fill="#000000" fill-rule="evenodd" fill-opacity="1"></path><path clip-path="url(#clip020)" d="M2121.78 214.557 Q2123.38 211.687 2125.6 210.321 Q2127.83 208.955 2130.83 208.955 Q2134.89 208.955 2137.08 211.803 Q2139.28 214.627 2139.28 219.858 L2139.28 235.506 L2135 235.506 L2135 219.997 Q2135 216.27 2133.68 214.465 Q2132.36 212.659 2129.65 212.659 Q2126.34 212.659 2124.42 214.858 Q2122.5 217.057 2122.5 220.854 L2122.5 235.506 L2118.22 235.506 L2118.22 219.997 Q2118.22 216.247 2116.9 214.465 Q2115.58 212.659 2112.83 212.659 Q2109.56 212.659 2107.64 214.881 Q2105.72 217.08 2105.72 220.854 L2105.72 235.506 L2101.44 235.506 L2101.44 209.58 L2105.72 209.58 L2105.72 213.608 Q2107.18 211.224 2109.21 210.09 Q2111.25 208.955 2114.05 208.955 Q2116.88 208.955 2118.84 210.391 Q2120.83 211.826 2121.78 214.557 Z" fill="#000000" fill-rule="evenodd" fill-opacity="1"></path><path clip-path="url(#clip020)" d="M2169.95 221.479 L2169.95 223.562 L2150.37 223.562 Q2150.65 227.96 2153.01 230.275 Q2155.39 232.566 2159.63 232.566 Q2162.08 232.566 2164.38 231.965 Q2166.69 231.363 2168.96 230.159 L2168.96 234.187 Q2166.67 235.159 2164.26 235.668 Q2161.85 236.178 2159.38 236.178 Q2153.17 236.178 2149.54 232.566 Q2145.93 228.955 2145.93 222.798 Q2145.93 216.432 2149.35 212.705 Q2152.8 208.955 2158.64 208.955 Q2163.87 208.955 2166.9 212.335 Q2169.95 215.692 2169.95 221.479 M2165.7 220.229 Q2165.65 216.733 2163.73 214.65 Q2161.83 212.567 2158.68 212.567 Q2155.12 212.567 2152.96 214.58 Q2150.83 216.594 2150.51 220.252 L2165.7 220.229 Z" fill="#000000" fill-rule="evenodd" fill-opacity="1"></path><path clip-path="url(#clip020)" d="M2191.97 213.562 Q2191.25 213.145 2190.39 212.96 Q2189.56 212.752 2188.54 212.752 Q2184.93 212.752 2182.99 215.113 Q2181.07 217.451 2181.07 221.849 L2181.07 235.506 L2176.78 235.506 L2176.78 209.58 L2181.07 209.58 L2181.07 213.608 Q2182.41 211.247 2184.56 210.113 Q2186.71 208.955 2189.79 208.955 Q2190.23 208.955 2190.76 209.025 Q2191.3 209.071 2191.95 209.187 L2191.97 213.562 Z" fill="#000000" fill-rule="evenodd" fill-opacity="1"></path><path clip-path="url(#clip020)" d="M2196.44 209.58 L2200.7 209.58 L2200.7 235.506 L2196.44 235.506 L2196.44 209.58 M2196.44 199.488 L2200.7 199.488 L2200.7 204.881 L2196.44 204.881 L2196.44 199.488 Z" fill="#000000" fill-rule="evenodd" fill-opacity="1"></path><path clip-path="url(#clip020)" d="M2228.26 210.576 L2228.26 214.557 Q2226.46 213.562 2224.63 213.076 Q2222.83 212.567 2220.97 212.567 Q2216.83 212.567 2214.54 215.205 Q2212.25 217.821 2212.25 222.567 Q2212.25 227.312 2214.54 229.951 Q2216.83 232.566 2220.97 232.566 Q2222.83 232.566 2224.63 232.08 Q2226.46 231.571 2228.26 230.576 L2228.26 234.511 Q2226.48 235.344 2224.56 235.761 Q2222.66 236.178 2220.51 236.178 Q2214.65 236.178 2211.2 232.497 Q2207.76 228.816 2207.76 222.567 Q2207.76 216.224 2211.23 212.59 Q2214.72 208.955 2220.79 208.955 Q2222.76 208.955 2224.63 209.372 Q2226.51 209.766 2228.26 210.576 Z" fill="#000000" fill-rule="evenodd" fill-opacity="1"></path><path clip-path="url(#clip020)" d="M2247.45 222.474 Q2242.29 222.474 2240.3 223.654 Q2238.31 224.835 2238.31 227.682 Q2238.31 229.951 2239.79 231.293 Q2241.3 232.613 2243.87 232.613 Q2247.41 232.613 2249.54 230.113 Q2251.69 227.59 2251.69 223.423 L2251.69 222.474 L2247.45 222.474 M2255.95 220.715 L2255.95 235.506 L2251.69 235.506 L2251.69 231.571 Q2250.23 233.932 2248.06 235.066 Q2245.88 236.178 2242.73 236.178 Q2238.75 236.178 2236.39 233.955 Q2234.05 231.71 2234.05 227.96 Q2234.05 223.585 2236.97 221.363 Q2239.91 219.141 2245.72 219.141 L2251.69 219.141 L2251.69 218.724 Q2251.69 215.784 2249.75 214.187 Q2247.82 212.567 2244.33 212.567 Q2242.11 212.567 2240 213.099 Q2237.89 213.631 2235.95 214.696 L2235.95 210.761 Q2238.29 209.858 2240.49 209.418 Q2242.69 208.955 2244.77 208.955 Q2250.39 208.955 2253.17 211.872 Q2255.95 214.789 2255.95 220.715 Z" fill="#000000" fill-rule="evenodd" fill-opacity="1"></path><path clip-path="url(#clip020)" d="M2264.72 199.488 L2268.98 199.488 L2268.98 235.506 L2264.72 235.506 L2264.72 199.488 Z" fill="#000000" fill-rule="evenodd" fill-opacity="1"></path><polyline clip-path="url(#clip020)" style="stroke:#e26f46; stroke-linecap:round; stroke-linejoin:round; stroke-width:4; stroke-opacity:1; fill:none" points="1894.74,270.066 2020.4,270.066 "></polyline>
<path clip-path="url(#clip020)" d="M2054.75 274.314 Q2049.59 274.314 2047.59 275.494 Q2045.6 276.675 2045.6 279.522 Q2045.6 281.791 2047.09 283.133 Q2048.59 284.453 2051.16 284.453 Q2054.7 284.453 2056.83 281.953 Q2058.98 279.43 2058.98 275.263 L2058.98 274.314 L2054.75 274.314 M2063.24 272.555 L2063.24 287.346 L2058.98 287.346 L2058.98 283.411 Q2057.52 285.772 2055.35 286.906 Q2053.17 288.018 2050.03 288.018 Q2046.04 288.018 2043.68 285.795 Q2041.34 283.55 2041.34 279.8 Q2041.34 275.425 2044.26 273.203 Q2047.2 270.981 2053.01 270.981 L2058.98 270.981 L2058.98 270.564 Q2058.98 267.624 2057.04 266.027 Q2055.12 264.407 2051.62 264.407 Q2049.4 264.407 2047.29 264.939 Q2045.19 265.471 2043.24 266.536 L2043.24 262.601 Q2045.58 261.698 2047.78 261.258 Q2049.98 260.795 2052.06 260.795 Q2057.69 260.795 2060.46 263.712 Q2063.24 266.629 2063.24 272.555 Z" fill="#000000" fill-rule="evenodd" fill-opacity="1"></path><path clip-path="url(#clip020)" d="M2093.57 271.698 L2093.57 287.346 L2089.31 287.346 L2089.31 271.837 Q2089.31 268.157 2087.87 266.328 Q2086.44 264.499 2083.57 264.499 Q2080.12 264.499 2078.13 266.698 Q2076.14 268.897 2076.14 272.694 L2076.14 287.346 L2071.85 287.346 L2071.85 261.42 L2076.14 261.42 L2076.14 265.448 Q2077.66 263.11 2079.72 261.953 Q2081.81 260.795 2084.52 260.795 Q2088.98 260.795 2091.27 263.573 Q2093.57 266.328 2093.57 271.698 Z" fill="#000000" fill-rule="evenodd" fill-opacity="1"></path><path clip-path="url(#clip020)" d="M2113.84 274.314 Q2108.68 274.314 2106.69 275.494 Q2104.7 276.675 2104.7 279.522 Q2104.7 281.791 2106.18 283.133 Q2107.69 284.453 2110.26 284.453 Q2113.8 284.453 2115.93 281.953 Q2118.08 279.43 2118.08 275.263 L2118.08 274.314 L2113.84 274.314 M2122.34 272.555 L2122.34 287.346 L2118.08 287.346 L2118.08 283.411 Q2116.62 285.772 2114.45 286.906 Q2112.27 288.018 2109.12 288.018 Q2105.14 288.018 2102.78 285.795 Q2100.44 283.55 2100.44 279.8 Q2100.44 275.425 2103.36 273.203 Q2106.3 270.981 2112.11 270.981 L2118.08 270.981 L2118.08 270.564 Q2118.08 267.624 2116.14 266.027 Q2114.21 264.407 2110.72 264.407 Q2108.5 264.407 2106.39 264.939 Q2104.28 265.471 2102.34 266.536 L2102.34 262.601 Q2104.68 261.698 2106.88 261.258 Q2109.08 260.795 2111.16 260.795 Q2116.78 260.795 2119.56 263.712 Q2122.34 266.629 2122.34 272.555 Z" fill="#000000" fill-rule="evenodd" fill-opacity="1"></path><path clip-path="url(#clip020)" d="M2131.11 251.328 L2135.37 251.328 L2135.37 287.346 L2131.11 287.346 L2131.11 251.328 Z" fill="#000000" fill-rule="evenodd" fill-opacity="1"></path><path clip-path="url(#clip020)" d="M2155.07 289.754 Q2153.27 294.383 2151.55 295.795 Q2149.84 297.207 2146.97 297.207 L2143.57 297.207 L2143.57 293.643 L2146.07 293.643 Q2147.83 293.643 2148.8 292.809 Q2149.77 291.976 2150.95 288.874 L2151.71 286.93 L2141.23 261.42 L2145.74 261.42 L2153.84 281.698 L2161.95 261.42 L2166.46 261.42 L2155.07 289.754 Z" fill="#000000" fill-rule="evenodd" fill-opacity="1"></path><path clip-path="url(#clip020)" d="M2176.55 254.059 L2176.55 261.42 L2185.33 261.42 L2185.33 264.731 L2176.55 264.731 L2176.55 278.805 Q2176.55 281.976 2177.41 282.879 Q2178.29 283.781 2180.95 283.781 L2185.33 283.781 L2185.33 287.346 L2180.95 287.346 Q2176.02 287.346 2174.14 285.518 Q2172.27 283.666 2172.27 278.805 L2172.27 264.731 L2169.14 264.731 L2169.14 261.42 L2172.27 261.42 L2172.27 254.059 L2176.55 254.059 Z" fill="#000000" fill-rule="evenodd" fill-opacity="1"></path><path clip-path="url(#clip020)" d="M2190.93 261.42 L2195.19 261.42 L2195.19 287.346 L2190.93 287.346 L2190.93 261.42 M2190.93 251.328 L2195.19 251.328 L2195.19 256.721 L2190.93 256.721 L2190.93 251.328 Z" fill="#000000" fill-rule="evenodd" fill-opacity="1"></path><path clip-path="url(#clip020)" d="M2222.76 262.416 L2222.76 266.397 Q2220.95 265.402 2219.12 264.916 Q2217.32 264.407 2215.46 264.407 Q2211.32 264.407 2209.03 267.045 Q2206.74 269.661 2206.74 274.407 Q2206.74 279.152 2209.03 281.791 Q2211.32 284.406 2215.46 284.406 Q2217.32 284.406 2219.12 283.92 Q2220.95 283.411 2222.76 282.416 L2222.76 286.351 Q2220.97 287.184 2219.05 287.601 Q2217.15 288.018 2215 288.018 Q2209.14 288.018 2205.7 284.337 Q2202.25 280.656 2202.25 274.407 Q2202.25 268.064 2205.72 264.43 Q2209.21 260.795 2215.28 260.795 Q2217.25 260.795 2219.12 261.212 Q2221 261.606 2222.76 262.416 Z" fill="#000000" fill-rule="evenodd" fill-opacity="1"></path><path clip-path="url(#clip020)" d="M2241.95 274.314 Q2236.78 274.314 2234.79 275.494 Q2232.8 276.675 2232.8 279.522 Q2232.8 281.791 2234.28 283.133 Q2235.79 284.453 2238.36 284.453 Q2241.9 284.453 2244.03 281.953 Q2246.18 279.43 2246.18 275.263 L2246.18 274.314 L2241.95 274.314 M2250.44 272.555 L2250.44 287.346 L2246.18 287.346 L2246.18 283.411 Q2244.72 285.772 2242.55 286.906 Q2240.37 288.018 2237.22 288.018 Q2233.24 288.018 2230.88 285.795 Q2228.54 283.55 2228.54 279.8 Q2228.54 275.425 2231.46 273.203 Q2234.4 270.981 2240.21 270.981 L2246.18 270.981 L2246.18 270.564 Q2246.18 267.624 2244.24 266.027 Q2242.32 264.407 2238.82 264.407 Q2236.6 264.407 2234.49 264.939 Q2232.39 265.471 2230.44 266.536 L2230.44 262.601 Q2232.78 261.698 2234.98 261.258 Q2237.18 260.795 2239.26 260.795 Q2244.89 260.795 2247.66 263.712 Q2250.44 266.629 2250.44 272.555 Z" fill="#000000" fill-rule="evenodd" fill-opacity="1"></path><path clip-path="url(#clip020)" d="M2259.21 251.328 L2263.47 251.328 L2263.47 287.346 L2259.21 287.346 L2259.21 251.328 Z" fill="#000000" fill-rule="evenodd" fill-opacity="1"></path></svg>