<svg xmlns="http://www.w3.org/2000/svg" xmlns:xlink="http://www.w3.org/1999/xlink" width="600" height="400" viewBox="0 0 2400 1600">
<defs>
  <clipPath id="clip310">
    <rect x="0" y="0" width="2400" height="1600"></rect>
  </clipPath>
</defs>
<path clip-path="url(#clip310)" d="M0 1600 L2400 1600 L2400 0 L0 0  Z" fill="#ffffff" fill-rule="evenodd" fill-opacity="1"></path>
<defs>
  <clipPath id="clip311">
    <rect x="480" y="0" width="1681" height="1600"></rect>
  </clipPath>
</defs>
<defs>
  <clipPath id="clip312">
    <rect x="1435" y="261" width="929" height="1071"></rect>
  </clipPath>
</defs>
<path clip-path="url(#clip310)" d="M357.301 1402.74 L2352.76 1402.74 L2352.76 47.2441 L357.301 47.2441  Z" fill="#ffffff" fill-rule="evenodd" fill-opacity="1"></path>
<defs>
  <clipPath id="clip313">
    <rect x="357" y="47" width="1996" height="1356"></rect>
  </clipPath>
</defs>
<polyline clip-path="url(#clip313)" style="stroke:#000000; stroke-linecap:round; stroke-linejoin:round; stroke-width:2; stroke-opacity:0.1; fill:none" points="357.301,1402.74 357.301,47.2441 "></polyline>
<polyline clip-path="url(#clip313)" style="stroke:#000000; stroke-linecap:round; stroke-linejoin:round; stroke-width:2; stroke-opacity:0.1; fill:none" points="642.366,1402.74 642.366,47.2441 "></polyline>
<polyline clip-path="url(#clip313)" style="stroke:#000000; stroke-linecap:round; stroke-linejoin:round; stroke-width:2; stroke-opacity:0.1; fill:none" points="927.431,1402.74 927.431,47.2441 "></polyline>
<polyline clip-path="url(#clip313)" style="stroke:#000000; stroke-linecap:round; stroke-linejoin:round; stroke-width:2; stroke-opacity:0.1; fill:none" points="1212.5,1402.74 1212.5,47.2441 "></polyline>
<polyline clip-path="url(#clip313)" style="stroke:#000000; stroke-linecap:round; stroke-linejoin:round; stroke-width:2; stroke-opacity:0.1; fill:none" points="1497.56,1402.74 1497.56,47.2441 "></polyline>
<polyline clip-path="url(#clip313)" style="stroke:#000000; stroke-linecap:round; stroke-linejoin:round; stroke-width:2; stroke-opacity:0.1; fill:none" points="1782.63,1402.74 1782.63,47.2441 "></polyline>
<polyline clip-path="url(#clip313)" style="stroke:#000000; stroke-linecap:round; stroke-linejoin:round; stroke-width:2; stroke-opacity:0.1; fill:none" points="2067.69,1402.74 2067.69,47.2441 "></polyline>
<polyline clip-path="url(#clip313)" style="stroke:#000000; stroke-linecap:round; stroke-linejoin:round; stroke-width:2; stroke-opacity:0.1; fill:none" points="2352.76,1402.74 2352.76,47.2441 "></polyline>
<polyline clip-path="url(#clip310)" style="stroke:#000000; stroke-linecap:round; stroke-linejoin:round; stroke-width:4; stroke-opacity:1; fill:none" points="357.301,1402.74 2352.76,1402.74 "></polyline>
<polyline clip-path="url(#clip310)" style="stroke:#000000; stroke-linecap:round; stroke-linejoin:round; stroke-width:4; stroke-opacity:1; fill:none" points="357.301,1402.74 357.301,1383.84 "></polyline>
<polyline clip-path="url(#clip310)" style="stroke:#000000; stroke-linecap:round; stroke-linejoin:round; stroke-width:4; stroke-opacity:1; fill:none" points="642.366,1402.74 642.366,1383.84 "></polyline>
<polyline clip-path="url(#clip310)" style="stroke:#000000; stroke-linecap:round; stroke-linejoin:round; stroke-width:4; stroke-opacity:1; fill:none" points="927.431,1402.74 927.431,1383.84 "></polyline>
<polyline clip-path="url(#clip310)" style="stroke:#000000; stroke-linecap:round; stroke-linejoin:round; stroke-width:4; stroke-opacity:1; fill:none" points="1212.5,1402.74 1212.5,1383.84 "></polyline>
<polyline clip-path="url(#clip310)" style="stroke:#000000; stroke-linecap:round; stroke-linejoin:round; stroke-width:4; stroke-opacity:1; fill:none" points="1497.56,1402.74 1497.56,1383.84 "></polyline>
<polyline clip-path="url(#clip310)" style="stroke:#000000; stroke-linecap:round; stroke-linejoin:round; stroke-width:4; stroke-opacity:1; fill:none" points="1782.63,1402.74 1782.63,1383.84 "></polyline>
<polyline clip-path="url(#clip310)" style="stroke:#000000; stroke-linecap:round; stroke-linejoin:round; stroke-width:4; stroke-opacity:1; fill:none" points="2067.69,1402.74 2067.69,1383.84 "></polyline>
<polyline clip-path="url(#clip310)" style="stroke:#000000; stroke-linecap:round; stroke-linejoin:round; stroke-width:4; stroke-opacity:1; fill:none" points="2352.76,1402.74 2352.76,1383.84 "></polyline>
<path clip-path="url(#clip310)" d="M306.72 1476.87 L314.359 1476.87 L314.359 1450.5 L306.049 1452.17 L306.049 1447.91 L314.313 1446.24 L318.988 1446.24 L318.988 1476.87 L326.627 1476.87 L326.627 1480.8 L306.72 1480.8 L306.72 1476.87 Z" fill="#000000" fill-rule="evenodd" fill-opacity="1"></path><path clip-path="url(#clip310)" d="M346.072 1449.32 Q342.461 1449.32 340.632 1452.89 Q338.826 1456.43 338.826 1463.56 Q338.826 1470.66 340.632 1474.23 Q342.461 1477.77 346.072 1477.77 Q349.706 1477.77 351.511 1474.23 Q353.34 1470.66 353.34 1463.56 Q353.34 1456.43 351.511 1452.89 Q349.706 1449.32 346.072 1449.32 M346.072 1445.62 Q351.882 1445.62 354.937 1450.22 Q358.016 1454.81 358.016 1463.56 Q358.016 1472.28 354.937 1476.89 Q351.882 1481.47 346.072 1481.47 Q340.261 1481.47 337.183 1476.89 Q334.127 1472.28 334.127 1463.56 Q334.127 1454.81 337.183 1450.22 Q340.261 1445.62 346.072 1445.62 Z" fill="#000000" fill-rule="evenodd" fill-opacity="1"></path><path clip-path="url(#clip310)" d="M358.016 1439.72 L382.128 1439.72 L382.128 1442.92 L358.016 1442.92 L358.016 1439.72 Z" fill="#000000" fill-rule="evenodd" fill-opacity="1"></path><path clip-path="url(#clip310)" d="M400.766 1428.62 L391.174 1443.61 L400.766 1443.61 L400.766 1428.62 M399.769 1425.31 L404.546 1425.31 L404.546 1443.61 L408.552 1443.61 L408.552 1446.77 L404.546 1446.77 L404.546 1453.39 L400.766 1453.39 L400.766 1446.77 L388.09 1446.77 L388.09 1443.1 L399.769 1425.31 Z" fill="#000000" fill-rule="evenodd" fill-opacity="1"></path><path clip-path="url(#clip310)" d="M592.246 1476.87 L599.885 1476.87 L599.885 1450.5 L591.575 1452.17 L591.575 1447.91 L599.838 1446.24 L604.514 1446.24 L604.514 1476.87 L612.153 1476.87 L612.153 1480.8 L592.246 1480.8 L592.246 1476.87 Z" fill="#000000" fill-rule="evenodd" fill-opacity="1"></path><path clip-path="url(#clip310)" d="M631.597 1449.32 Q627.986 1449.32 626.158 1452.89 Q624.352 1456.43 624.352 1463.56 Q624.352 1470.66 626.158 1474.23 Q627.986 1477.77 631.597 1477.77 Q635.232 1477.77 637.037 1474.23 Q638.866 1470.66 638.866 1463.56 Q638.866 1456.43 637.037 1452.89 Q635.232 1449.32 631.597 1449.32 M631.597 1445.62 Q637.408 1445.62 640.463 1450.22 Q643.542 1454.81 643.542 1463.56 Q643.542 1472.28 640.463 1476.89 Q637.408 1481.47 631.597 1481.47 Q625.787 1481.47 622.709 1476.89 Q619.653 1472.28 619.653 1463.56 Q619.653 1454.81 622.709 1450.22 Q625.787 1445.62 631.597 1445.62 Z" fill="#000000" fill-rule="evenodd" fill-opacity="1"></path><path clip-path="url(#clip310)" d="M643.542 1439.72 L667.653 1439.72 L667.653 1442.92 L643.542 1442.92 L643.542 1439.72 Z" fill="#000000" fill-rule="evenodd" fill-opacity="1"></path><path clip-path="url(#clip310)" d="M687.364 1438.25 Q690.091 1438.83 691.615 1440.68 Q693.157 1442.52 693.157 1445.23 Q693.157 1449.39 690.298 1451.66 Q687.439 1453.94 682.173 1453.94 Q680.405 1453.94 678.524 1453.58 Q676.662 1453.24 674.669 1452.55 L674.669 1448.88 Q676.249 1449.8 678.129 1450.27 Q680.01 1450.74 682.06 1450.74 Q685.634 1450.74 687.496 1449.33 Q689.376 1447.92 689.376 1445.23 Q689.376 1442.75 687.627 1441.35 Q685.897 1439.94 682.794 1439.94 L679.521 1439.94 L679.521 1436.82 L682.944 1436.82 Q685.746 1436.82 687.232 1435.71 Q688.718 1434.58 688.718 1432.48 Q688.718 1430.31 687.176 1429.17 Q685.652 1428 682.794 1428 Q681.233 1428 679.446 1428.34 Q677.659 1428.68 675.515 1429.39 L675.515 1426.01 Q677.678 1425.41 679.559 1425.1 Q681.458 1424.8 683.132 1424.8 Q687.458 1424.8 689.978 1426.78 Q692.498 1428.73 692.498 1432.08 Q692.498 1434.41 691.163 1436.03 Q689.828 1437.63 687.364 1438.25 Z" fill="#000000" fill-rule="evenodd" fill-opacity="1"></path><path clip-path="url(#clip310)" d="M877.696 1476.87 L885.335 1476.87 L885.335 1450.5 L877.025 1452.17 L877.025 1447.91 L885.289 1446.24 L889.965 1446.24 L889.965 1476.87 L897.604 1476.87 L897.604 1480.8 L877.696 1480.8 L877.696 1476.87 Z" fill="#000000" fill-rule="evenodd" fill-opacity="1"></path><path clip-path="url(#clip310)" d="M917.048 1449.32 Q913.437 1449.32 911.608 1452.89 Q909.803 1456.43 909.803 1463.56 Q909.803 1470.66 911.608 1474.23 Q913.437 1477.77 917.048 1477.77 Q920.682 1477.77 922.488 1474.23 Q924.317 1470.66 924.317 1463.56 Q924.317 1456.43 922.488 1452.89 Q920.682 1449.32 917.048 1449.32 M917.048 1445.62 Q922.858 1445.62 925.914 1450.22 Q928.992 1454.81 928.992 1463.56 Q928.992 1472.28 925.914 1476.89 Q922.858 1481.47 917.048 1481.47 Q911.238 1481.47 908.159 1476.89 Q905.104 1472.28 905.104 1463.56 Q905.104 1454.81 908.159 1450.22 Q911.238 1445.62 917.048 1445.62 Z" fill="#000000" fill-rule="evenodd" fill-opacity="1"></path><path clip-path="url(#clip310)" d="M928.992 1439.72 L953.104 1439.72 L953.104 1442.92 L928.992 1442.92 L928.992 1439.72 Z" fill="#000000" fill-rule="evenodd" fill-opacity="1"></path><path clip-path="url(#clip310)" d="M964.577 1450.19 L977.836 1450.19 L977.836 1453.39 L960.006 1453.39 L960.006 1450.19 Q962.169 1447.96 965.893 1444.19 Q969.636 1440.41 970.595 1439.32 Q972.42 1437.27 973.134 1435.86 Q973.868 1434.43 973.868 1433.06 Q973.868 1430.82 972.288 1429.41 Q970.727 1428 968.207 1428 Q966.42 1428 964.426 1428.62 Q962.451 1429.24 960.195 1430.5 L960.195 1426.67 Q962.489 1425.74 964.483 1425.27 Q966.476 1424.8 968.131 1424.8 Q972.495 1424.8 975.09 1426.99 Q977.686 1429.17 977.686 1432.82 Q977.686 1434.55 977.027 1436.11 Q976.388 1437.65 974.677 1439.76 Q974.206 1440.3 971.686 1442.92 Q969.166 1445.51 964.577 1450.19 Z" fill="#000000" fill-rule="evenodd" fill-opacity="1"></path><path clip-path="url(#clip310)" d="M1162.61 1476.87 L1170.25 1476.87 L1170.25 1450.5 L1161.94 1452.17 L1161.94 1447.91 L1170.2 1446.24 L1174.88 1446.24 L1174.88 1476.87 L1182.52 1476.87 L1182.52 1480.8 L1162.61 1480.8 L1162.61 1476.87 Z" fill="#000000" fill-rule="evenodd" fill-opacity="1"></path><path clip-path="url(#clip310)" d="M1201.96 1449.32 Q1198.35 1449.32 1196.52 1452.89 Q1194.72 1456.43 1194.72 1463.56 Q1194.72 1470.66 1196.52 1474.23 Q1198.35 1477.77 1201.96 1477.77 Q1205.6 1477.77 1207.4 1474.23 Q1209.23 1470.66 1209.23 1463.56 Q1209.23 1456.43 1207.4 1452.89 Q1205.6 1449.32 1201.96 1449.32 M1201.96 1445.62 Q1207.77 1445.62 1210.83 1450.22 Q1213.91 1454.81 1213.91 1463.56 Q1213.91 1472.28 1210.83 1476.89 Q1207.77 1481.47 1201.96 1481.47 Q1196.15 1481.47 1193.07 1476.89 Q1190.02 1472.28 1190.02 1463.56 Q1190.02 1454.81 1193.07 1450.22 Q1196.15 1445.62 1201.96 1445.62 Z" fill="#000000" fill-rule="evenodd" fill-opacity="1"></path><path clip-path="url(#clip310)" d="M1213.91 1439.72 L1238.02 1439.72 L1238.02 1442.92 L1213.91 1442.92 L1213.91 1439.72 Z" fill="#000000" fill-rule="evenodd" fill-opacity="1"></path><path clip-path="url(#clip310)" d="M1246.88 1450.19 L1253.08 1450.19 L1253.08 1428.77 L1246.33 1430.13 L1246.33 1426.67 L1253.05 1425.31 L1256.85 1425.31 L1256.85 1450.19 L1263.05 1450.19 L1263.05 1453.39 L1246.88 1453.39 L1246.88 1450.19 Z" fill="#000000" fill-rule="evenodd" fill-opacity="1"></path><path clip-path="url(#clip310)" d="M1462.54 1476.87 L1470.18 1476.87 L1470.18 1450.5 L1461.87 1452.17 L1461.87 1447.91 L1470.14 1446.24 L1474.81 1446.24 L1474.81 1476.87 L1482.45 1476.87 L1482.45 1480.8 L1462.54 1480.8 L1462.54 1476.87 Z" fill="#000000" fill-rule="evenodd" fill-opacity="1"></path><path clip-path="url(#clip310)" d="M1501.9 1449.32 Q1498.28 1449.32 1496.46 1452.89 Q1494.65 1456.43 1494.65 1463.56 Q1494.65 1470.66 1496.46 1474.23 Q1498.28 1477.77 1501.9 1477.77 Q1505.53 1477.77 1507.34 1474.23 Q1509.16 1470.66 1509.16 1463.56 Q1509.16 1456.43 1507.34 1452.89 Q1505.53 1449.32 1501.9 1449.32 M1501.9 1445.62 Q1507.71 1445.62 1510.76 1450.22 Q1513.84 1454.81 1513.84 1463.56 Q1513.84 1472.28 1510.76 1476.89 Q1507.71 1481.47 1501.9 1481.47 Q1496.09 1481.47 1493.01 1476.89 Q1489.95 1472.28 1489.95 1463.56 Q1489.95 1454.81 1493.01 1450.22 Q1496.09 1445.62 1501.9 1445.62 Z" fill="#000000" fill-rule="evenodd" fill-opacity="1"></path><path clip-path="url(#clip310)" d="M1523.54 1427.81 Q1520.61 1427.81 1519.12 1430.71 Q1517.66 1433.59 1517.66 1439.38 Q1517.66 1445.15 1519.12 1448.05 Q1520.61 1450.93 1523.54 1450.93 Q1526.5 1450.93 1527.96 1448.05 Q1529.45 1445.15 1529.45 1439.38 Q1529.45 1433.59 1527.96 1430.71 Q1526.5 1427.81 1523.54 1427.81 M1523.54 1424.8 Q1528.27 1424.8 1530.75 1428.55 Q1533.25 1432.27 1533.25 1439.38 Q1533.25 1446.47 1530.75 1450.21 Q1528.27 1453.94 1523.54 1453.94 Q1518.82 1453.94 1516.32 1450.21 Q1513.84 1446.47 1513.84 1439.38 Q1513.84 1432.27 1516.32 1428.55 Q1518.82 1424.8 1523.54 1424.8 Z" fill="#000000" fill-rule="evenodd" fill-opacity="1"></path><path clip-path="url(#clip310)" d="M1748.95 1476.87 L1756.59 1476.87 L1756.59 1450.5 L1748.28 1452.17 L1748.28 1447.91 L1756.55 1446.24 L1761.22 1446.24 L1761.22 1476.87 L1768.86 1476.87 L1768.86 1480.8 L1748.95 1480.8 L1748.95 1476.87 Z" fill="#000000" fill-rule="evenodd" fill-opacity="1"></path><path clip-path="url(#clip310)" d="M1788.31 1449.32 Q1784.69 1449.32 1782.87 1452.89 Q1781.06 1456.43 1781.06 1463.56 Q1781.06 1470.66 1782.87 1474.23 Q1784.69 1477.77 1788.31 1477.77 Q1791.94 1477.77 1793.74 1474.23 Q1795.57 1470.66 1795.57 1463.56 Q1795.57 1456.43 1793.74 1452.89 Q1791.94 1449.32 1788.31 1449.32 M1788.31 1445.62 Q1794.12 1445.62 1797.17 1450.22 Q1800.25 1454.81 1800.25 1463.56 Q1800.25 1472.28 1797.17 1476.89 Q1794.12 1481.47 1788.31 1481.47 Q1782.49 1481.47 1779.42 1476.89 Q1776.36 1472.28 1776.36 1463.56 Q1776.36 1454.81 1779.42 1450.22 Q1782.49 1445.62 1788.31 1445.62 Z" fill="#000000" fill-rule="evenodd" fill-opacity="1"></path><path clip-path="url(#clip310)" d="M1800.79 1450.19 L1807 1450.19 L1807 1428.77 L1800.25 1430.13 L1800.25 1426.67 L1806.96 1425.31 L1810.76 1425.31 L1810.76 1450.19 L1816.97 1450.19 L1816.97 1453.39 L1800.79 1453.39 L1800.79 1450.19 Z" fill="#000000" fill-rule="evenodd" fill-opacity="1"></path><path clip-path="url(#clip310)" d="M2033.46 1476.87 L2041.1 1476.87 L2041.1 1450.5 L2032.79 1452.17 L2032.79 1447.91 L2041.06 1446.24 L2045.73 1446.24 L2045.73 1476.87 L2053.37 1476.87 L2053.37 1480.8 L2033.46 1480.8 L2033.46 1476.87 Z" fill="#000000" fill-rule="evenodd" fill-opacity="1"></path><path clip-path="url(#clip310)" d="M2072.82 1449.32 Q2069.2 1449.32 2067.38 1452.89 Q2065.57 1456.43 2065.57 1463.56 Q2065.57 1470.66 2067.38 1474.23 Q2069.2 1477.77 2072.82 1477.77 Q2076.45 1477.77 2078.26 1474.23 Q2080.08 1470.66 2080.08 1463.56 Q2080.08 1456.43 2078.26 1452.89 Q2076.45 1449.32 2072.82 1449.32 M2072.82 1445.62 Q2078.63 1445.62 2081.68 1450.22 Q2084.76 1454.81 2084.76 1463.56 Q2084.76 1472.28 2081.68 1476.89 Q2078.63 1481.47 2072.82 1481.47 Q2067.01 1481.47 2063.93 1476.89 Q2060.87 1472.28 2060.87 1463.56 Q2060.87 1454.81 2063.93 1450.22 Q2067.01 1445.62 2072.82 1445.62 Z" fill="#000000" fill-rule="evenodd" fill-opacity="1"></path><path clip-path="url(#clip310)" d="M2089.33 1450.19 L2102.59 1450.19 L2102.59 1453.39 L2084.76 1453.39 L2084.76 1450.19 Q2086.92 1447.96 2090.65 1444.19 Q2094.39 1440.41 2095.35 1439.32 Q2097.17 1437.27 2097.89 1435.86 Q2098.62 1434.43 2098.62 1433.06 Q2098.62 1430.82 2097.04 1429.41 Q2095.48 1428 2092.96 1428 Q2091.17 1428 2089.18 1428.62 Q2087.2 1429.24 2084.95 1430.5 L2084.95 1426.67 Q2087.24 1425.74 2089.24 1425.27 Q2091.23 1424.8 2092.88 1424.8 Q2097.25 1424.8 2099.84 1426.99 Q2102.44 1429.17 2102.44 1432.82 Q2102.44 1434.55 2101.78 1436.11 Q2101.14 1437.65 2099.43 1439.76 Q2098.96 1440.3 2096.44 1442.92 Q2093.92 1445.51 2089.33 1450.19 Z" fill="#000000" fill-rule="evenodd" fill-opacity="1"></path><path clip-path="url(#clip310)" d="M2318.2 1476.87 L2325.84 1476.87 L2325.84 1450.5 L2317.53 1452.17 L2317.53 1447.91 L2325.79 1446.24 L2330.47 1446.24 L2330.47 1476.87 L2338.11 1476.87 L2338.11 1480.8 L2318.2 1480.8 L2318.2 1476.87 Z" fill="#000000" fill-rule="evenodd" fill-opacity="1"></path><path clip-path="url(#clip310)" d="M2357.55 1449.32 Q2353.94 1449.32 2352.11 1452.89 Q2350.31 1456.43 2350.31 1463.56 Q2350.31 1470.66 2352.11 1474.23 Q2353.94 1477.77 2357.55 1477.77 Q2361.19 1477.77 2362.99 1474.23 Q2364.82 1470.66 2364.82 1463.56 Q2364.82 1456.43 2362.99 1452.89 Q2361.19 1449.32 2357.55 1449.32 M2357.55 1445.62 Q2363.36 1445.62 2366.42 1450.22 Q2369.5 1454.81 2369.5 1463.56 Q2369.5 1472.28 2366.42 1476.89 Q2363.36 1481.47 2357.55 1481.47 Q2351.74 1481.47 2348.66 1476.89 Q2345.61 1472.28 2345.61 1463.56 Q2345.61 1454.81 2348.66 1450.22 Q2351.74 1445.62 2357.55 1445.62 Z" fill="#000000" fill-rule="evenodd" fill-opacity="1"></path><path clip-path="url(#clip310)" d="M2382.19 1438.25 Q2384.92 1438.83 2386.44 1440.68 Q2387.98 1442.52 2387.98 1445.23 Q2387.98 1449.39 2385.12 1451.66 Q2382.27 1453.94 2377 1453.94 Q2375.23 1453.94 2373.35 1453.58 Q2371.49 1453.24 2369.5 1452.55 L2369.5 1448.88 Q2371.08 1449.8 2372.96 1450.27 Q2374.84 1450.74 2376.89 1450.74 Q2380.46 1450.74 2382.32 1449.33 Q2384.2 1447.92 2384.2 1445.23 Q2384.2 1442.75 2382.45 1441.35 Q2380.72 1439.94 2377.62 1439.94 L2374.35 1439.94 L2374.35 1436.82 L2377.77 1436.82 Q2380.57 1436.82 2382.06 1435.71 Q2383.54 1434.58 2383.54 1432.48 Q2383.54 1430.31 2382 1429.17 Q2380.48 1428 2377.62 1428 Q2376.06 1428 2374.27 1428.34 Q2372.49 1428.68 2370.34 1429.39 L2370.34 1426.01 Q2372.5 1425.41 2374.39 1425.1 Q2376.29 1424.8 2377.96 1424.8 Q2382.28 1424.8 2384.81 1426.78 Q2387.33 1428.73 2387.33 1432.08 Q2387.33 1434.41 2385.99 1436.03 Q2384.65 1437.63 2382.19 1438.25 Z" fill="#000000" fill-rule="evenodd" fill-opacity="1"></path><path clip-path="url(#clip310)" d="M1303.18 1523.09 Q1303.18 1523.35 1301.93 1525.6 Q1299.83 1529.76 1297.16 1536.1 Q1294.49 1542.45 1292.97 1547.15 Q1292.65 1548.28 1292.42 1549.73 Q1291.85 1554.17 1289.98 1561.06 Q1289.33 1563.22 1288.91 1564.12 Q1288.5 1565.02 1287.88 1565.02 Q1287.01 1565.02 1287.01 1563.83 Q1287.01 1562.64 1288.11 1558.2 Q1289.24 1553.75 1290.46 1549.66 Q1291.23 1547.41 1291.23 1543.19 Q1291.23 1541.84 1291.17 1540.61 Q1291.1 1539.39 1290.85 1537.62 Q1290.59 1535.85 1290.17 1534.4 Q1289.75 1532.95 1288.95 1531.43 Q1288.14 1529.89 1287.05 1528.86 Q1285.95 1527.79 1284.28 1527.12 Q1282.63 1526.44 1280.57 1526.44 Q1280.06 1526.44 1279.41 1526.51 Q1278.8 1526.54 1277.32 1526.96 Q1275.87 1527.38 1274.65 1528.12 Q1273.42 1528.82 1272.1 1530.4 Q1270.78 1531.98 1270.07 1534.11 L1269.82 1534.43 Q1269.4 1534.43 1269.17 1534.43 Q1268.98 1534.4 1268.75 1534.24 Q1268.56 1534.07 1268.56 1533.78 Q1268.56 1533.11 1269.08 1531.76 Q1269.62 1530.4 1270.72 1528.66 Q1271.85 1526.92 1273.29 1525.38 Q1274.78 1523.83 1276.93 1522.77 Q1279.09 1521.71 1281.41 1521.71 Q1287.37 1521.71 1290.2 1528.95 Q1292.68 1535.1 1292.91 1542.42 Q1298.06 1529.44 1301.6 1522.9 Q1301.8 1522.42 1302.38 1522.42 Q1303.18 1522.45 1303.18 1523.09 Z" fill="#000000" fill-rule="evenodd" fill-opacity="1"></path><path clip-path="url(#clip310)" d="M1309.88 1531.12 Q1309.88 1530.28 1309.95 1530.03 Q1310.04 1529.79 1310.4 1529.4 L1319.26 1519.53 Q1324.11 1514.07 1324.11 1509.32 Q1324.11 1506.23 1322.48 1504.02 Q1320.88 1501.81 1317.93 1501.81 Q1315.9 1501.81 1314.19 1503.05 Q1312.47 1504.29 1311.69 1506.5 Q1311.82 1506.45 1312.29 1506.45 Q1313.44 1506.45 1314.07 1507.17 Q1314.73 1507.9 1314.73 1508.87 Q1314.73 1510.11 1313.92 1510.71 Q1313.13 1511.3 1312.34 1511.3 Q1312.02 1511.3 1311.59 1511.23 Q1311.19 1511.17 1310.54 1510.53 Q1309.88 1509.88 1309.88 1508.73 Q1309.88 1505.51 1312.32 1502.94 Q1314.77 1500.37 1318.52 1500.37 Q1322.75 1500.37 1325.53 1502.89 Q1328.32 1505.39 1328.32 1509.32 Q1328.32 1510.69 1327.89 1511.95 Q1327.49 1513.19 1326.92 1514.16 Q1326.38 1515.13 1324.9 1516.69 Q1323.41 1518.24 1322.21 1519.35 Q1321.02 1520.45 1318.34 1522.8 L1313.44 1527.55 L1321.76 1527.55 Q1325.82 1527.55 1326.14 1527.19 Q1326.59 1526.54 1327.15 1523.09 L1328.32 1523.09 L1327.02 1531.12 L1309.88 1531.12 Z" fill="#000000" fill-rule="evenodd" fill-opacity="1"></path><path clip-path="url(#clip310)" d="M1335.18 1566.41 Q1335.18 1566.09 1335.43 1565.38 L1358.72 1503.16 Q1358.72 1503.09 1358.88 1502.74 Q1359.04 1502.38 1359.14 1502.16 Q1359.23 1501.9 1359.43 1501.71 Q1359.65 1501.51 1359.91 1501.51 Q1360.55 1501.51 1360.55 1502.32 Q1360.55 1502.38 1360.36 1503.16 L1337.01 1565.44 Q1336.63 1566.57 1336.37 1566.89 Q1336.14 1567.21 1335.76 1567.21 Q1335.18 1567.21 1335.18 1566.41 Z" fill="#000000" fill-rule="evenodd" fill-opacity="1"></path><path clip-path="url(#clip310)" d="M1402.46 1523.09 Q1402.46 1523.35 1401.21 1525.6 Q1399.11 1529.76 1396.44 1536.1 Q1393.77 1542.45 1392.25 1547.15 Q1391.93 1548.28 1391.7 1549.73 Q1391.13 1554.17 1389.26 1561.06 Q1388.61 1563.22 1388.19 1564.12 Q1387.78 1565.02 1387.16 1565.02 Q1386.29 1565.02 1386.29 1563.83 Q1386.29 1562.64 1387.39 1558.2 Q1388.52 1553.75 1389.74 1549.66 Q1390.51 1547.41 1390.51 1543.19 Q1390.51 1541.84 1390.45 1540.61 Q1390.38 1539.39 1390.13 1537.62 Q1389.87 1535.85 1389.45 1534.4 Q1389.03 1532.95 1388.23 1531.43 Q1387.42 1529.89 1386.33 1528.86 Q1385.23 1527.79 1383.56 1527.12 Q1381.91 1526.44 1379.85 1526.44 Q1379.34 1526.44 1378.69 1526.51 Q1378.08 1526.54 1376.6 1526.96 Q1375.15 1527.38 1373.93 1528.12 Q1372.7 1528.82 1371.38 1530.4 Q1370.06 1531.98 1369.35 1534.11 L1369.1 1534.43 Q1368.68 1534.43 1368.45 1534.43 Q1368.26 1534.4 1368.03 1534.24 Q1367.84 1534.07 1367.84 1533.78 Q1367.84 1533.11 1368.36 1531.76 Q1368.9 1530.4 1370 1528.66 Q1371.13 1526.92 1372.57 1525.38 Q1374.06 1523.83 1376.21 1522.77 Q1378.37 1521.71 1380.69 1521.71 Q1386.65 1521.71 1389.48 1528.95 Q1391.96 1535.1 1392.19 1542.42 Q1397.34 1529.44 1400.88 1522.9 Q1401.08 1522.42 1401.66 1522.42 Q1402.46 1522.45 1402.46 1523.09 Z" fill="#000000" fill-rule="evenodd" fill-opacity="1"></path><path clip-path="url(#clip310)" d="M1409.16 1531.12 Q1409.16 1530.28 1409.23 1530.03 Q1409.32 1529.79 1409.68 1529.4 L1418.54 1519.53 Q1423.39 1514.07 1423.39 1509.32 Q1423.39 1506.23 1421.76 1504.02 Q1420.16 1501.81 1417.21 1501.81 Q1415.18 1501.81 1413.47 1503.05 Q1411.75 1504.29 1410.97 1506.5 Q1411.1 1506.45 1411.57 1506.45 Q1412.72 1506.45 1413.35 1507.17 Q1414.01 1507.9 1414.01 1508.87 Q1414.01 1510.11 1413.2 1510.71 Q1412.41 1511.3 1411.62 1511.3 Q1411.3 1511.3 1410.87 1511.23 Q1410.47 1511.17 1409.82 1510.53 Q1409.16 1509.88 1409.16 1508.73 Q1409.16 1505.51 1411.6 1502.94 Q1414.05 1500.37 1417.8 1500.37 Q1422.03 1500.37 1424.81 1502.89 Q1427.6 1505.39 1427.6 1509.32 Q1427.6 1510.69 1427.17 1511.95 Q1426.77 1513.19 1426.2 1514.16 Q1425.66 1515.13 1424.18 1516.69 Q1422.69 1518.24 1421.49 1519.35 Q1420.3 1520.45 1417.62 1522.8 L1412.72 1527.55 L1421.04 1527.55 Q1425.1 1527.55 1425.42 1527.19 Q1425.87 1526.54 1426.43 1523.09 L1427.6 1523.09 L1426.3 1531.12 L1409.16 1531.12 Z" fill="#000000" fill-rule="evenodd" fill-opacity="1"></path><path clip-path="url(#clip310)" d="M1409.16 1568.39 Q1409.16 1561.61 1410.87 1557.91 Q1413.26 1552.41 1418.9 1552.41 Q1420.1 1552.41 1421.34 1552.75 Q1422.6 1553.06 1424.18 1554.3 Q1425.78 1555.54 1426.75 1557.57 Q1428.59 1561.5 1428.59 1568.39 Q1428.59 1575.14 1426.88 1578.81 Q1424.38 1584.18 1418.86 1584.18 Q1416.78 1584.18 1414.66 1583.12 Q1412.57 1582.06 1411.24 1579.51 Q1409.16 1575.7 1409.16 1568.39 M1412.99 1567.83 Q1412.99 1574.8 1413.49 1577.57 Q1414.05 1580.57 1415.59 1581.88 Q1417.14 1583.16 1418.86 1583.16 Q1420.7 1583.16 1422.24 1581.79 Q1423.79 1580.39 1424.27 1577.39 Q1424.78 1574.44 1424.76 1567.83 Q1424.76 1561.41 1424.31 1558.84 Q1423.7 1555.84 1422.08 1554.64 Q1420.48 1553.43 1418.86 1553.43 Q1418.25 1553.43 1417.59 1553.61 Q1416.96 1553.79 1416.04 1554.3 Q1415.11 1554.82 1414.39 1556.11 Q1413.69 1557.39 1413.35 1559.33 Q1412.99 1561.83 1412.99 1567.83 Z" fill="#000000" fill-rule="evenodd" fill-opacity="1"></path><polyline clip-path="url(#clip313)" style="stroke:#000000; stroke-linecap:round; stroke-linejoin:round; stroke-width:2; stroke-opacity:0.1; fill:none" points="357.301,1328.85 2352.76,1328.85 "></polyline>
<polyline clip-path="url(#clip313)" style="stroke:#000000; stroke-linecap:round; stroke-linejoin:round; stroke-width:2; stroke-opacity:0.1; fill:none" points="357.301,1013.84 2352.76,1013.84 "></polyline>
<polyline clip-path="url(#clip313)" style="stroke:#000000; stroke-linecap:round; stroke-linejoin:round; stroke-width:2; stroke-opacity:0.1; fill:none" points="357.301,698.832 2352.76,698.832 "></polyline>
<polyline clip-path="url(#clip313)" style="stroke:#000000; stroke-linecap:round; stroke-linejoin:round; stroke-width:2; stroke-opacity:0.1; fill:none" points="357.301,383.822 2352.76,383.822 "></polyline>
<polyline clip-path="url(#clip313)" style="stroke:#000000; stroke-linecap:round; stroke-linejoin:round; stroke-width:2; stroke-opacity:0.1; fill:none" points="357.301,68.8111 2352.76,68.8111 "></polyline>
<polyline clip-path="url(#clip310)" style="stroke:#000000; stroke-linecap:round; stroke-linejoin:round; stroke-width:4; stroke-opacity:1; fill:none" points="357.301,1402.74 357.301,47.2441 "></polyline>
<polyline clip-path="url(#clip310)" style="stroke:#000000; stroke-linecap:round; stroke-linejoin:round; stroke-width:4; stroke-opacity:1; fill:none" points="357.301,1328.85 376.198,1328.85 "></polyline>
<polyline clip-path="url(#clip310)" style="stroke:#000000; stroke-linecap:round; stroke-linejoin:round; stroke-width:4; stroke-opacity:1; fill:none" points="357.301,1013.84 376.198,1013.84 "></polyline>
<polyline clip-path="url(#clip310)" style="stroke:#000000; stroke-linecap:round; stroke-linejoin:round; stroke-width:4; stroke-opacity:1; fill:none" points="357.301,698.832 376.198,698.832 "></polyline>
<polyline clip-path="url(#clip310)" style="stroke:#000000; stroke-linecap:round; stroke-linejoin:round; stroke-width:4; stroke-opacity:1; fill:none" points="357.301,383.822 376.198,383.822 "></polyline>
<polyline clip-path="url(#clip310)" style="stroke:#000000; stroke-linecap:round; stroke-linejoin:round; stroke-width:4; stroke-opacity:1; fill:none" points="357.301,68.8111 376.198,68.8111 "></polyline>
<path clip-path="url(#clip310)" d="M123.871 1329.31 L153.547 1329.31 L153.547 1333.24 L123.871 1333.24 L123.871 1329.31 Z" fill="#000000" fill-rule="evenodd" fill-opacity="1"></path><path clip-path="url(#clip310)" d="M173.639 1314.65 Q170.028 1314.65 168.2 1318.22 Q166.394 1321.76 166.394 1328.89 Q166.394 1336 168.2 1339.56 Q170.028 1343.1 173.639 1343.1 Q177.274 1343.1 179.079 1339.56 Q180.908 1336 180.908 1328.89 Q180.908 1321.76 179.079 1318.22 Q177.274 1314.65 173.639 1314.65 M173.639 1310.95 Q179.45 1310.95 182.505 1315.56 Q185.584 1320.14 185.584 1328.89 Q185.584 1337.62 182.505 1342.22 Q179.45 1346.81 173.639 1346.81 Q167.829 1346.81 164.751 1342.22 Q161.695 1337.62 161.695 1328.89 Q161.695 1320.14 164.751 1315.56 Q167.829 1310.95 173.639 1310.95 Z" fill="#000000" fill-rule="evenodd" fill-opacity="1"></path><path clip-path="url(#clip310)" d="M193.801 1340.25 L198.686 1340.25 L198.686 1346.13 L193.801 1346.13 L193.801 1340.25 Z" fill="#000000" fill-rule="evenodd" fill-opacity="1"></path><path clip-path="url(#clip310)" d="M218.871 1314.65 Q215.259 1314.65 213.431 1318.22 Q211.625 1321.76 211.625 1328.89 Q211.625 1336 213.431 1339.56 Q215.259 1343.1 218.871 1343.1 Q222.505 1343.1 224.31 1339.56 Q226.139 1336 226.139 1328.89 Q226.139 1321.76 224.31 1318.22 Q222.505 1314.65 218.871 1314.65 M218.871 1310.95 Q224.681 1310.95 227.736 1315.56 Q230.815 1320.14 230.815 1328.89 Q230.815 1337.62 227.736 1342.22 Q224.681 1346.81 218.871 1346.81 Q213.06 1346.81 209.982 1342.22 Q206.926 1337.62 206.926 1328.89 Q206.926 1320.14 209.982 1315.56 Q213.06 1310.95 218.871 1310.95 Z" fill="#000000" fill-rule="evenodd" fill-opacity="1"></path><path clip-path="url(#clip310)" d="M249.032 1314.65 Q245.421 1314.65 243.593 1318.22 Q241.787 1321.76 241.787 1328.89 Q241.787 1336 243.593 1339.56 Q245.421 1343.1 249.032 1343.1 Q252.667 1343.1 254.472 1339.56 Q256.301 1336 256.301 1328.89 Q256.301 1321.76 254.472 1318.22 Q252.667 1314.65 249.032 1314.65 M249.032 1310.95 Q254.843 1310.95 257.898 1315.56 Q260.977 1320.14 260.977 1328.89 Q260.977 1337.62 257.898 1342.22 Q254.843 1346.81 249.032 1346.81 Q243.222 1346.81 240.144 1342.22 Q237.088 1337.62 237.088 1328.89 Q237.088 1320.14 240.144 1315.56 Q243.222 1310.95 249.032 1310.95 Z" fill="#000000" fill-rule="evenodd" fill-opacity="1"></path><path clip-path="url(#clip310)" d="M273.222 1342.2 L289.542 1342.2 L289.542 1346.13 L267.597 1346.13 L267.597 1342.2 Q270.259 1339.44 274.843 1334.81 Q279.449 1330.16 280.63 1328.82 Q282.875 1326.3 283.754 1324.56 Q284.657 1322.8 284.657 1321.11 Q284.657 1318.36 282.713 1316.62 Q280.792 1314.88 277.69 1314.88 Q275.491 1314.88 273.037 1315.65 Q270.606 1316.41 267.829 1317.96 L267.829 1313.24 Q270.653 1312.11 273.106 1311.53 Q275.56 1310.95 277.597 1310.95 Q282.967 1310.95 286.162 1313.63 Q289.356 1316.32 289.356 1320.81 Q289.356 1322.94 288.546 1324.86 Q287.759 1326.76 285.653 1329.35 Q285.074 1330.02 281.972 1333.24 Q278.87 1336.43 273.222 1342.2 Z" fill="#000000" fill-rule="evenodd" fill-opacity="1"></path><path clip-path="url(#clip310)" d="M309.356 1314.65 Q305.745 1314.65 303.916 1318.22 Q302.111 1321.76 302.111 1328.89 Q302.111 1336 303.916 1339.56 Q305.745 1343.1 309.356 1343.1 Q312.99 1343.1 314.796 1339.56 Q316.625 1336 316.625 1328.89 Q316.625 1321.76 314.796 1318.22 Q312.99 1314.65 309.356 1314.65 M309.356 1310.95 Q315.166 1310.95 318.222 1315.56 Q321.301 1320.14 321.301 1328.89 Q321.301 1337.62 318.222 1342.22 Q315.166 1346.81 309.356 1346.81 Q303.546 1346.81 300.467 1342.22 Q297.412 1337.62 297.412 1328.89 Q297.412 1320.14 300.467 1315.56 Q303.546 1310.95 309.356 1310.95 Z" fill="#000000" fill-rule="evenodd" fill-opacity="1"></path><path clip-path="url(#clip310)" d="M124.866 1014.29 L154.542 1014.29 L154.542 1018.23 L124.866 1018.23 L124.866 1014.29 Z" fill="#000000" fill-rule="evenodd" fill-opacity="1"></path><path clip-path="url(#clip310)" d="M174.635 999.642 Q171.024 999.642 169.195 1003.21 Q167.389 1006.75 167.389 1013.88 Q167.389 1020.98 169.195 1024.55 Q171.024 1028.09 174.635 1028.09 Q178.269 1028.09 180.074 1024.55 Q181.903 1020.98 181.903 1013.88 Q181.903 1006.75 180.074 1003.21 Q178.269 999.642 174.635 999.642 M174.635 995.938 Q180.445 995.938 183.5 1000.54 Q186.579 1005.13 186.579 1013.88 Q186.579 1022.6 183.5 1027.21 Q180.445 1031.79 174.635 1031.79 Q168.825 1031.79 165.746 1027.21 Q162.69 1022.6 162.69 1013.88 Q162.69 1005.13 165.746 1000.54 Q168.825 995.938 174.635 995.938 Z" fill="#000000" fill-rule="evenodd" fill-opacity="1"></path><path clip-path="url(#clip310)" d="M194.797 1025.24 L199.681 1025.24 L199.681 1031.12 L194.797 1031.12 L194.797 1025.24 Z" fill="#000000" fill-rule="evenodd" fill-opacity="1"></path><path clip-path="url(#clip310)" d="M219.866 999.642 Q216.255 999.642 214.426 1003.21 Q212.621 1006.75 212.621 1013.88 Q212.621 1020.98 214.426 1024.55 Q216.255 1028.09 219.866 1028.09 Q223.5 1028.09 225.306 1024.55 Q227.134 1020.98 227.134 1013.88 Q227.134 1006.75 225.306 1003.21 Q223.5 999.642 219.866 999.642 M219.866 995.938 Q225.676 995.938 228.732 1000.54 Q231.81 1005.13 231.81 1013.88 Q231.81 1022.6 228.732 1027.21 Q225.676 1031.79 219.866 1031.79 Q214.056 1031.79 210.977 1027.21 Q207.922 1022.6 207.922 1013.88 Q207.922 1005.13 210.977 1000.54 Q214.056 995.938 219.866 995.938 Z" fill="#000000" fill-rule="evenodd" fill-opacity="1"></path><path clip-path="url(#clip310)" d="M250.028 999.642 Q246.417 999.642 244.588 1003.21 Q242.782 1006.75 242.782 1013.88 Q242.782 1020.98 244.588 1024.55 Q246.417 1028.09 250.028 1028.09 Q253.662 1028.09 255.468 1024.55 Q257.296 1020.98 257.296 1013.88 Q257.296 1006.75 255.468 1003.21 Q253.662 999.642 250.028 999.642 M250.028 995.938 Q255.838 995.938 258.894 1000.54 Q261.972 1005.13 261.972 1013.88 Q261.972 1022.6 258.894 1027.21 Q255.838 1031.79 250.028 1031.79 Q244.218 1031.79 241.139 1027.21 Q238.083 1022.6 238.083 1013.88 Q238.083 1005.13 241.139 1000.54 Q244.218 995.938 250.028 995.938 Z" fill="#000000" fill-rule="evenodd" fill-opacity="1"></path><path clip-path="url(#clip310)" d="M271 1027.19 L278.639 1027.19 L278.639 1000.82 L270.329 1002.49 L270.329 998.23 L278.592 996.563 L283.268 996.563 L283.268 1027.19 L290.907 1027.19 L290.907 1031.12 L271 1031.12 L271 1027.19 Z" fill="#000000" fill-rule="evenodd" fill-opacity="1"></path><path clip-path="url(#clip310)" d="M300.398 996.563 L318.754 996.563 L318.754 1000.5 L304.68 1000.5 L304.68 1008.97 Q305.699 1008.62 306.717 1008.46 Q307.736 1008.28 308.754 1008.28 Q314.541 1008.28 317.921 1011.45 Q321.301 1014.62 321.301 1020.04 Q321.301 1025.61 317.828 1028.72 Q314.356 1031.79 308.037 1031.79 Q305.861 1031.79 303.592 1031.42 Q301.347 1031.05 298.94 1030.31 L298.94 1025.61 Q301.023 1026.75 303.245 1027.3 Q305.467 1027.86 307.944 1027.86 Q311.949 1027.86 314.287 1025.75 Q316.625 1023.65 316.625 1020.04 Q316.625 1016.42 314.287 1014.32 Q311.949 1012.21 307.944 1012.21 Q306.069 1012.21 304.194 1012.63 Q302.342 1013.04 300.398 1013.92 L300.398 996.563 Z" fill="#000000" fill-rule="evenodd" fill-opacity="1"></path><path clip-path="url(#clip310)" d="M123.871 699.284 L153.547 699.284 L153.547 703.219 L123.871 703.219 L123.871 699.284 Z" fill="#000000" fill-rule="evenodd" fill-opacity="1"></path><path clip-path="url(#clip310)" d="M173.639 684.631 Q170.028 684.631 168.2 688.196 Q166.394 691.738 166.394 698.867 Q166.394 705.974 168.2 709.538 Q170.028 713.08 173.639 713.08 Q177.274 713.08 179.079 709.538 Q180.908 705.974 180.908 698.867 Q180.908 691.738 179.079 688.196 Q177.274 684.631 173.639 684.631 M173.639 680.927 Q179.45 680.927 182.505 685.534 Q185.584 690.117 185.584 698.867 Q185.584 707.594 182.505 712.2 Q179.45 716.784 173.639 716.784 Q167.829 716.784 164.751 712.2 Q161.695 707.594 161.695 698.867 Q161.695 690.117 164.751 685.534 Q167.829 680.927 173.639 680.927 Z" fill="#000000" fill-rule="evenodd" fill-opacity="1"></path><path clip-path="url(#clip310)" d="M193.801 710.233 L198.686 710.233 L198.686 716.112 L193.801 716.112 L193.801 710.233 Z" fill="#000000" fill-rule="evenodd" fill-opacity="1"></path><path clip-path="url(#clip310)" d="M218.871 684.631 Q215.259 684.631 213.431 688.196 Q211.625 691.738 211.625 698.867 Q211.625 705.974 213.431 709.538 Q215.259 713.08 218.871 713.08 Q222.505 713.08 224.31 709.538 Q226.139 705.974 226.139 698.867 Q226.139 691.738 224.31 688.196 Q222.505 684.631 218.871 684.631 M218.871 680.927 Q224.681 680.927 227.736 685.534 Q230.815 690.117 230.815 698.867 Q230.815 707.594 227.736 712.2 Q224.681 716.784 218.871 716.784 Q213.06 716.784 209.982 712.2 Q206.926 707.594 206.926 698.867 Q206.926 690.117 209.982 685.534 Q213.06 680.927 218.871 680.927 Z" fill="#000000" fill-rule="evenodd" fill-opacity="1"></path><path clip-path="url(#clip310)" d="M249.032 684.631 Q245.421 684.631 243.593 688.196 Q241.787 691.738 241.787 698.867 Q241.787 705.974 243.593 709.538 Q245.421 713.08 249.032 713.08 Q252.667 713.08 254.472 709.538 Q256.301 705.974 256.301 698.867 Q256.301 691.738 254.472 688.196 Q252.667 684.631 249.032 684.631 M249.032 680.927 Q254.843 680.927 257.898 685.534 Q260.977 690.117 260.977 698.867 Q260.977 707.594 257.898 712.2 Q254.843 716.784 249.032 716.784 Q243.222 716.784 240.144 712.2 Q237.088 707.594 237.088 698.867 Q237.088 690.117 240.144 685.534 Q243.222 680.927 249.032 680.927 Z" fill="#000000" fill-rule="evenodd" fill-opacity="1"></path><path clip-path="url(#clip310)" d="M270.005 712.177 L277.643 712.177 L277.643 685.812 L269.333 687.478 L269.333 683.219 L277.597 681.552 L282.273 681.552 L282.273 712.177 L289.912 712.177 L289.912 716.112 L270.005 716.112 L270.005 712.177 Z" fill="#000000" fill-rule="evenodd" fill-opacity="1"></path><path clip-path="url(#clip310)" d="M309.356 684.631 Q305.745 684.631 303.916 688.196 Q302.111 691.738 302.111 698.867 Q302.111 705.974 303.916 709.538 Q305.745 713.08 309.356 713.08 Q312.99 713.08 314.796 709.538 Q316.625 705.974 316.625 698.867 Q316.625 691.738 314.796 688.196 Q312.99 684.631 309.356 684.631 M309.356 680.927 Q315.166 680.927 318.222 685.534 Q321.301 690.117 321.301 698.867 Q321.301 707.594 318.222 712.2 Q315.166 716.784 309.356 716.784 Q303.546 716.784 300.467 712.2 Q297.412 707.594 297.412 698.867 Q297.412 690.117 300.467 685.534 Q303.546 680.927 309.356 680.927 Z" fill="#000000" fill-rule="evenodd" fill-opacity="1"></path><path clip-path="url(#clip310)" d="M124.866 384.273 L154.542 384.273 L154.542 388.208 L124.866 388.208 L124.866 384.273 Z" fill="#000000" fill-rule="evenodd" fill-opacity="1"></path><path clip-path="url(#clip310)" d="M174.635 369.62 Q171.024 369.62 169.195 373.185 Q167.389 376.727 167.389 383.857 Q167.389 390.963 169.195 394.528 Q171.024 398.069 174.635 398.069 Q178.269 398.069 180.074 394.528 Q181.903 390.963 181.903 383.857 Q181.903 376.727 180.074 373.185 Q178.269 369.62 174.635 369.62 M174.635 365.917 Q180.445 365.917 183.5 370.523 Q186.579 375.107 186.579 383.857 Q186.579 392.583 183.5 397.19 Q180.445 401.773 174.635 401.773 Q168.825 401.773 165.746 397.19 Q162.69 392.583 162.69 383.857 Q162.69 375.107 165.746 370.523 Q168.825 365.917 174.635 365.917 Z" fill="#000000" fill-rule="evenodd" fill-opacity="1"></path><path clip-path="url(#clip310)" d="M194.797 395.222 L199.681 395.222 L199.681 401.102 L194.797 401.102 L194.797 395.222 Z" fill="#000000" fill-rule="evenodd" fill-opacity="1"></path><path clip-path="url(#clip310)" d="M219.866 369.62 Q216.255 369.62 214.426 373.185 Q212.621 376.727 212.621 383.857 Q212.621 390.963 214.426 394.528 Q216.255 398.069 219.866 398.069 Q223.5 398.069 225.306 394.528 Q227.134 390.963 227.134 383.857 Q227.134 376.727 225.306 373.185 Q223.5 369.62 219.866 369.62 M219.866 365.917 Q225.676 365.917 228.732 370.523 Q231.81 375.107 231.81 383.857 Q231.81 392.583 228.732 397.19 Q225.676 401.773 219.866 401.773 Q214.056 401.773 210.977 397.19 Q207.922 392.583 207.922 383.857 Q207.922 375.107 210.977 370.523 Q214.056 365.917 219.866 365.917 Z" fill="#000000" fill-rule="evenodd" fill-opacity="1"></path><path clip-path="url(#clip310)" d="M250.028 369.62 Q246.417 369.62 244.588 373.185 Q242.782 376.727 242.782 383.857 Q242.782 390.963 244.588 394.528 Q246.417 398.069 250.028 398.069 Q253.662 398.069 255.468 394.528 Q257.296 390.963 257.296 383.857 Q257.296 376.727 255.468 373.185 Q253.662 369.62 250.028 369.62 M250.028 365.917 Q255.838 365.917 258.894 370.523 Q261.972 375.107 261.972 383.857 Q261.972 392.583 258.894 397.19 Q255.838 401.773 250.028 401.773 Q244.218 401.773 241.139 397.19 Q238.083 392.583 238.083 383.857 Q238.083 375.107 241.139 370.523 Q244.218 365.917 250.028 365.917 Z" fill="#000000" fill-rule="evenodd" fill-opacity="1"></path><path clip-path="url(#clip310)" d="M280.19 369.62 Q276.579 369.62 274.75 373.185 Q272.944 376.727 272.944 383.857 Q272.944 390.963 274.75 394.528 Q276.579 398.069 280.19 398.069 Q283.824 398.069 285.629 394.528 Q287.458 390.963 287.458 383.857 Q287.458 376.727 285.629 373.185 Q283.824 369.62 280.19 369.62 M280.19 365.917 Q286 365.917 289.055 370.523 Q292.134 375.107 292.134 383.857 Q292.134 392.583 289.055 397.19 Q286 401.773 280.19 401.773 Q274.38 401.773 271.301 397.19 Q268.245 392.583 268.245 383.857 Q268.245 375.107 271.301 370.523 Q274.38 365.917 280.19 365.917 Z" fill="#000000" fill-rule="evenodd" fill-opacity="1"></path><path clip-path="url(#clip310)" d="M300.398 366.542 L318.754 366.542 L318.754 370.477 L304.68 370.477 L304.68 378.949 Q305.699 378.602 306.717 378.44 Q307.736 378.255 308.754 378.255 Q314.541 378.255 317.921 381.426 Q321.301 384.597 321.301 390.014 Q321.301 395.593 317.828 398.694 Q314.356 401.773 308.037 401.773 Q305.861 401.773 303.592 401.403 Q301.347 401.032 298.94 400.292 L298.94 395.593 Q301.023 396.727 303.245 397.282 Q305.467 397.838 307.944 397.838 Q311.949 397.838 314.287 395.731 Q316.625 393.625 316.625 390.014 Q316.625 386.403 314.287 384.296 Q311.949 382.19 307.944 382.19 Q306.069 382.19 304.194 382.607 Q302.342 383.023 300.398 383.903 L300.398 366.542 Z" fill="#000000" fill-rule="evenodd" fill-opacity="1"></path><path clip-path="url(#clip310)" d="M173.639 54.6098 Q170.028 54.6098 168.2 58.1746 Q166.394 61.7162 166.394 68.8458 Q166.394 75.9522 168.2 79.517 Q170.028 83.0587 173.639 83.0587 Q177.274 83.0587 179.079 79.517 Q180.908 75.9522 180.908 68.8458 Q180.908 61.7162 179.079 58.1746 Q177.274 54.6098 173.639 54.6098 M173.639 50.9061 Q179.45 50.9061 182.505 55.5125 Q185.584 60.0958 185.584 68.8458 Q185.584 77.5726 182.505 82.1791 Q179.45 86.7624 173.639 86.7624 Q167.829 86.7624 164.751 82.1791 Q161.695 77.5726 161.695 68.8458 Q161.695 60.0958 164.751 55.5125 Q167.829 50.9061 173.639 50.9061 Z" fill="#000000" fill-rule="evenodd" fill-opacity="1"></path><path clip-path="url(#clip310)" d="M193.801 80.2115 L198.686 80.2115 L198.686 86.0911 L193.801 86.0911 L193.801 80.2115 Z" fill="#000000" fill-rule="evenodd" fill-opacity="1"></path><path clip-path="url(#clip310)" d="M218.871 54.6098 Q215.259 54.6098 213.431 58.1746 Q211.625 61.7162 211.625 68.8458 Q211.625 75.9522 213.431 79.517 Q215.259 83.0587 218.871 83.0587 Q222.505 83.0587 224.31 79.517 Q226.139 75.9522 226.139 68.8458 Q226.139 61.7162 224.31 58.1746 Q222.505 54.6098 218.871 54.6098 M218.871 50.9061 Q224.681 50.9061 227.736 55.5125 Q230.815 60.0958 230.815 68.8458 Q230.815 77.5726 227.736 82.1791 Q224.681 86.7624 218.871 86.7624 Q213.06 86.7624 209.982 82.1791 Q206.926 77.5726 206.926 68.8458 Q206.926 60.0958 209.982 55.5125 Q213.06 50.9061 218.871 50.9061 Z" fill="#000000" fill-rule="evenodd" fill-opacity="1"></path><path clip-path="url(#clip310)" d="M249.032 54.6098 Q245.421 54.6098 243.593 58.1746 Q241.787 61.7162 241.787 68.8458 Q241.787 75.9522 243.593 79.517 Q245.421 83.0587 249.032 83.0587 Q252.667 83.0587 254.472 79.517 Q256.301 75.9522 256.301 68.8458 Q256.301 61.7162 254.472 58.1746 Q252.667 54.6098 249.032 54.6098 M249.032 50.9061 Q254.843 50.9061 257.898 55.5125 Q260.977 60.0958 260.977 68.8458 Q260.977 77.5726 257.898 82.1791 Q254.843 86.7624 249.032 86.7624 Q243.222 86.7624 240.144 82.1791 Q237.088 77.5726 237.088 68.8458 Q237.088 60.0958 240.144 55.5125 Q243.222 50.9061 249.032 50.9061 Z" fill="#000000" fill-rule="evenodd" fill-opacity="1"></path><path clip-path="url(#clip310)" d="M279.194 54.6098 Q275.583 54.6098 273.755 58.1746 Q271.949 61.7162 271.949 68.8458 Q271.949 75.9522 273.755 79.517 Q275.583 83.0587 279.194 83.0587 Q282.829 83.0587 284.634 79.517 Q286.463 75.9522 286.463 68.8458 Q286.463 61.7162 284.634 58.1746 Q282.829 54.6098 279.194 54.6098 M279.194 50.9061 Q285.004 50.9061 288.06 55.5125 Q291.139 60.0958 291.139 68.8458 Q291.139 77.5726 288.06 82.1791 Q285.004 86.7624 279.194 86.7624 Q273.384 86.7624 270.305 82.1791 Q267.25 77.5726 267.25 68.8458 Q267.25 60.0958 270.305 55.5125 Q273.384 50.9061 279.194 50.9061 Z" fill="#000000" fill-rule="evenodd" fill-opacity="1"></path><path clip-path="url(#clip310)" d="M309.356 54.6098 Q305.745 54.6098 303.916 58.1746 Q302.111 61.7162 302.111 68.8458 Q302.111 75.9522 303.916 79.517 Q305.745 83.0587 309.356 83.0587 Q312.99 83.0587 314.796 79.517 Q316.625 75.9522 316.625 68.8458 Q316.625 61.7162 314.796 58.1746 Q312.99 54.6098 309.356 54.6098 M309.356 50.9061 Q315.166 50.9061 318.222 55.5125 Q321.301 60.0958 321.301 68.8458 Q321.301 77.5726 318.222 82.1791 Q315.166 86.7624 309.356 86.7624 Q303.546 86.7624 300.467 82.1791 Q297.412 77.5726 297.412 68.8458 Q297.412 60.0958 300.467 55.5125 Q303.546 50.9061 309.356 50.9061 Z" fill="#000000" fill-rule="evenodd" fill-opacity="1"></path><path clip-path="url(#clip310)" d="M67.2557 803.214 Q67.5133 803.214 68.5117 803.504 Q69.5101 803.794 71.056 804.502 Q72.6018 805.179 74.0189 806.145 Q75.4038 807.079 76.4343 808.625 Q77.4327 810.138 77.4327 811.878 Q77.4327 814.196 75.8868 815.742 Q74.341 817.288 72.0221 817.288 Q70.7661 817.288 68.3829 816.419 Q57.4973 812.328 53.6004 812.328 Q48.9949 812.328 48.9949 815.903 Q48.9949 817.932 49.8323 819.768 Q50.6696 821.604 51.8291 822.795 Q52.9885 823.987 54.3089 824.921 Q55.6294 825.855 56.4989 826.274 Q57.3685 826.66 57.7549 826.757 L73.6646 830.718 Q75.0173 831.04 75.6614 831.266 Q76.3055 831.491 76.853 832.103 Q77.4327 832.715 77.4327 833.681 Q77.4327 834.486 76.9496 835.066 Q76.4665 835.613 75.6292 835.613 Q75.5004 835.613 74.824 835.452 Q74.1477 835.291 73.2138 835.066 Q72.2798 834.84 71.7323 834.744 Q67.3523 833.584 66.7404 833.423 L59.0754 831.588 Q55.2751 830.589 53.6004 830.589 Q48.9949 830.589 48.9949 834.164 Q48.9949 835.935 49.6713 837.61 Q50.3154 839.253 51.2171 840.38 Q52.1189 841.507 53.3749 842.538 Q54.5988 843.536 55.4361 844.051 Q56.2413 844.534 57.0464 844.921 L60.3314 845.758 Q61.2332 845.951 64.7436 846.885 L70.7017 848.335 Q75.1461 849.365 75.5648 849.591 Q76.4665 849.913 76.9496 850.621 Q77.4327 851.33 77.4327 852.038 Q77.4327 852.843 76.9496 853.391 Q76.4665 853.938 75.6292 853.938 Q75.5004 853.938 75.0173 853.842 Q74.5342 853.745 73.8579 853.584 Q73.1815 853.423 72.7951 853.359 L57.5617 849.526 Q54.792 848.818 53.9224 848.657 Q53.0207 848.463 52.0223 848.463 Q48.9949 848.463 48.9949 850.525 Q48.9949 852.199 50.9917 853.294 Q52.9885 854.389 56.8532 855.323 Q57.916 855.613 58.1414 855.806 Q58.3669 855.967 58.3669 856.451 Q58.3346 857.256 57.6905 857.256 Q57.5295 857.256 56.4989 856.998 Q55.4683 856.74 53.9224 856.257 Q52.3444 855.742 51.3138 855.194 Q50.6374 854.872 50.1866 854.583 Q49.7357 854.293 49.0272 853.713 Q48.3186 853.133 47.9322 852.264 Q47.5457 851.394 47.5457 850.331 Q47.5457 847.98 49.0594 846.241 Q50.573 844.47 53.2783 844.244 Q47.5457 839.961 47.5457 833.971 Q47.5457 830.589 49.2526 828.56 Q50.8951 826.66 53.9224 826.435 Q47.5457 821.99 47.5457 815.678 Q47.5457 812.039 49.4458 810.074 Q51.3138 808.11 54.5988 808.11 Q56.3057 808.11 59.5585 808.979 Q62.7791 809.849 64.3893 810.428 Q65.9996 811.008 69.0914 812.135 Q72.0543 813.327 73.7935 813.327 Q74.9207 813.327 75.436 812.94 Q75.9513 812.554 75.9513 811.717 Q75.9513 810.428 75.2105 809.301 Q74.4376 808.174 73.1815 807.369 Q71.8933 806.531 70.6051 805.984 Q69.2846 805.436 67.8032 805.018 Q66.998 804.76 66.8048 804.631 Q66.6116 804.47 66.6116 804.019 Q66.6116 803.214 67.2557 803.214 Z" fill="#000000" fill-rule="evenodd" fill-opacity="1"></path><path clip-path="url(#clip310)" d="M56.9553 796.7 Q56.1211 796.7 55.8731 796.632 Q55.6252 796.542 55.2419 796.182 L45.3676 787.322 Q39.9119 782.475 35.1551 782.475 Q32.0666 782.475 29.8573 784.098 Q27.6479 785.699 27.6479 788.652 Q27.6479 790.681 28.8879 792.394 Q30.1278 794.107 32.3371 794.897 Q32.292 794.761 32.292 794.288 Q32.292 793.138 33.0134 792.507 Q33.7348 791.853 34.7042 791.853 Q35.9442 791.853 36.5529 792.665 Q37.139 793.454 37.139 794.243 Q37.139 794.558 37.0714 794.987 Q37.0037 795.392 36.3725 796.046 Q35.7187 796.7 34.569 796.7 Q31.3452 796.7 28.7751 794.265 Q26.2051 791.808 26.2051 788.066 Q26.2051 783.827 28.73 781.054 Q31.2324 778.259 35.1551 778.259 Q36.5303 778.259 37.7928 778.687 Q39.0327 779.093 40.0021 779.657 Q40.9715 780.198 42.527 781.686 Q44.0826 783.174 45.1872 784.368 Q46.2919 785.563 48.6365 788.246 L53.3933 793.138 L53.3933 784.819 Q53.3933 780.761 53.0326 780.446 Q52.3788 779.995 48.9296 779.431 L48.9296 778.259 L56.9553 779.567 L56.9553 796.7 Z" fill="#000000" fill-rule="evenodd" fill-opacity="1"></path><path clip-path="url(#clip310)" d="M92.2474 771.405 Q91.9254 771.405 91.2168 771.148 L28.9951 747.863 Q28.9307 747.863 28.5764 747.702 Q28.2222 747.541 27.9967 747.444 Q27.7391 747.348 27.5458 747.154 Q27.3526 746.929 27.3526 746.671 Q27.3526 746.027 28.1578 746.027 Q28.2222 746.027 28.9951 746.22 L91.2812 769.57 Q92.4084 769.956 92.7305 770.214 Q93.0526 770.439 93.0526 770.826 Q93.0526 771.405 92.2474 771.405 Z" fill="#000000" fill-rule="evenodd" fill-opacity="1"></path><path clip-path="url(#clip310)" d="M32.3767 672.655 Q33.3107 672.655 33.5039 673.074 Q33.6972 673.46 33.6972 674.748 Q33.6972 676.262 33.826 677.196 Q33.9226 678.13 34.0836 678.71 Q34.2125 679.289 34.6633 679.644 Q35.1142 679.966 35.5007 680.094 Q35.855 680.223 36.7245 680.449 L71.8611 689.209 Q73.0527 689.531 73.4714 689.531 Q73.8901 689.531 74.1477 689.273 Q74.4054 688.983 74.5342 688.275 Q74.6308 687.566 74.663 687.019 Q74.663 686.439 74.663 685.247 Q74.663 683.766 74.9207 683.54 Q75.0817 683.412 75.3715 683.412 Q75.9835 683.412 76.3055 683.669 Q76.5954 683.927 76.6598 684.152 Q76.692 684.346 76.692 684.668 Q76.692 686.02 76.5954 688.79 Q76.4988 691.56 76.4988 692.912 L76.692 701.093 Q76.692 702.059 75.8868 702.059 Q75.2749 702.059 75.0173 701.801 Q74.7274 701.544 74.6952 701.254 Q74.663 700.964 74.663 700.223 Q74.663 697.582 74.3732 696.455 Q74.0833 695.296 73.568 694.974 Q73.0205 694.619 71.539 694.233 L33.7616 684.796 L33.7616 684.861 L75.5004 711.495 L75.7902 711.688 Q76.0479 711.882 76.1445 711.946 Q76.2089 712.01 76.4021 712.204 Q76.5632 712.365 76.6276 712.558 Q76.692 712.719 76.692 712.944 Q76.692 713.331 76.4343 713.556 Q76.1767 713.75 75.9835 713.814 Q75.758 713.846 75.1783 713.943 L34.2769 719.611 L34.2769 719.675 L70.2186 728.661 Q71.217 728.918 71.7323 728.918 Q73.0527 728.918 73.8579 727.985 Q74.6308 727.018 74.663 724.442 Q74.663 723.25 75.3715 723.25 Q76.692 723.25 76.692 724.442 Q76.692 725.537 76.5954 727.823 Q76.4988 730.11 76.4988 731.237 Q76.4988 732.332 76.5954 734.555 Q76.692 736.745 76.692 737.807 Q76.692 738.741 75.8868 738.741 Q74.663 738.741 74.663 737.55 Q74.5986 735.617 74.2121 734.297 Q73.8257 732.976 73.0849 732.236 Q72.3442 731.463 71.6035 731.108 Q70.8305 730.722 69.7033 730.432 L36.1126 722.059 Q35.0498 721.801 34.8888 721.801 Q34.3413 721.801 34.148 722.123 Q33.9226 722.413 33.826 723.25 Q33.6972 724.861 33.6972 726.084 Q33.6972 726.89 33.665 727.212 Q33.6327 727.501 33.4717 727.759 Q33.2785 727.985 32.892 727.985 Q32.2801 727.985 32.0225 727.727 Q31.7326 727.437 31.7004 727.115 Q31.636 726.793 31.636 726.02 L31.636 716.97 Q31.636 715.65 31.8614 715.36 Q32.0547 715.07 33.1497 714.941 L70.4763 709.788 L32.892 685.698 Q31.958 685.086 31.797 684.764 Q31.636 684.442 31.636 683.154 L31.636 674.426 Q31.636 673.718 31.6682 673.428 Q31.7004 673.138 31.8614 672.913 Q32.0225 672.655 32.3767 672.655 Z" fill="#000000" fill-rule="evenodd" fill-opacity="1"></path><path clip-path="url(#clip310)" d="M64.4589 644.876 Q64.8872 644.876 65.0901 645.057 Q65.2705 645.215 65.3156 645.462 Q65.3381 645.71 65.3381 646.364 Q65.3381 647.469 65.4283 648.168 Q65.4959 648.867 65.6086 649.295 Q65.6988 649.723 66.0144 649.971 Q66.3075 650.197 66.578 650.309 Q66.8486 650.4 67.4573 650.557 L92.0529 656.735 Q92.7743 656.937 93.135 656.937 Q93.5182 656.937 93.676 656.712 Q93.8339 656.487 93.9015 655.765 Q94.0142 654.615 94.0142 653.781 Q94.0142 652.677 94.172 652.519 Q94.3298 652.406 94.5553 652.406 Q94.9611 652.406 95.1865 652.586 Q95.3894 652.767 95.4119 652.925 Q95.4345 653.06 95.4345 653.33 L95.2992 659.507 L95.4345 665.572 Q95.4345 666.248 94.916 666.248 Q94.5778 666.248 94.3975 666.203 Q94.1946 666.135 94.1269 665.91 Q94.0368 665.662 94.0368 665.482 Q94.0142 665.301 94.0142 664.783 Q94.0142 663.858 93.9917 663.25 Q93.9466 662.619 93.8339 662.168 Q93.6986 661.694 93.5859 661.469 Q93.4506 661.221 93.1575 661.04 Q92.8419 660.838 92.5939 660.77 Q92.3459 660.68 91.8274 660.567 L66.9387 654.345 Q66.5329 654.255 66.2173 654.255 Q65.6086 654.255 65.4734 654.976 Q65.3381 655.675 65.3381 657.433 Q65.3381 657.974 65.3156 658.2 Q65.293 658.403 65.1803 658.583 Q65.0676 658.741 64.8196 658.741 Q64.504 658.741 64.3011 658.651 Q64.0756 658.561 64.008 658.403 Q63.9404 658.222 63.9178 658.11 Q63.8953 657.997 63.8953 657.817 L64.0306 651.662 L63.8953 645.575 Q63.8953 644.876 64.4589 644.876 Z" fill="#000000" fill-rule="evenodd" fill-opacity="1"></path><path clip-path="url(#clip310)" d="M69.892 613.578 Q69.1481 613.578 68.5394 613.781 Q67.9081 613.961 67.4798 614.254 Q67.0289 614.524 66.6908 615.043 Q66.33 615.562 66.1046 615.99 Q65.8792 616.418 65.7439 617.14 Q65.5861 617.861 65.5185 618.334 Q65.4283 618.808 65.3832 619.619 Q65.3381 620.431 65.3381 620.837 Q65.3381 621.22 65.3381 621.987 Q65.3381 624.399 65.3832 624.805 Q65.4734 625.413 65.8341 625.639 Q66.1722 625.864 67.0965 626.09 L79.1351 629.088 L79.1351 623.925 Q79.1351 621.107 78.3461 619.169 Q77.557 617.23 76.4524 616.125 Q75.235 614.908 73.2736 614.254 Q71.3123 613.578 69.892 613.578 M91.1511 608.55 Q91.3991 608.55 91.9627 608.753 Q92.5263 608.934 93.3153 609.384 Q94.0818 609.835 94.7807 610.444 Q95.4796 611.053 95.953 612.022 Q96.449 612.991 96.449 614.096 Q96.449 614.367 96.4264 614.637 Q96.4264 614.908 96.3137 615.584 Q96.2235 616.238 96.0432 616.779 Q95.8854 617.32 95.5021 617.996 Q95.1414 618.673 94.6454 619.146 Q94.1269 619.597 93.3153 619.913 Q92.4812 620.228 91.4667 620.228 Q90.565 620.228 87.544 619.484 Q84.974 618.83 84.3428 618.83 Q83.6439 618.83 82.9901 619.056 Q82.3364 619.259 81.66 619.777 Q80.9837 620.273 80.5779 621.333 Q80.1496 622.392 80.1496 623.88 L80.1496 629.359 L92.391 632.425 Q92.4136 632.425 92.7292 632.492 Q93.0223 632.56 93.1801 632.56 Q93.4731 632.56 93.6535 632.379 Q93.8339 632.177 93.924 631.681 Q93.9917 631.185 94.0142 630.801 Q94.0142 630.396 94.0142 629.561 Q94.0142 628.524 94.1946 628.344 Q94.3073 628.254 94.5102 628.254 Q94.8258 628.254 95.0512 628.344 Q95.2541 628.412 95.3218 628.592 Q95.3894 628.75 95.4119 628.863 Q95.4345 628.975 95.4345 629.178 L95.2992 635.04 L95.4345 640.856 Q95.4345 641.51 94.916 641.51 Q94.4651 641.51 94.2847 641.352 Q94.0818 641.194 94.0593 640.991 Q94.0142 640.788 94.0142 640.27 Q94.0142 639.143 93.9466 638.466 Q93.8789 637.79 93.7888 637.362 Q93.676 636.911 93.3604 636.685 Q93.0448 636.437 92.7743 636.325 Q92.4812 636.212 91.8274 636.054 L67.0289 629.877 Q66.285 629.697 66.1722 629.697 Q65.7439 629.697 65.6312 629.967 Q65.4959 630.215 65.4283 630.937 L65.3381 632.695 Q65.3381 633.236 65.3156 633.462 Q65.293 633.664 65.1803 633.822 Q65.0676 633.98 64.8196 633.98 Q64.1884 633.98 64.0531 633.71 Q63.8953 633.439 63.8953 632.65 L63.8953 619.484 Q63.8953 614.998 65.8566 612.157 Q67.818 609.294 70.8163 609.294 Q72.169 609.294 73.4314 609.903 Q74.6939 610.512 75.6859 611.526 Q76.6778 612.518 77.5119 613.848 Q78.3235 615.178 78.8871 616.599 Q79.4282 617.996 79.7438 619.439 Q79.9692 618.808 80.3074 618.222 Q80.6456 617.613 81.2768 616.847 Q81.908 616.057 82.9225 615.584 Q83.937 615.111 85.1769 615.111 Q86.0561 615.111 87.3637 615.291 Q91.0835 615.742 92.6165 615.742 Q94.0818 615.742 94.7582 615.359 Q95.4345 614.975 95.4345 613.893 Q95.4345 612.834 94.4876 611.661 Q93.5182 610.467 91.2413 609.7 Q90.5875 609.52 90.5875 609.091 Q90.5875 609.069 90.5875 609.046 Q90.5875 609.001 90.6326 608.911 Q90.6551 608.821 90.7228 608.753 Q90.7679 608.663 90.8806 608.618 Q90.9933 608.55 91.1511 608.55 Z" fill="#000000" fill-rule="evenodd" fill-opacity="1"></path><path clip-path="url(#clip310)" d="M41.2053 666.248 Q40.3711 666.248 40.1231 666.181 Q39.8752 666.09 39.4919 665.73 L29.6176 656.87 Q24.1619 652.023 19.4051 652.023 Q16.3166 652.023 14.1073 653.646 Q11.8979 655.247 11.8979 658.2 Q11.8979 660.229 13.1379 661.942 Q14.3778 663.656 16.5871 664.445 Q16.542 664.309 16.542 663.836 Q16.542 662.686 17.2634 662.055 Q17.9848 661.401 18.9542 661.401 Q20.1942 661.401 20.8029 662.213 Q21.389 663.002 21.389 663.791 Q21.389 664.106 21.3214 664.535 Q21.2537 664.941 20.6225 665.594 Q19.9687 666.248 18.819 666.248 Q15.5952 666.248 13.0251 663.813 Q10.4551 661.356 10.4551 657.614 Q10.4551 653.375 12.98 650.603 Q15.4824 647.807 19.4051 647.807 Q20.7803 647.807 22.0428 648.235 Q23.2827 648.641 24.2521 649.205 Q25.2215 649.746 26.777 651.234 Q28.3326 652.722 29.4372 653.917 Q30.5419 655.111 32.8865 657.794 L37.6433 662.686 L37.6433 654.367 Q37.6433 650.309 37.2826 649.994 Q36.6288 649.543 33.1796 648.979 L33.1796 647.807 L41.2053 649.115 L41.2053 666.248 Z" fill="#000000" fill-rule="evenodd" fill-opacity="1"></path><path clip-path="url(#clip313)" d="M72.2355 1402.74 L1497.56 1402.74 L1497.56 47.2441 L72.2355 47.2441  Z" fill="#808080" fill-rule="evenodd" fill-opacity="0.3"></path>
<polyline clip-path="url(#clip313)" style="stroke:#808080; stroke-linecap:round; stroke-linejoin:round; stroke-width:0; stroke-opacity:1; fill:none" points="72.2355,1402.74 1497.56,1402.74 "></polyline>
<polyline clip-path="url(#clip313)" style="stroke:#a52a2a; stroke-linecap:round; stroke-linejoin:round; stroke-width:8; stroke-opacity:1; fill:none" points="357.301,1390.14 426.109,1375.63 494.918,1351.2 563.727,1310.68 632.536,1245.75 701.345,1147.41 770.153,1009.98 838.962,838.56 907.771,652.104 976.58,477.728 1045.39,335.987 1114.2,233.381 1183.01,165.153 1251.82,122.325 1320.62,96.4019 1389.43,81.0556 1458.24,72.0898 1527.05,66.8921 1595.86,63.8923 1664.67,62.1656 1733.48,61.1731 1802.29,60.6031 1871.09,60.2759 1939.9,60.0882 2008.71,59.9805 2077.52,59.9187 2146.33,59.8833 2215.14,59.8629 2283.95,59.8513 2352.76,59.8445 "></polyline>
<polyline clip-path="url(#clip313)" style="stroke:#a52a2a; stroke-linecap:round; stroke-linejoin:round; stroke-width:8; stroke-opacity:1; fill:none" stroke-dasharray="32, 20" points="357.301,90900 408.466,60148.2 459.632,39806.7 510.797,26351.3 561.963,17450.9 613.128,11563.6 664.294,7669.21 715.459,5093.2 766.625,3389.24 817.79,2262.11 868.956,1516.55 920.121,1023.38 971.287,697.157 1022.45,481.37 1073.62,338.633 1124.78,244.216 1175.95,181.762 1227.11,140.45 1278.28,113.123 1329.45,95.0471 1380.61,83.0904 1431.78,75.1813 1482.94,69.9496 1534.11,66.489 1585.27,64.1999 1636.44,62.6857 1687.6,61.6841 1738.77,61.0216 1789.94,60.5834 1841.1,60.2935 1892.27,60.1017 1943.43,59.9749 1994.6,59.891 2045.76,59.8355 2096.93,59.7988 2148.09,59.7745 2199.26,59.7584 2250.42,59.7478 2301.59,59.7408 2352.76,59.7361 "></polyline>
<polyline clip-path="url(#clip313)" style="stroke:#000000; stroke-linecap:round; stroke-linejoin:round; stroke-width:4; stroke-opacity:1; fill:none" stroke-dasharray="16, 10" points="357.301,68.8111 1497.56,68.8111 "></polyline>
<path clip-path="url(#clip310)" d="M423.816 247.947 L849.24 247.947 L849.24 92.4274 L423.816 92.4274  Z" fill="#ffffff" fill-rule="evenodd" fill-opacity="1"></path>
<polyline clip-path="url(#clip310)" style="stroke:#000000; stroke-linecap:round; stroke-linejoin:round; stroke-width:4; stroke-opacity:1; fill:none" points="423.816,247.947 849.24,247.947 849.24,92.4274 423.816,92.4274 423.816,247.947 "></polyline>
<path clip-path="url(#clip310)" d="M445.987 165.003 L579.018 165.003 L579.018 123.531 L445.987 123.531 L445.987 165.003  Z" fill="#808080" fill-rule="evenodd" fill-opacity="0.3"></path>
<polyline clip-path="url(#clip310)" style="stroke:#808080; stroke-linecap:round; stroke-linejoin:round; stroke-width:0.8; stroke-opacity:1; fill:none" points="445.987,123.531 579.018,123.531 "></polyline>
<path clip-path="url(#clip310)" d="M608.597 128.261 L608.597 135.622 L617.37 135.622 L617.37 138.932 L608.597 138.932 L608.597 153.006 Q608.597 156.177 609.453 157.08 Q610.333 157.983 612.995 157.983 L617.37 157.983 L617.37 161.547 L612.995 161.547 Q608.065 161.547 606.19 159.719 Q604.315 157.867 604.315 153.006 L604.315 138.932 L601.19 138.932 L601.19 135.622 L604.315 135.622 L604.315 128.261 L608.597 128.261 Z" fill="#000000" fill-rule="evenodd" fill-opacity="1"></path><path clip-path="url(#clip310)" d="M634.754 148.515 Q629.592 148.515 627.601 149.696 Q625.611 150.876 625.611 153.723 Q625.611 155.992 627.092 157.334 Q628.597 158.654 631.166 158.654 Q634.708 158.654 636.838 156.154 Q638.99 153.631 638.99 149.464 L638.99 148.515 L634.754 148.515 M643.25 146.756 L643.25 161.547 L638.99 161.547 L638.99 157.612 Q637.532 159.973 635.356 161.108 Q633.18 162.219 630.032 162.219 Q626.051 162.219 623.689 159.996 Q621.352 157.751 621.352 154.001 Q621.352 149.626 624.268 147.404 Q627.208 145.182 633.018 145.182 L638.99 145.182 L638.99 144.765 Q638.99 141.825 637.046 140.228 Q635.125 138.608 631.629 138.608 Q629.407 138.608 627.301 139.14 Q625.194 139.672 623.25 140.737 L623.25 136.802 Q625.588 135.899 627.787 135.46 Q629.986 134.997 632.069 134.997 Q637.694 134.997 640.472 137.913 Q643.25 140.83 643.25 146.756 Z" fill="#000000" fill-rule="evenodd" fill-opacity="1"></path><path clip-path="url(#clip310)" d="M670.68 136.617 L670.68 140.598 Q668.874 139.603 667.046 139.117 Q665.24 138.608 663.388 138.608 Q659.245 138.608 656.953 141.247 Q654.662 143.862 654.662 148.608 Q654.662 153.353 656.953 155.992 Q659.245 158.608 663.388 158.608 Q665.24 158.608 667.046 158.121 Q668.874 157.612 670.68 156.617 L670.68 160.552 Q668.898 161.385 666.976 161.802 Q665.078 162.219 662.925 162.219 Q657.069 162.219 653.62 158.538 Q650.171 154.858 650.171 148.608 Q650.171 142.265 653.643 138.631 Q657.138 134.997 663.203 134.997 Q665.171 134.997 667.046 135.413 Q668.921 135.807 670.68 136.617 Z" fill="#000000" fill-rule="evenodd" fill-opacity="1"></path><path clip-path="url(#clip310)" d="M699.638 145.899 L699.638 161.547 L695.379 161.547 L695.379 146.038 Q695.379 142.358 693.944 140.529 Q692.509 138.7 689.638 138.7 Q686.189 138.7 684.198 140.899 Q682.208 143.098 682.208 146.895 L682.208 161.547 L677.925 161.547 L677.925 125.529 L682.208 125.529 L682.208 139.649 Q683.735 137.311 685.796 136.154 Q687.879 134.997 690.587 134.997 Q695.055 134.997 697.346 137.774 Q699.638 140.529 699.638 145.899 Z" fill="#000000" fill-rule="evenodd" fill-opacity="1"></path><path clip-path="url(#clip310)" d="M718.92 163.955 Q717.115 168.584 715.402 169.996 Q713.689 171.408 710.819 171.408 L707.416 171.408 L707.416 167.844 L709.916 167.844 Q711.675 167.844 712.647 167.01 Q713.62 166.177 714.8 163.075 L715.564 161.131 L705.078 135.622 L709.592 135.622 L717.694 155.899 L725.795 135.622 L730.309 135.622 L718.92 163.955 Z" fill="#000000" fill-rule="evenodd" fill-opacity="1"></path><path clip-path="url(#clip310)" d="M746.235 138.608 Q742.809 138.608 740.818 141.293 Q738.828 143.955 738.828 148.608 Q738.828 153.26 740.795 155.946 Q742.786 158.608 746.235 158.608 Q749.638 158.608 751.629 155.922 Q753.619 153.237 753.619 148.608 Q753.619 144.001 751.629 141.316 Q749.638 138.608 746.235 138.608 M746.235 134.997 Q751.791 134.997 754.962 138.608 Q758.133 142.219 758.133 148.608 Q758.133 154.973 754.962 158.608 Q751.791 162.219 746.235 162.219 Q740.656 162.219 737.485 158.608 Q734.337 154.973 734.337 148.608 Q734.337 142.219 737.485 138.608 Q740.656 134.997 746.235 134.997 Z" fill="#000000" fill-rule="evenodd" fill-opacity="1"></path><path clip-path="url(#clip310)" d="M786.744 145.899 L786.744 161.547 L782.485 161.547 L782.485 146.038 Q782.485 142.358 781.05 140.529 Q779.615 138.7 776.744 138.7 Q773.295 138.7 771.304 140.899 Q769.314 143.098 769.314 146.895 L769.314 161.547 L765.031 161.547 L765.031 135.622 L769.314 135.622 L769.314 139.649 Q770.841 137.311 772.902 136.154 Q774.985 134.997 777.693 134.997 Q782.161 134.997 784.452 137.774 Q786.744 140.529 786.744 145.899 Z" fill="#000000" fill-rule="evenodd" fill-opacity="1"></path><path clip-path="url(#clip310)" d="M795.239 135.622 L799.499 135.622 L799.499 161.547 L795.239 161.547 L795.239 135.622 M795.239 125.529 L799.499 125.529 L799.499 130.923 L795.239 130.923 L795.239 125.529 Z" fill="#000000" fill-rule="evenodd" fill-opacity="1"></path><path clip-path="url(#clip310)" d="M827.068 136.617 L827.068 140.598 Q825.262 139.603 823.434 139.117 Q821.628 138.608 819.776 138.608 Q815.633 138.608 813.341 141.247 Q811.05 143.862 811.05 148.608 Q811.05 153.353 813.341 155.992 Q815.633 158.608 819.776 158.608 Q821.628 158.608 823.434 158.121 Q825.262 157.612 827.068 156.617 L827.068 160.552 Q825.286 161.385 823.364 161.802 Q821.466 162.219 819.313 162.219 Q813.457 162.219 810.008 158.538 Q806.559 154.858 806.559 148.608 Q806.559 142.265 810.031 138.631 Q813.526 134.997 819.591 134.997 Q821.559 134.997 823.434 135.413 Q825.309 135.807 827.068 136.617 Z" fill="#000000" fill-rule="evenodd" fill-opacity="1"></path><polyline clip-path="url(#clip310)" style="stroke:#a52a2a; stroke-linecap:round; stroke-linejoin:round; stroke-width:8; stroke-opacity:1; fill:none" points="445.987,196.107 579.018,196.107 "></polyline>
<path clip-path="url(#clip310)" d="M611.449 187.302 L604.539 215.034 Q604.258 216.135 604.258 217.33 Q604.258 219.532 605.71 219.532 Q606.389 219.532 606.951 219.087 Q607.514 218.618 607.935 217.705 Q608.38 216.768 608.661 215.878 Q608.966 214.988 609.341 213.606 Q609.458 213.067 609.575 212.903 Q609.692 212.739 610.02 212.739 Q610.605 212.739 610.605 213.207 Q610.02 216.088 609.153 217.915 Q607.888 220.609 605.546 220.609 Q603.789 220.609 602.478 219.391 Q601.19 218.15 601.19 216.182 Q601.19 215.433 601.424 214.543 L607.467 190.558 L607.631 189.621 Q607.631 189.363 607.537 189.223 Q607.443 189.082 606.881 188.942 Q606.343 188.801 605.265 188.801 Q604.82 188.801 604.609 188.778 Q604.422 188.754 604.234 188.637 Q604.071 188.52 604.071 188.263 Q604.071 187.841 604.234 187.607 Q604.422 187.373 604.562 187.326 Q604.703 187.279 604.984 187.255 Q605.382 187.232 606.717 187.115 Q608.052 186.974 609.2 186.881 Q610.348 186.787 610.84 186.787 Q611.121 186.787 611.261 186.927 Q611.425 187.045 611.449 187.185 L611.449 187.302 Z" fill="#000000" fill-rule="evenodd" fill-opacity="1"></path><path clip-path="url(#clip310)" d="M616.466 193.762 Q616.466 193.155 616.515 192.975 Q616.581 192.794 616.843 192.516 L623.286 185.334 Q626.812 181.367 626.812 177.907 Q626.812 175.661 625.631 174.054 Q624.467 172.447 622.319 172.447 Q620.843 172.447 619.597 173.349 Q618.351 174.251 617.777 175.858 Q617.876 175.825 618.22 175.825 Q619.056 175.825 619.515 176.349 Q619.991 176.874 619.991 177.579 Q619.991 178.481 619.401 178.924 Q618.827 179.35 618.253 179.35 Q618.023 179.35 617.712 179.301 Q617.417 179.251 616.941 178.792 Q616.466 178.317 616.466 177.481 Q616.466 175.136 618.237 173.267 Q620.024 171.398 622.745 171.398 Q625.828 171.398 627.844 173.234 Q629.878 175.054 629.878 177.907 Q629.878 178.907 629.566 179.825 Q629.271 180.727 628.861 181.432 Q628.467 182.137 627.385 183.268 Q626.303 184.4 625.434 185.203 Q624.565 186.006 622.614 187.712 L619.056 191.171 L625.106 191.171 Q628.058 191.171 628.287 190.909 Q628.615 190.433 629.025 187.925 L629.878 187.925 L628.927 193.762 L616.466 193.762 Z" fill="#000000" fill-rule="evenodd" fill-opacity="1"></path><path clip-path="url(#clip310)" d="M648.169 212.786 Q648.215 212.2 649.129 212.2 L678.524 212.2 Q679.906 212.2 679.929 212.739 Q679.929 213.325 678.618 213.301 L649.457 213.301 Q648.169 213.325 648.169 212.786 M648.169 203.417 Q648.169 202.831 649.176 202.855 L678.477 202.855 Q679.906 202.855 679.929 203.417 Q679.929 203.956 678.712 203.956 L649.129 203.956 Q648.169 203.956 648.169 203.417 Z" fill="#000000" fill-rule="evenodd" fill-opacity="1"></path><path clip-path="url(#clip310)" d="M710.365 188.589 Q706.754 188.589 704.925 192.154 Q703.119 195.695 703.119 202.825 Q703.119 209.931 704.925 213.496 Q706.754 217.038 710.365 217.038 Q713.999 217.038 715.805 213.496 Q717.633 209.931 717.633 202.825 Q717.633 195.695 715.805 192.154 Q713.999 188.589 710.365 188.589 M710.365 184.885 Q716.175 184.885 719.23 189.492 Q722.309 194.075 722.309 202.825 Q722.309 211.552 719.23 216.158 Q716.175 220.742 710.365 220.742 Q704.555 220.742 701.476 216.158 Q698.42 211.552 698.42 202.825 Q698.42 194.075 701.476 189.492 Q704.555 184.885 710.365 184.885 Z" fill="#000000" fill-rule="evenodd" fill-opacity="1"></path><path clip-path="url(#clip310)" d="M730.527 214.191 L735.411 214.191 L735.411 220.07 L730.527 220.07 L730.527 214.191 Z" fill="#000000" fill-rule="evenodd" fill-opacity="1"></path><path clip-path="url(#clip310)" d="M755.596 188.589 Q751.985 188.589 750.156 192.154 Q748.351 195.695 748.351 202.825 Q748.351 209.931 750.156 213.496 Q751.985 217.038 755.596 217.038 Q759.23 217.038 761.036 213.496 Q762.864 209.931 762.864 202.825 Q762.864 195.695 761.036 192.154 Q759.23 188.589 755.596 188.589 M755.596 184.885 Q761.406 184.885 764.462 189.492 Q767.54 194.075 767.54 202.825 Q767.54 211.552 764.462 216.158 Q761.406 220.742 755.596 220.742 Q749.786 220.742 746.707 216.158 Q743.652 211.552 743.652 202.825 Q743.652 194.075 746.707 189.492 Q749.786 184.885 755.596 184.885 Z" fill="#000000" fill-rule="evenodd" fill-opacity="1"></path><path clip-path="url(#clip310)" d="M785.758 188.589 Q782.147 188.589 780.318 192.154 Q778.513 195.695 778.513 202.825 Q778.513 209.931 780.318 213.496 Q782.147 217.038 785.758 217.038 Q789.392 217.038 791.198 213.496 Q793.026 209.931 793.026 202.825 Q793.026 195.695 791.198 192.154 Q789.392 188.589 785.758 188.589 M785.758 184.885 Q791.568 184.885 794.624 189.492 Q797.702 194.075 797.702 202.825 Q797.702 211.552 794.624 216.158 Q791.568 220.742 785.758 220.742 Q779.948 220.742 776.869 216.158 Q773.813 211.552 773.813 202.825 Q773.813 194.075 776.869 189.492 Q779.948 184.885 785.758 184.885 Z" fill="#000000" fill-rule="evenodd" fill-opacity="1"></path><path clip-path="url(#clip310)" d="M806.73 216.135 L814.369 216.135 L814.369 189.769 L806.059 191.436 L806.059 187.177 L814.323 185.51 L818.998 185.51 L818.998 216.135 L826.637 216.135 L826.637 220.07 L806.73 220.07 L806.73 216.135 Z" fill="#000000" fill-rule="evenodd" fill-opacity="1"></path><path clip-path="url(#clip310)" d="M1444.82 1267.19 L2362.73 1267.19 L2362.73 250.569 L1444.82 250.569  Z" fill="#ffffff" fill-rule="evenodd" fill-opacity="1"></path>
<defs>
  <clipPath id="clip314">
    <rect x="1444" y="250" width="919" height="1018"></rect>
  </clipPath>
</defs>
<polyline clip-path="url(#clip314)" style="stroke:#000000; stroke-linecap:round; stroke-linejoin:round; stroke-width:2; stroke-opacity:0.1; fill:none" points="1497.1,1267.19 1497.1,250.569 "></polyline>
<polyline clip-path="url(#clip314)" style="stroke:#000000; stroke-linecap:round; stroke-linejoin:round; stroke-width:2; stroke-opacity:0.1; fill:none" points="2066.34,1267.19 2066.34,250.569 "></polyline>
<polyline clip-path="url(#clip310)" style="stroke:#000000; stroke-linecap:round; stroke-linejoin:round; stroke-width:4; stroke-opacity:1; fill:none" points="1444.82,1267.19 2362.73,1267.19 "></polyline>
<polyline clip-path="url(#clip310)" style="stroke:#000000; stroke-linecap:round; stroke-linejoin:round; stroke-width:4; stroke-opacity:1; fill:none" points="1497.1,1267.19 1497.1,1248.29 "></polyline>
<polyline clip-path="url(#clip310)" style="stroke:#000000; stroke-linecap:round; stroke-linejoin:round; stroke-width:4; stroke-opacity:1; fill:none" points="2066.34,1267.19 2066.34,1248.29 "></polyline>
<path clip-path="url(#clip310)" d="M1462.09 1341.32 L1469.73 1341.32 L1469.73 1314.95 L1461.42 1316.62 L1461.42 1312.36 L1469.68 1310.69 L1474.36 1310.69 L1474.36 1341.32 L1481.99 1341.32 L1481.99 1345.25 L1462.09 1345.25 L1462.09 1341.32 Z" fill="#000000" fill-rule="evenodd" fill-opacity="1"></path><path clip-path="url(#clip310)" d="M1501.44 1313.77 Q1497.83 1313.77 1496 1317.34 Q1494.19 1320.88 1494.19 1328.01 Q1494.19 1335.11 1496 1338.68 Q1497.83 1342.22 1501.44 1342.22 Q1505.07 1342.22 1506.88 1338.68 Q1508.71 1335.11 1508.71 1328.01 Q1508.71 1320.88 1506.88 1317.34 Q1505.07 1313.77 1501.44 1313.77 M1501.44 1310.07 Q1507.25 1310.07 1510.3 1314.67 Q1513.38 1319.26 1513.38 1328.01 Q1513.38 1336.73 1510.3 1341.34 Q1507.25 1345.92 1501.44 1345.92 Q1495.63 1345.92 1492.55 1341.34 Q1489.49 1336.73 1489.49 1328.01 Q1489.49 1319.26 1492.55 1314.67 Q1495.63 1310.07 1501.44 1310.07 Z" fill="#000000" fill-rule="evenodd" fill-opacity="1"></path><path clip-path="url(#clip310)" d="M1523.09 1292.26 Q1520.15 1292.26 1518.67 1295.16 Q1517.2 1298.04 1517.2 1303.83 Q1517.2 1309.6 1518.67 1312.5 Q1520.15 1315.38 1523.09 1315.38 Q1526.04 1315.38 1527.51 1312.5 Q1528.99 1309.6 1528.99 1303.83 Q1528.99 1298.04 1527.51 1295.16 Q1526.04 1292.26 1523.09 1292.26 M1523.09 1289.25 Q1527.81 1289.25 1530.29 1293 Q1532.79 1296.72 1532.79 1303.83 Q1532.79 1310.92 1530.29 1314.66 Q1527.81 1318.39 1523.09 1318.39 Q1518.37 1318.39 1515.87 1314.66 Q1513.38 1310.92 1513.38 1303.83 Q1513.38 1296.72 1515.87 1293 Q1518.37 1289.25 1523.09 1289.25 Z" fill="#000000" fill-rule="evenodd" fill-opacity="1"></path><path clip-path="url(#clip310)" d="M2032.11 1341.32 L2039.75 1341.32 L2039.75 1314.95 L2031.44 1316.62 L2031.44 1312.36 L2039.7 1310.69 L2044.38 1310.69 L2044.38 1341.32 L2052.02 1341.32 L2052.02 1345.25 L2032.11 1345.25 L2032.11 1341.32 Z" fill="#000000" fill-rule="evenodd" fill-opacity="1"></path><path clip-path="url(#clip310)" d="M2071.46 1313.77 Q2067.85 1313.77 2066.02 1317.34 Q2064.22 1320.88 2064.22 1328.01 Q2064.22 1335.11 2066.02 1338.68 Q2067.85 1342.22 2071.46 1342.22 Q2075.09 1342.22 2076.9 1338.68 Q2078.73 1335.11 2078.73 1328.01 Q2078.73 1320.88 2076.9 1317.34 Q2075.09 1313.77 2071.46 1313.77 M2071.46 1310.07 Q2077.27 1310.07 2080.33 1314.67 Q2083.41 1319.26 2083.41 1328.01 Q2083.41 1336.73 2080.33 1341.34 Q2077.27 1345.92 2071.46 1345.92 Q2065.65 1345.92 2062.57 1341.34 Q2059.52 1336.73 2059.52 1328.01 Q2059.52 1319.26 2062.57 1314.67 Q2065.65 1310.07 2071.46 1310.07 Z" fill="#000000" fill-rule="evenodd" fill-opacity="1"></path><path clip-path="url(#clip310)" d="M2087.98 1314.64 L2101.23 1314.64 L2101.23 1317.84 L2083.41 1317.84 L2083.41 1314.64 Q2085.57 1312.41 2089.29 1308.64 Q2093.03 1304.86 2093.99 1303.77 Q2095.82 1301.72 2096.53 1300.31 Q2097.27 1298.88 2097.27 1297.51 Q2097.27 1295.27 2095.69 1293.86 Q2094.13 1292.45 2091.61 1292.45 Q2089.82 1292.45 2087.82 1293.07 Q2085.85 1293.69 2083.59 1294.95 L2083.59 1291.12 Q2085.89 1290.19 2087.88 1289.72 Q2089.87 1289.25 2091.53 1289.25 Q2095.89 1289.25 2098.49 1291.44 Q2101.08 1293.62 2101.08 1297.27 Q2101.08 1299 2100.43 1300.56 Q2099.79 1302.1 2098.08 1304.21 Q2097.6 1304.75 2095.08 1307.37 Q2092.56 1309.96 2087.98 1314.64 Z" fill="#000000" fill-rule="evenodd" fill-opacity="1"></path><polyline clip-path="url(#clip314)" style="stroke:#000000; stroke-linecap:round; stroke-linejoin:round; stroke-width:2; stroke-opacity:0.1; fill:none" points="1444.82,1033.08 2362.73,1033.08 "></polyline>
<polyline clip-path="url(#clip314)" style="stroke:#000000; stroke-linecap:round; stroke-linejoin:round; stroke-width:2; stroke-opacity:0.1; fill:none" points="1444.82,783.163 2362.73,783.163 "></polyline>
<polyline clip-path="url(#clip314)" style="stroke:#000000; stroke-linecap:round; stroke-linejoin:round; stroke-width:2; stroke-opacity:0.1; fill:none" points="1444.82,533.244 2362.73,533.244 "></polyline>
<polyline clip-path="url(#clip314)" style="stroke:#000000; stroke-linecap:round; stroke-linejoin:round; stroke-width:2; stroke-opacity:0.1; fill:none" points="1444.82,283.326 2362.73,283.326 "></polyline>
<polyline clip-path="url(#clip310)" style="stroke:#000000; stroke-linecap:round; stroke-linejoin:round; stroke-width:4; stroke-opacity:1; fill:none" points="1444.82,1267.19 1444.82,250.569 "></polyline>
<polyline clip-path="url(#clip310)" style="stroke:#000000; stroke-linecap:round; stroke-linejoin:round; stroke-width:4; stroke-opacity:1; fill:none" points="1444.82,1033.08 1463.72,1033.08 "></polyline>
<polyline clip-path="url(#clip310)" style="stroke:#000000; stroke-linecap:round; stroke-linejoin:round; stroke-width:4; stroke-opacity:1; fill:none" points="1444.82,783.163 1463.72,783.163 "></polyline>
<polyline clip-path="url(#clip310)" style="stroke:#000000; stroke-linecap:round; stroke-linejoin:round; stroke-width:4; stroke-opacity:1; fill:none" points="1444.82,533.244 1463.72,533.244 "></polyline>
<polyline clip-path="url(#clip310)" style="stroke:#000000; stroke-linecap:round; stroke-linejoin:round; stroke-width:4; stroke-opacity:1; fill:none" points="1444.82,283.326 1463.72,283.326 "></polyline>
<path clip-path="url(#clip310)" d="M1396.88 1018.88 Q1393.27 1018.88 1391.44 1022.44 Q1389.63 1025.99 1389.63 1033.12 Q1389.63 1040.22 1391.44 1043.79 Q1393.27 1047.33 1396.88 1047.33 Q1400.51 1047.33 1402.32 1043.79 Q1404.15 1040.22 1404.15 1033.12 Q1404.15 1025.99 1402.32 1022.44 Q1400.51 1018.88 1396.88 1018.88 M1396.88 1015.18 Q1402.69 1015.18 1405.75 1019.78 Q1408.82 1024.37 1408.82 1033.12 Q1408.82 1041.84 1405.75 1046.45 Q1402.69 1051.03 1396.88 1051.03 Q1391.07 1051.03 1387.99 1046.45 Q1384.93 1041.84 1384.93 1033.12 Q1384.93 1024.37 1387.99 1019.78 Q1391.07 1015.18 1396.88 1015.18 Z" fill="#000000" fill-rule="evenodd" fill-opacity="1"></path><path clip-path="url(#clip310)" d="M1161.21 772.331 L1179.57 772.331 L1179.57 776.266 L1165.5 776.266 L1165.5 784.738 Q1166.51 784.391 1167.53 784.229 Q1168.55 784.043 1169.57 784.043 Q1175.36 784.043 1178.74 787.215 Q1182.12 790.386 1182.12 795.803 Q1182.12 801.381 1178.64 804.483 Q1175.17 807.562 1168.85 807.562 Q1166.68 807.562 1164.41 807.191 Q1162.16 806.821 1159.76 806.08 L1159.76 801.381 Q1161.84 802.516 1164.06 803.071 Q1166.28 803.627 1168.76 803.627 Q1172.76 803.627 1175.1 801.52 Q1177.44 799.414 1177.44 795.803 Q1177.44 792.192 1175.1 790.085 Q1172.76 787.979 1168.76 787.979 Q1166.88 787.979 1165.01 788.395 Q1163.16 788.812 1161.21 789.692 L1161.21 772.331 Z" fill="#000000" fill-rule="evenodd" fill-opacity="1"></path><path clip-path="url(#clip310)" d="M1191.33 801.011 L1196.21 801.011 L1196.21 806.891 L1191.33 806.891 L1191.33 801.011 Z" fill="#000000" fill-rule="evenodd" fill-opacity="1"></path><path clip-path="url(#clip310)" d="M1216.4 775.409 Q1212.79 775.409 1210.96 778.974 Q1209.15 782.516 1209.15 789.645 Q1209.15 796.752 1210.96 800.316 Q1212.79 803.858 1216.4 803.858 Q1220.03 803.858 1221.84 800.316 Q1223.67 796.752 1223.67 789.645 Q1223.67 782.516 1221.84 778.974 Q1220.03 775.409 1216.4 775.409 M1216.4 771.706 Q1222.21 771.706 1225.26 776.312 Q1228.34 780.895 1228.34 789.645 Q1228.34 798.372 1225.26 802.978 Q1222.21 807.562 1216.4 807.562 Q1210.59 807.562 1207.51 802.978 Q1204.45 798.372 1204.45 789.645 Q1204.45 780.895 1207.51 776.312 Q1210.59 771.706 1216.4 771.706 Z" fill="#000000" fill-rule="evenodd" fill-opacity="1"></path><path clip-path="url(#clip310)" d="M1246.56 775.409 Q1242.95 775.409 1241.12 778.974 Q1239.32 782.516 1239.32 789.645 Q1239.32 796.752 1241.12 800.316 Q1242.95 803.858 1246.56 803.858 Q1250.19 803.858 1252 800.316 Q1253.83 796.752 1253.83 789.645 Q1253.83 782.516 1252 778.974 Q1250.19 775.409 1246.56 775.409 M1246.56 771.706 Q1252.37 771.706 1255.43 776.312 Q1258.5 780.895 1258.5 789.645 Q1258.5 798.372 1255.43 802.978 Q1252.37 807.562 1246.56 807.562 Q1240.75 807.562 1237.67 802.978 Q1234.62 798.372 1234.62 789.645 Q1234.62 780.895 1237.67 776.312 Q1240.75 771.706 1246.56 771.706 Z" fill="#000000" fill-rule="evenodd" fill-opacity="1"></path><path clip-path="url(#clip310)" d="M1294.89 781.428 L1284.31 792.053 L1294.89 802.631 L1292.14 805.432 L1281.51 794.807 L1270.89 805.432 L1268.16 802.631 L1278.71 792.053 L1268.16 781.428 L1270.89 778.627 L1281.51 789.252 L1292.14 778.627 L1294.89 781.428 Z" fill="#000000" fill-rule="evenodd" fill-opacity="1"></path><path clip-path="url(#clip310)" d="M1307.25 802.955 L1314.89 802.955 L1314.89 776.59 L1306.58 778.256 L1306.58 773.997 L1314.85 772.331 L1319.52 772.331 L1319.52 802.955 L1327.16 802.955 L1327.16 806.891 L1307.25 806.891 L1307.25 802.955 Z" fill="#000000" fill-rule="evenodd" fill-opacity="1"></path><path clip-path="url(#clip310)" d="M1346.61 775.409 Q1343 775.409 1341.17 778.974 Q1339.36 782.516 1339.36 789.645 Q1339.36 796.752 1341.17 800.316 Q1343 803.858 1346.61 803.858 Q1350.24 803.858 1352.05 800.316 Q1353.87 796.752 1353.87 789.645 Q1353.87 782.516 1352.05 778.974 Q1350.24 775.409 1346.61 775.409 M1346.61 771.706 Q1352.42 771.706 1355.47 776.312 Q1358.55 780.895 1358.55 789.645 Q1358.55 798.372 1355.47 802.978 Q1352.42 807.562 1346.61 807.562 Q1340.8 807.562 1337.72 802.978 Q1334.66 798.372 1334.66 789.645 Q1334.66 780.895 1337.72 776.312 Q1340.8 771.706 1346.61 771.706 Z" fill="#000000" fill-rule="evenodd" fill-opacity="1"></path><path clip-path="url(#clip310)" d="M1358.55 765.807 L1382.66 765.807 L1382.66 769.004 L1358.55 769.004 L1358.55 765.807 Z" fill="#000000" fill-rule="evenodd" fill-opacity="1"></path><path clip-path="url(#clip310)" d="M1399.46 763.926 Q1396.9 763.926 1395.39 765.675 Q1393.91 767.424 1393.91 770.471 Q1393.91 773.499 1395.39 775.267 Q1396.9 777.016 1399.46 777.016 Q1402.02 777.016 1403.5 775.267 Q1405.01 773.499 1405.01 770.471 Q1405.01 767.424 1403.5 765.675 Q1402.02 763.926 1399.46 763.926 M1407 752.021 L1407 755.481 Q1405.57 754.804 1404.1 754.447 Q1402.65 754.09 1401.23 754.09 Q1397.46 754.09 1395.47 756.629 Q1393.5 759.168 1393.21 764.302 Q1394.32 762.666 1396 761.801 Q1397.67 760.917 1399.68 760.917 Q1403.91 760.917 1406.36 763.493 Q1408.82 766.051 1408.82 770.471 Q1408.82 774.797 1406.27 777.411 Q1403.71 780.026 1399.46 780.026 Q1394.59 780.026 1392.01 776.302 Q1389.43 772.559 1389.43 765.468 Q1389.43 758.81 1392.59 754.861 Q1395.75 750.892 1401.07 750.892 Q1402.5 750.892 1403.95 751.174 Q1405.42 751.457 1407 752.021 Z" fill="#000000" fill-rule="evenodd" fill-opacity="1"></path><path clip-path="url(#clip310)" d="M1162.92 553.037 L1170.56 553.037 L1170.56 526.671 L1162.25 528.338 L1162.25 524.079 L1170.51 522.412 L1175.19 522.412 L1175.19 553.037 L1182.83 553.037 L1182.83 556.972 L1162.92 556.972 L1162.92 553.037 Z" fill="#000000" fill-rule="evenodd" fill-opacity="1"></path><path clip-path="url(#clip310)" d="M1192.27 551.092 L1197.15 551.092 L1197.15 556.972 L1192.27 556.972 L1192.27 551.092 Z" fill="#000000" fill-rule="evenodd" fill-opacity="1"></path><path clip-path="url(#clip310)" d="M1217.34 525.491 Q1213.73 525.491 1211.9 529.055 Q1210.09 532.597 1210.09 539.727 Q1210.09 546.833 1211.9 550.398 Q1213.73 553.939 1217.34 553.939 Q1220.97 553.939 1222.78 550.398 Q1224.61 546.833 1224.61 539.727 Q1224.61 532.597 1222.78 529.055 Q1220.97 525.491 1217.34 525.491 M1217.34 521.787 Q1223.15 521.787 1226.2 526.393 Q1229.28 530.977 1229.28 539.727 Q1229.28 548.453 1226.2 553.06 Q1223.15 557.643 1217.34 557.643 Q1211.53 557.643 1208.45 553.06 Q1205.39 548.453 1205.39 539.727 Q1205.39 530.977 1208.45 526.393 Q1211.53 521.787 1217.34 521.787 Z" fill="#000000" fill-rule="evenodd" fill-opacity="1"></path><path clip-path="url(#clip310)" d="M1247.5 525.491 Q1243.89 525.491 1242.06 529.055 Q1240.26 532.597 1240.26 539.727 Q1240.26 546.833 1242.06 550.398 Q1243.89 553.939 1247.5 553.939 Q1251.14 553.939 1252.94 550.398 Q1254.77 546.833 1254.77 539.727 Q1254.77 532.597 1252.94 529.055 Q1251.14 525.491 1247.5 525.491 M1247.5 521.787 Q1253.31 521.787 1256.37 526.393 Q1259.45 530.977 1259.45 539.727 Q1259.45 548.453 1256.37 553.06 Q1253.31 557.643 1247.5 557.643 Q1241.69 557.643 1238.61 553.06 Q1235.56 548.453 1235.56 539.727 Q1235.56 530.977 1238.61 526.393 Q1241.69 521.787 1247.5 521.787 Z" fill="#000000" fill-rule="evenodd" fill-opacity="1"></path><path clip-path="url(#clip310)" d="M1295.83 531.509 L1285.26 542.134 L1295.83 552.713 L1293.08 555.514 L1282.45 544.889 L1271.83 555.514 L1269.1 552.713 L1279.65 542.134 L1269.1 531.509 L1271.83 528.708 L1282.45 539.333 L1293.08 528.708 L1295.83 531.509 Z" fill="#000000" fill-rule="evenodd" fill-opacity="1"></path><path clip-path="url(#clip310)" d="M1308.19 553.037 L1315.83 553.037 L1315.83 526.671 L1307.52 528.338 L1307.52 524.079 L1315.79 522.412 L1320.46 522.412 L1320.46 553.037 L1328.1 553.037 L1328.1 556.972 L1308.19 556.972 L1308.19 553.037 Z" fill="#000000" fill-rule="evenodd" fill-opacity="1"></path><path clip-path="url(#clip310)" d="M1347.55 525.491 Q1343.94 525.491 1342.11 529.055 Q1340.3 532.597 1340.3 539.727 Q1340.3 546.833 1342.11 550.398 Q1343.94 553.939 1347.55 553.939 Q1351.18 553.939 1352.99 550.398 Q1354.82 546.833 1354.82 539.727 Q1354.82 532.597 1352.99 529.055 Q1351.18 525.491 1347.55 525.491 M1347.55 521.787 Q1353.36 521.787 1356.41 526.393 Q1359.49 530.977 1359.49 539.727 Q1359.49 548.453 1356.41 553.06 Q1353.36 557.643 1347.55 557.643 Q1341.74 557.643 1338.66 553.06 Q1335.6 548.453 1335.6 539.727 Q1335.6 530.977 1338.66 526.393 Q1341.74 521.787 1347.55 521.787 Z" fill="#000000" fill-rule="evenodd" fill-opacity="1"></path><path clip-path="url(#clip310)" d="M1359.49 515.888 L1383.6 515.888 L1383.6 519.086 L1359.49 519.086 L1359.49 515.888 Z" fill="#000000" fill-rule="evenodd" fill-opacity="1"></path><path clip-path="url(#clip310)" d="M1391.84 501.481 L1406.75 501.481 L1406.75 504.679 L1395.32 504.679 L1395.32 511.562 Q1396.15 511.28 1396.97 511.149 Q1397.8 510.998 1398.63 510.998 Q1403.33 510.998 1406.08 513.575 Q1408.82 516.152 1408.82 520.553 Q1408.82 525.085 1406 527.605 Q1403.18 530.107 1398.05 530.107 Q1396.28 530.107 1394.44 529.806 Q1392.61 529.505 1390.66 528.903 L1390.66 525.085 Q1392.35 526.007 1394.15 526.458 Q1395.96 526.91 1397.97 526.91 Q1401.23 526.91 1403.12 525.198 Q1405.02 523.487 1405.02 520.553 Q1405.02 517.619 1403.12 515.907 Q1401.23 514.196 1397.97 514.196 Q1396.45 514.196 1394.92 514.534 Q1393.42 514.873 1391.84 515.587 L1391.84 501.481 Z" fill="#000000" fill-rule="evenodd" fill-opacity="1"></path><path clip-path="url(#clip310)" d="M1162.92 303.118 L1170.56 303.118 L1170.56 276.753 L1162.25 278.419 L1162.25 274.16 L1170.51 272.493 L1175.19 272.493 L1175.19 303.118 L1182.83 303.118 L1182.83 307.053 L1162.92 307.053 L1162.92 303.118 Z" fill="#000000" fill-rule="evenodd" fill-opacity="1"></path><path clip-path="url(#clip310)" d="M1192.27 301.174 L1197.15 301.174 L1197.15 307.053 L1192.27 307.053 L1192.27 301.174 Z" fill="#000000" fill-rule="evenodd" fill-opacity="1"></path><path clip-path="url(#clip310)" d="M1207.39 272.493 L1225.74 272.493 L1225.74 276.428 L1211.67 276.428 L1211.67 284.901 Q1212.69 284.553 1213.7 284.391 Q1214.72 284.206 1215.74 284.206 Q1221.53 284.206 1224.91 287.377 Q1228.29 290.549 1228.29 295.965 Q1228.29 301.544 1224.82 304.646 Q1221.34 307.725 1215.02 307.725 Q1212.85 307.725 1210.58 307.354 Q1208.33 306.984 1205.93 306.243 L1205.93 301.544 Q1208.01 302.678 1210.23 303.234 Q1212.45 303.789 1214.93 303.789 Q1218.94 303.789 1221.27 301.683 Q1223.61 299.576 1223.61 295.965 Q1223.61 292.354 1221.27 290.248 Q1218.94 288.141 1214.93 288.141 Q1213.06 288.141 1211.18 288.558 Q1209.33 288.975 1207.39 289.854 L1207.39 272.493 Z" fill="#000000" fill-rule="evenodd" fill-opacity="1"></path><path clip-path="url(#clip310)" d="M1247.5 275.572 Q1243.89 275.572 1242.06 279.137 Q1240.26 282.678 1240.26 289.808 Q1240.26 296.914 1242.06 300.479 Q1243.89 304.021 1247.5 304.021 Q1251.14 304.021 1252.94 300.479 Q1254.77 296.914 1254.77 289.808 Q1254.77 282.678 1252.94 279.137 Q1251.14 275.572 1247.5 275.572 M1247.5 271.868 Q1253.31 271.868 1256.37 276.475 Q1259.45 281.058 1259.45 289.808 Q1259.45 298.535 1256.37 303.141 Q1253.31 307.725 1247.5 307.725 Q1241.69 307.725 1238.61 303.141 Q1235.56 298.535 1235.56 289.808 Q1235.56 281.058 1238.61 276.475 Q1241.69 271.868 1247.5 271.868 Z" fill="#000000" fill-rule="evenodd" fill-opacity="1"></path><path clip-path="url(#clip310)" d="M1295.83 281.59 L1285.26 292.215 L1295.83 302.794 L1293.08 305.595 L1282.45 294.97 L1271.83 305.595 L1269.1 302.794 L1279.65 292.215 L1269.1 281.59 L1271.83 278.79 L1282.45 289.414 L1293.08 278.79 L1295.83 281.59 Z" fill="#000000" fill-rule="evenodd" fill-opacity="1"></path><path clip-path="url(#clip310)" d="M1308.19 303.118 L1315.83 303.118 L1315.83 276.753 L1307.52 278.419 L1307.52 274.16 L1315.79 272.493 L1320.46 272.493 L1320.46 303.118 L1328.1 303.118 L1328.1 307.053 L1308.19 307.053 L1308.19 303.118 Z" fill="#000000" fill-rule="evenodd" fill-opacity="1"></path><path clip-path="url(#clip310)" d="M1347.55 275.572 Q1343.94 275.572 1342.11 279.137 Q1340.3 282.678 1340.3 289.808 Q1340.3 296.914 1342.11 300.479 Q1343.94 304.021 1347.55 304.021 Q1351.18 304.021 1352.99 300.479 Q1354.82 296.914 1354.82 289.808 Q1354.82 282.678 1352.99 279.137 Q1351.18 275.572 1347.55 275.572 M1347.55 271.868 Q1353.36 271.868 1356.41 276.475 Q1359.49 281.058 1359.49 289.808 Q1359.49 298.535 1356.41 303.141 Q1353.36 307.725 1347.55 307.725 Q1341.74 307.725 1338.66 303.141 Q1335.6 298.535 1335.6 289.808 Q1335.6 281.058 1338.66 276.475 Q1341.74 271.868 1347.55 271.868 Z" fill="#000000" fill-rule="evenodd" fill-opacity="1"></path><path clip-path="url(#clip310)" d="M1359.49 265.97 L1383.6 265.97 L1383.6 269.167 L1359.49 269.167 L1359.49 265.97 Z" fill="#000000" fill-rule="evenodd" fill-opacity="1"></path><path clip-path="url(#clip310)" d="M1391.84 251.563 L1406.75 251.563 L1406.75 254.76 L1395.32 254.76 L1395.32 261.644 Q1396.15 261.362 1396.97 261.23 Q1397.8 261.08 1398.63 261.08 Q1403.33 261.08 1406.08 263.656 Q1408.82 266.233 1408.82 270.634 Q1408.82 275.167 1406 277.687 Q1403.18 280.188 1398.05 280.188 Q1396.28 280.188 1394.44 279.887 Q1392.61 279.586 1390.66 278.985 L1390.66 275.167 Q1392.35 276.088 1394.15 276.54 Q1395.96 276.991 1397.97 276.991 Q1401.23 276.991 1403.12 275.279 Q1405.02 273.568 1405.02 270.634 Q1405.02 267.7 1403.12 265.988 Q1401.23 264.277 1397.97 264.277 Q1396.45 264.277 1394.92 264.615 Q1393.42 264.954 1391.84 265.669 L1391.84 251.563 Z" fill="#000000" fill-rule="evenodd" fill-opacity="1"></path><path clip-path="url(#clip314)" d="M1160.21 1267.19 L1497.1 1267.19 L1497.1 250.569 L1160.21 250.569  Z" fill="#808080" fill-rule="evenodd" fill-opacity="0.3"></path>
<polyline clip-path="url(#clip314)" style="stroke:#808080; stroke-linecap:round; stroke-linejoin:round; stroke-width:0; stroke-opacity:1; fill:none" points="1160.21,1267.19 1497.1,1267.19 "></polyline>
<path clip-path="url(#clip314)" d="M1457.85 1339.46 L1526.55 925.554 L1595.25 685.915 L1663.95 546.476 L1732.65 461.936 L1801.35 413.359 L1870.05 389.086 L1938.75 367.858 L2007.45 339.634 L2076.15 335.628 L2144.85 327.898 L2213.55 325.08 L2282.25 326.138 L2350.95 321.784 L2350.95 321.628 L2282.25 318.346 L2213.55 321.25 L2144.85 321.662 L2076.15 319.555 L2007.45 325.354 L1938.75 314.214 L1870.05 322.78 L1801.35 350.423 L1732.65 392.284 L1663.95 465.222 L1595.25 599.775 L1526.55 836.116 L1457.85 1246.95  Z" fill="#a52a2a" fill-rule="evenodd" fill-opacity="0.5"></path>
<polyline clip-path="url(#clip314)" style="stroke:#a52a2a; stroke-linecap:round; stroke-linejoin:round; stroke-width:0; stroke-opacity:1; fill:none" points="1457.85,1293.2 1526.55,880.835 1595.25,642.845 1663.95,505.849 1732.65,427.11 1801.35,381.891 1870.05,355.933 1938.75,341.036 2007.45,332.494 2076.15,327.591 2144.85,324.78 2213.55,323.165 2282.25,322.242 2350.95,321.706 "></polyline>
<polyline clip-path="url(#clip314)" style="stroke:#a52a2a; stroke-linecap:round; stroke-linejoin:round; stroke-width:8; stroke-opacity:1; fill:none" stroke-dasharray="32, 20" points="1212.49,7519.34 1272.41,4750.77 1332.33,3045.76 1392.25,1995.73 1452.17,1349.07 1512.08,950.826 1572,705.568 1631.92,554.527 1691.84,461.508 1751.76,404.223 1811.68,368.944 1871.6,347.217 1931.52,333.837 1991.44,325.597 2051.36,320.522 2111.28,317.397 2171.19,315.472 2231.11,314.287 2291.03,313.557 2350.95,313.107 "></polyline>
<polyline clip-path="url(#clip314)" style="stroke:#000000; stroke-linecap:round; stroke-linejoin:round; stroke-width:4; stroke-opacity:1; fill:none" stroke-dasharray="16, 10" points="1444.82,1033.08 1497.1,1033.08 "></polyline>
</svg>