<svg xmlns="http://www.w3.org/2000/svg" xmlns:xlink="http://www.w3.org/1999/xlink" x="0" y="0" width="662" height="302" style="
        width:662px;
        height:302px;
        background: transparent;
        fill: none;
">
        
        
        <svg xmlns="http://www.w3.org/2000/svg" class="role-diagram-draw-area"><g class="shapes-region" style="stroke: black; fill: none;"><g class="composite-shape"><defs><!-- react-text: 7456 --> <!-- /react-text --><filter id="_bsd1xbg6ap1t" height="150%" width="150%" filterUnits="userSpaceOnUse"><feGaussianBlur in="SourceGraphic" stdDeviation="2"/><feOffset dx="2" dy="2" result="offsetblur"/><feFlood flood-color="rgb(0,0,0)" flood-opacity="1"/><feComposite in2="offsetblur" operator="in"/><feMerge><feMergeNode/><feMergeNode in="SourceGraphic"/></feMerge></filter></defs><path class="real" d=" M20,146.5 C20,83.26 71.26,32 134.5,32 C197.74,32 249,83.26 249,146.5 C249,209.74 197.74,261 134.5,261 C71.26,261 20,209.74 20,146.5 Z" style="stroke-width: 1; stroke: rgb(0, 0, 0); fill: none; fill-opacity: 1; filter: url(&quot;#_bsd1xbg6ap1t&quot;);"/></g><g class="composite-shape"><defs><!-- react-text: 7117 --> <!-- /react-text --><filter id="_bsd61n681iva" height="150%" width="150%" filterUnits="userSpaceOnUse"><feGaussianBlur in="SourceGraphic" stdDeviation="2"/><feOffset dx="2" dy="2" result="offsetblur"/><feFlood flood-color="rgb(0,0,0)" flood-opacity="1"/><feComposite in2="offsetblur" operator="in"/><feMerge><feMergeNode/><feMergeNode in="SourceGraphic"/></feMerge></filter></defs><path class="real" d=" M434.54,202.02 C397.08,154.88 398.25,91.59 437.17,60.67 C476.09,29.74 538,42.9 575.46,90.04 C612.92,137.19 611.75,200.47 572.83,231.4 C533.91,262.32 472,249.17 434.54,202.02 Z" style="stroke-width: 1; stroke: rgb(0, 0, 0); fill: none; fill-opacity: 1; filter: url(&quot;#_bsd61n681iva&quot;);"/></g><g class="arrow-line"><path class="connection real" stroke-dasharray="" d="  M134.5,32 L480,44.06" style="stroke: rgb(0, 0, 0); stroke-width: 1; fill: none; fill-opacity: 1;"/><g><g stroke="none" fill="#000" transform="matrix(-0.9993908270190958,-0.0348994967025009,0.0348994967025009,-0.9993908270190958,312.2469554595474,38.2057095520428)" style="stroke: none; fill: rgb(0, 0, 0); stroke-width: 1;"><path d=" M8.93,-4.29 L0,0 L8.93,4.29 Z"/></g></g></g><g class="arrow-line"><path class="connection real" stroke-dasharray="" d="  M134.5,261 L529,248.06" style="stroke: rgb(0, 0, 0); stroke-width: 1; fill: none; fill-opacity: 1;"/><g><g stroke="none" fill="#000" transform="matrix(-0.9994617283920728,0.03280630243612326,-0.03280630243612326,-0.9994617283920728,336.747313439767,254.36736472084414)" style="stroke: none; fill: rgb(0, 0, 0); stroke-width: 1;"><path d=" M8.93,-4.29 L0,0 L8.93,4.29 Z"/></g></g></g><g class="composite-shape"><defs><!-- react-text: 7057 --> <!-- /react-text --><filter id="_bsdb7l38q6fd" height="150%" width="150%" filterUnits="userSpaceOnUse"><feGaussianBlur in="SourceGraphic" stdDeviation="2"/><feOffset dx="2" dy="2" result="offsetblur"/><feFlood flood-color="rgb(0,0,0)" flood-opacity="1"/><feComposite in2="offsetblur" operator="in"/><feMerge><feMergeNode/><feMergeNode in="SourceGraphic"/></feMerge></filter></defs><path class="real" d=" M463.5,146.03 C463.5,123.11 482.08,104.53 505,104.53 C527.92,104.53 546.5,123.11 546.5,146.03 C546.5,168.95 527.92,187.53 505,187.53 C482.08,187.53 463.5,168.95 463.5,146.03 Z" style="stroke-width: 1; stroke: rgb(0, 0, 0); fill: rgb(155, 155, 155); fill-opacity: 1; filter: url(&quot;#_bsdb7l38q6fd&quot;);"/></g><g class="composite-shape"><defs><!-- react-text: 7422 --> <!-- /react-text --><filter id="_bsd5z5jh116b" height="150%" width="150%" filterUnits="userSpaceOnUse"><feGaussianBlur in="SourceGraphic" stdDeviation="2"/><feOffset dx="2" dy="2" result="offsetblur"/><feFlood flood-color="rgb(0,0,0)" flood-opacity="1"/><feComposite in2="offsetblur" operator="in"/><feMerge><feMergeNode/><feMergeNode in="SourceGraphic"/></feMerge></filter></defs><path class="real" d=" M84.13,157.42 C70.37,143.92 78.33,113.49 101.92,89.44 C125.51,65.4 155.78,56.85 169.55,70.35 C183.31,83.85 175.34,114.29 151.76,138.33 C128.17,162.38 97.89,170.92 84.13,157.42 Z" style="stroke-width: 1; stroke: rgb(0, 0, 0); fill: rgb(155, 155, 155); fill-opacity: 1; filter: url(&quot;#_bsd5z5jh116b&quot;);"/></g><g class="arrow-line"><path class="connection real" stroke-dasharray="" d="  M158,65.06 L513,105.06" style="stroke: rgb(0, 0, 0); stroke-width: 1; fill: none; fill-opacity: 1;"/><g><g stroke="none" fill="#000" transform="matrix(0.9937094179432872,0.11198925256833134,-0.11198925256833134,0.9937094179432872,329.04087287533855,84.33471102820715)" style="stroke: none; fill: rgb(0, 0, 0); stroke-width: 1;"><path d=" M8.93,-4.29 L0,0 L8.93,4.29 Z"/></g></g></g><g class="arrow-line"><path class="connection real" stroke-dasharray="" d="  M96,164.06 L505,187.53" style="stroke: rgb(0, 0, 0); stroke-width: 1; fill: none; fill-opacity: 1;"/><g><g stroke="none" fill="#000" transform="matrix(0.9983618494271823,0.05721553642443813,-0.05721553642443813,0.9983618494271823,294.0106744577567,175.42451226449995)" style="stroke: none; fill: rgb(0, 0, 0); stroke-width: 1;"><path d=" M8.93,-4.29 L0,0 L8.93,4.29 Z"/></g></g></g><g/></g><g/><g/><g/></svg>
        <svg xmlns="http://www.w3.org/2000/svg" xmlns:xlink="http://www.w3.org/1999/xlink" width="660" height="300" style="width:660px;height:300px;font-family:Asana-Math, Asana;background:transparent;"><g><g><g><g transform="matrix(1,0,0,1,287,236)"><path transform="matrix(0.017,0,0,-0.017,0,0)" d="M345 437L329 437L350 549C366 635 394 673 440 673C470 673 497 658 512 634L522 638C527 654 537 685 545 705L550 720C534 727 503 733 480 733C469 733 453 730 445 726C421 715 339 654 316 630C294 608 282 578 271 521L256 442C215 422 195 414 170 405L165 383L246 383L237 327C207 132 170 -54 148 -123C130 -182 100 -213 64 -213C41 -213 30 -206 12 -184L-2 -188C-6 -211 -20 -259 -25 -268C-16 -273 -1 -276 10 -276C51 -276 105 -245 144 -198C215 -114 235 -18 319 383L423 383C427 402 434 425 440 439L436 446C407 439 408 437 345 437Z" stroke="rgb(0,0,0)" stroke-opacity="1" stroke-width="8" fill="rgb(0,0,0)" fill-opacity="1"></path></g></g><g><g transform="matrix(1,0,0,1,299.7406005859375,236)"><path transform="matrix(0.017,0,0,-0.017,0,0)" d="M123 111C93 111 66 83 66 53C66 23 93 -5 122 -5C154 -5 182 22 182 53C182 83 154 111 123 111ZM123 456C93 456 66 428 66 398C66 368 93 340 122 340C154 340 182 367 182 397C182 428 154 456 123 456Z" stroke="rgb(0,0,0)" stroke-opacity="1" stroke-width="8" fill="rgb(0,0,0)" fill-opacity="1"></path></g></g><g><g transform="matrix(1,0,0,1,307.3642578125,236)"><path transform="matrix(0.017,0,0,-0.017,0,0)" d="M665 25L665 -3C713 -1 758 0 800 0C840 0 885 -1 933 -3L933 25L908 27C867 30 854 37 840 61L669 368L890 620C920 653 929 659 955 662L983 664L983 692L869 689C857 689 843 689 754 692L754 664L787 662C819 660 832 655 832 643C832 632 827 623 809 601L648 405L544 604C535 622 530 634 530 642C530 654 543 660 573 662L610 664L610 692L564 691C523 690 493 689 477 689C460 689 430 690 389 691L344 692L344 664L370 662C419 657 431 650 451 613L597 343L359 61C344 43 321 31 297 28L269 25L269 -3C318 -1 359 0 394 0C430 0 470 -1 513 -3L513 25L481 28C443 32 426 38 426 50C426 58 430 67 436 75L618 306L737 80C746 62 751 49 751 40C751 32 744 29 719 29L703 28Z" stroke="rgb(0,0,0)" stroke-opacity="1" stroke-width="8" fill="rgb(0,0,0)" fill-opacity="1"></path></g></g><g><g><g transform="matrix(1,0,0,1,327.234375,236)"><path transform="matrix(0.017,0,0,-0.017,0,0)" d="M949 272L743 486L711 452L836 300L65 300L65 241L836 241L711 89L743 55Z" stroke="rgb(0,0,0)" stroke-opacity="1" stroke-width="8" fill="rgb(0,0,0)" fill-opacity="1"></path></g></g></g><g><g transform="matrix(1,0,0,1,347.869873046875,236)"><path transform="matrix(0.017,0,0,-0.017,0,0)" d="M52 647L55 623C78 632 89 635 100 635C147 635 183 589 224 477C248 410 287 273 286 257C286 257 286 254 285 251L264 125C247 34 246 31 206 28L158 25L154 -3L207 -2C254 -1 277 0 293 0L390 -3L416 -3L419 25L370 28C343 30 334 37 334 57C334 63 335 73 336 78L362 246C371 301 436 419 510 512C568 586 610 616 669 626L675 697C602 678 549 636 474 536C413 452 374 384 346 310C271 616 223 704 131 705C128 702 90 672 67 658Z" stroke="rgb(0,0,0)" stroke-opacity="1" stroke-width="8" fill="rgb(0,0,0)" fill-opacity="1"></path></g></g></g></g><g><g><g><g transform="matrix(1,0,0,1,127,243)"><path transform="matrix(0.017,0,0,-0.017,0,0)" d="M416 25L416 -3C464 -1 509 0 551 0C591 0 636 -1 684 -3L684 25L659 27C618 30 605 37 591 61L420 368L641 620C671 653 680 659 706 662L734 664L734 692L620 689C608 689 594 689 505 692L505 664L538 662C570 660 583 655 583 643C583 632 578 623 560 601L399 405L295 604C286 622 281 634 281 642C281 654 294 660 324 662L361 664L361 692L315 691C274 690 244 689 228 689C211 689 181 690 140 691L95 692L95 664L121 662C170 657 182 650 202 613L348 343L110 61C95 43 72 31 48 28L20 25L20 -3C69 -1 110 0 145 0C181 0 221 -1 264 -3L264 25L232 28C194 32 177 38 177 50C177 58 181 67 187 75L369 306L488 80C497 62 502 49 502 40C502 32 495 29 470 29L454 28Z" stroke="rgb(0,0,0)" stroke-opacity="1" stroke-width="8" fill="rgb(0,0,0)" fill-opacity="1"></path></g></g></g></g><g><g><g><g transform="matrix(1,0,0,1,521,235)"><path transform="matrix(0.017,0,0,-0.017,0,0)" d="M52 647L55 623C78 632 89 635 100 635C147 635 183 589 224 477C248 410 287 273 286 257C286 257 286 254 285 251L264 125C247 34 246 31 206 28L158 25L154 -3L207 -2C254 -1 277 0 293 0L390 -3L416 -3L419 25L370 28C343 30 334 37 334 57C334 63 335 73 336 78L362 246C371 301 436 419 510 512C568 586 610 616 669 626L675 697C602 678 549 636 474 536C413 452 374 384 346 310C271 616 223 704 131 705C128 702 90 672 67 658Z" stroke="rgb(0,0,0)" stroke-opacity="1" stroke-width="8" fill="rgb(0,0,0)" fill-opacity="1"></path></g></g></g></g><g><g><g><g transform="matrix(1,0,0,1,116,123)"><path transform="matrix(0.017,0,0,-0.017,0,0)" d="M416 25L416 -3C464 -1 509 0 551 0C591 0 636 -1 684 -3L684 25L659 27C618 30 605 37 591 61L420 368L641 620C671 653 680 659 706 662L734 664L734 692L620 689C608 689 594 689 505 692L505 664L538 662C570 660 583 655 583 643C583 632 578 623 560 601L399 405L295 604C286 622 281 634 281 642C281 654 294 660 324 662L361 664L361 692L315 691C274 690 244 689 228 689C211 689 181 690 140 691L95 692L95 664L121 662C170 657 182 650 202 613L348 343L110 61C95 43 72 31 48 28L20 25L20 -3C69 -1 110 0 145 0C181 0 221 -1 264 -3L264 25L232 28C194 32 177 38 177 50C177 58 181 67 187 75L369 306L488 80C497 62 502 49 502 40C502 32 495 29 470 29L454 28Z" stroke="rgb(255,255,255)" stroke-opacity="1" stroke-width="8" fill="rgb(255,255,255)" fill-opacity="1"></path></g></g><g><g><g><g><g transform="matrix(1,0,0,1,128.75,126.009375)"><path transform="matrix(0.0119,0,0,-0.0119,0,0)" d="M263 689C108 689 29 566 29 324C29 207 50 106 85 57C120 8 176 -20 238 -20C389 -20 465 110 465 366C465 585 400 689 263 689ZM245 654C342 654 381 556 381 316C381 103 343 15 251 15C154 15 113 116 113 360C113 571 150 654 245 654Z" stroke="rgb(255,255,255)" stroke-opacity="1" stroke-width="8" fill="rgb(255,255,255)" fill-opacity="1"></path></g></g></g></g></g></g></g><g><g><g><g transform="matrix(1,0,0,1,498,151)"><path transform="matrix(0.017,0,0,-0.017,0,0)" d="M52 647L55 623C78 632 89 635 100 635C147 635 183 589 224 477C248 410 287 273 286 257C286 257 286 254 285 251L264 125C247 34 246 31 206 28L158 25L154 -3L207 -2C254 -1 277 0 293 0L390 -3L416 -3L419 25L370 28C343 30 334 37 334 57C334 63 335 73 336 78L362 246C371 301 436 419 510 512C568 586 610 616 669 626L675 697C602 678 549 636 474 536C413 452 374 384 346 310C271 616 223 704 131 705C128 702 90 672 67 658Z" stroke="rgb(255,255,255)" stroke-opacity="1" stroke-width="8" fill="rgb(255,255,255)" fill-opacity="1"></path></g></g><g><g><g><g><g transform="matrix(1,0,0,1,509.8125,154.009375)"><path transform="matrix(0.0119,0,0,-0.0119,0,0)" d="M263 689C108 689 29 566 29 324C29 207 50 106 85 57C120 8 176 -20 238 -20C389 -20 465 110 465 366C465 585 400 689 263 689ZM245 654C342 654 381 556 381 316C381 103 343 15 251 15C154 15 113 116 113 360C113 571 150 654 245 654Z" stroke="rgb(255,255,255)" stroke-opacity="1" stroke-width="8" fill="rgb(255,255,255)" fill-opacity="1"></path></g></g></g></g></g></g></g><g><g><g><g transform="matrix(1,0,0,1,279,158)"><path transform="matrix(0.017,0,0,-0.017,0,0)" d="M345 437L329 437L350 549C366 635 394 673 440 673C470 673 497 658 512 634L522 638C527 654 537 685 545 705L550 720C534 727 503 733 480 733C469 733 453 730 445 726C421 715 339 654 316 630C294 608 282 578 271 521L256 442C215 422 195 414 170 405L165 383L246 383L237 327C207 132 170 -54 148 -123C130 -182 100 -213 64 -213C41 -213 30 -206 12 -184L-2 -188C-6 -211 -20 -259 -25 -268C-16 -273 -1 -276 10 -276C51 -276 105 -245 144 -198C215 -114 235 -18 319 383L423 383C427 402 434 425 440 439L436 446C407 439 408 437 345 437Z" stroke="rgb(0,0,0)" stroke-opacity="1" stroke-width="8" fill="rgb(0,0,0)" fill-opacity="1"></path></g></g><g><g><g><g><g transform="matrix(1,0,0,1,289.3125,151.9)"><path transform="matrix(0.0119,0,0,-0.0119,0,0)" d="M555 243L555 299L51 299L51 243ZM1023 -3L1023 27L971 30C916 33 906 44 906 96L906 700L665 598L672 548L822 614L822 96C822 44 811 33 757 30L701 27L701 -3C855 0 855 0 866 0C897 0 1007 -3 1023 -3Z" stroke="rgb(0,0,0)" stroke-opacity="1" stroke-width="8" fill="rgb(0,0,0)" fill-opacity="1"></path></g></g></g></g></g><g><g transform="matrix(1,0,0,1,306.8656005859375,158)"><path transform="matrix(0.017,0,0,-0.017,0,0)" d="M123 111C93 111 66 83 66 53C66 23 93 -5 122 -5C154 -5 182 22 182 53C182 83 154 111 123 111ZM123 456C93 456 66 428 66 398C66 368 93 340 122 340C154 340 182 367 182 397C182 428 154 456 123 456Z" stroke="rgb(0,0,0)" stroke-opacity="1" stroke-width="8" fill="rgb(0,0,0)" fill-opacity="1"></path></g></g><g><g transform="matrix(1,0,0,1,314.4892578125,158)"><path transform="matrix(0.017,0,0,-0.017,0,0)" d="M301 647L304 623C327 632 338 635 349 635C396 635 432 589 473 477C497 410 536 273 535 257C535 257 535 254 534 251L513 125C496 34 495 31 455 28L407 25L403 -3L456 -2C503 -1 526 0 542 0L639 -3L665 -3L668 25L619 28C592 30 583 37 583 57C583 63 584 73 585 78L611 246C620 301 685 419 759 512C817 586 859 616 918 626L924 697C851 678 798 636 723 536C662 452 623 384 595 310C520 616 472 704 380 705C377 702 339 672 316 658Z" stroke="rgb(0,0,0)" stroke-opacity="1" stroke-width="8" fill="rgb(0,0,0)" fill-opacity="1"></path></g></g><g><g><g><g><g transform="matrix(1,0,0,1,330.53125,161.009375)"><path transform="matrix(0.0119,0,0,-0.0119,0,0)" d="M263 689C108 689 29 566 29 324C29 207 50 106 85 57C120 8 176 -20 238 -20C389 -20 465 110 465 366C465 585 400 689 263 689ZM245 654C342 654 381 556 381 316C381 103 343 15 251 15C154 15 113 116 113 360C113 571 150 654 245 654Z" stroke="rgb(0,0,0)" stroke-opacity="1" stroke-width="8" fill="rgb(0,0,0)" fill-opacity="1"></path></g></g></g></g></g><g><g><g transform="matrix(1,0,0,1,340.890625,158)"><path transform="matrix(0.017,0,0,-0.017,0,0)" d="M949 272L743 486L711 452L836 300L65 300L65 241L836 241L711 89L743 55Z" stroke="rgb(0,0,0)" stroke-opacity="1" stroke-width="8" fill="rgb(0,0,0)" fill-opacity="1"></path></g></g></g><g><g transform="matrix(1,0,0,1,361.52862548828125,158)"><path transform="matrix(0.017,0,0,-0.017,0,0)" d="M416 25L416 -3C464 -1 509 0 551 0C591 0 636 -1 684 -3L684 25L659 27C618 30 605 37 591 61L420 368L641 620C671 653 680 659 706 662L734 664L734 692L620 689C608 689 594 689 505 692L505 664L538 662C570 660 583 655 583 643C583 632 578 623 560 601L399 405L295 604C286 622 281 634 281 642C281 654 294 660 324 662L361 664L361 692L315 691C274 690 244 689 228 689C211 689 181 690 140 691L95 692L95 664L121 662C170 657 182 650 202 613L348 343L110 61C95 43 72 31 48 28L20 25L20 -3C69 -1 110 0 145 0C181 0 221 -1 264 -3L264 25L232 28C194 32 177 38 177 50C177 58 181 67 187 75L369 306L488 80C497 62 502 49 502 40C502 32 495 29 470 29L454 28Z" stroke="rgb(0,0,0)" stroke-opacity="1" stroke-width="8" fill="rgb(0,0,0)" fill-opacity="1"></path></g></g><g><g><g><g><g transform="matrix(1,0,0,1,374.28125,161.009375)"><path transform="matrix(0.0119,0,0,-0.0119,0,0)" d="M263 689C108 689 29 566 29 324C29 207 50 106 85 57C120 8 176 -20 238 -20C389 -20 465 110 465 366C465 585 400 689 263 689ZM245 654C342 654 381 556 381 316C381 103 343 15 251 15C154 15 113 116 113 360C113 571 150 654 245 654Z" stroke="rgb(0,0,0)" stroke-opacity="1" stroke-width="8" fill="rgb(0,0,0)" fill-opacity="1"></path></g></g></g></g></g></g></g></svg>
</svg>
